/* XPM */
static char * EA_32_xpm[] = {
"32 32 85 1",
" 	c #F8FF00",
".	c #F8FB00",
"+	c #FAE000",
"@	c #FBCC00",
"#	c #FCBC00",
"$	c #FAE200",
"%	c #F8FC00",
"&	c #FAE400",
"*	c #FD9B00",
"=	c #FF3100",
"-	c #FF0000",
";	c #FF3600",
">	c #FCAA00",
",	c #F9ED00",
"'	c #F8F800",
")	c #FDA200",
"!	c #FF0900",
"~	c #FCAC00",
"{	c #F8FA00",
"]	c #FE6100",
"^	c #FE0000",
"/	c #730000",
"(	c #CE0000",
"_	c #FE7A00",
":	c #F9F100",
"<	c #FE5400",
"[	c #000000",
"}	c #C20000",
"|	c #FE6200",
"1	c #F9F500",
"2	c #FE7500",
"3	c #B80000",
"4	c #E70000",
"5	c #F40000",
"6	c #FD9200",
"7	c #CC0000",
"8	c #FBCE00",
"9	c #F9F600",
"0	c #FF3900",
"a	c #FBC400",
"b	c #FAD900",
"c	c #FD8D00",
"d	c #FCA800",
"e	c #FF3700",
"f	c #A20000",
"g	c #CB0000",
"h	c #FA0000",
"i	c #FE7800",
"j	c #F9F700",
"k	c #F30000",
"l	c #FF0F00",
"m	c #F9EB00",
"n	c #7D0000",
"o	c #9D0000",
"p	c #F70000",
"q	c #F9F300",
"r	c #FF0B00",
"s	c #FF0E00",
"t	c #FE6E00",
"u	c #FD8200",
"v	c #FD9E00",
"w	c #FBBD00",
"x	c #FAD300",
"y	c #F9F400",
"z	c #FF3000",
"A	c #FE4E00",
"B	c #FCAE00",
"C	c #FBC300",
"D	c #FE5D00",
"E	c #C30000",
"F	c #FE7700",
"G	c #FAE500",
"H	c #FF3800",
"I	c #990000",
"J	c #FF3A00",
"K	c #DD0000",
"L	c #F9EA00",
"M	c #F9EF00",
"N	c #FD8300",
"O	c #FE8000",
"P	c #FADD00",
"Q	c #F9F200",
"R	c #FBCF00",
"S	c #FCB100",
"T	c #FCB300",
"                                ",
"                                ",
"                                ",
"            .+@##@$%            ",
"          &*=------;>,          ",
"        ')-----------!~{        ",
"       ,]^///////////(-_:       ",
"      :<-^[[[[[[[[[[[}--|1      ",
"     .2--^[[3444444445---6      ",
"     #---^[[7-------------8     ",
"    90---^[[7-------------|     ",
"    a----^[[7--------------b    ",
"    c----^[[7--------------d    ",
"    e----^[[fggggggggh-----i    ",
"   j-----^[[[[[[[[[[[k-----l    ",
"   m-----^[[noooooooop------    ",
"   q-----^[[7--------------r    ",
"    s----^[[7--------------t    ",
"    u----^[[7--------------v    ",
"    w----^[[7--------------x    ",
"    yz---^[[7-------------A.    ",
"     B---^[[7-------------C     ",
"     'D--^[[nooooooooE---F%     ",
"      GH-^[[[[[[[[[[[I--<:      ",
"       $J-gggggggggggK-]L       ",
"        MN------------6q        ",
"          xO--------cP          ",
"            QRS>>Txy            ",
"                                ",
"                                ",
"                                ",
"                                "};
