/* XPM */
static char * MiniPlayer_SW_xpm[] = {
"10 10 3 1",
" 	c #000000",
".	c #057700",
"+	c #0BFF00",
"          ",
"          ",
"      .   ",
"  .  ++.  ",
"  +.+++   ",
"  ++++    ",
"  +++.    ",
"  ++++.   ",
"          ",
"          "};
