/* XPM */
static char * MiniPlayer_NW_xpm[] = {
"10 10 3 1",
" 	c #000000",
".	c #0BFF00",
"+	c #057700",
"          ",
"          ",
"  ....+   ",
"  ...+    ",
"  ....    ",
"  .+...   ",
"  +  ..+  ",
"      +   ",
"          ",
"          "};
