/* XPM */
static char * MiniPlayer_E_xpm[] = {
"10 10 2 1",
" 	c #000000",
".	c #0BFF00",
"          ",
"          ",
"     .    ",
"     ..   ",
" .......  ",
" .......  ",
"     ..   ",
"     .    ",
"          ",
"          "};
