/* XPM */
static char * miniwall_xpm[] = {
"10 10 3 1",
" 	c #92714F",
".	c #492400",
"+	c #814100",
"    .     ",
"++++. ++++",
"++++. ++++",
"++++. ++++",
"..........",
"          ",
"+++++++++.",
"+++++++++.",
"+++++++++.",
".........."};
