/* XPM */
static char * NO_32_xpm[] = {
"32 32 191 2",
"  	c #33FF00",
". 	c #34FF00",
"+ 	c #35FF00",
"@ 	c #36FF00",
"# 	c #37FF00",
"$ 	c #2DED7E",
"% 	c #28D4AC",
"& 	c #22BFC5",
"* 	c #22BFC3",
"= 	c #28D3A9",
"- 	c #2FEF75",
"; 	c #38FF00",
"> 	c #30F37A",
", 	c #1594ED",
"' 	c #0000FF",
") 	c #1AA9DB",
"! 	c #33FC4C",
"~ 	c #199FE9",
"{ 	c #1CACDA",
"] 	c #33FC59",
"^ 	c #0021FD",
"/ 	c #00009D",
"( 	c #000099",
"_ 	c #000093",
": 	c #0000F7",
"< 	c #0004FF",
"[ 	c #000CFF",
"} 	c #0009FF",
"| 	c #0000B1",
"1 	c #00008F",
"2 	c #0000DA",
"3 	c #0466FF",
"4 	c #34FF27",
"5 	c #34FF37",
"6 	c #000000",
"7 	c #00004F",
"8 	c #0033FF",
"9 	c #0037FF",
"0 	c #0038FF",
"a 	c #0034FF",
"b 	c #002DFF",
"c 	c #0022FF",
"d 	c #000021",
"e 	c #0000A4",
"f 	c #0031FF",
"g 	c #025DFF",
"h 	c #0025E1",
"i 	c #0047FF",
"j 	c #0048FF",
"k 	c #0045FF",
"l 	c #0042FF",
"m 	c #003CFF",
"n 	c #000002",
"o 	c #00009F",
"p 	c #1289F1",
"q 	c #22C0C7",
"r 	c #0000FE",
"s 	c #0051FF",
"t 	c #0050FF",
"u 	c #004EFF",
"v 	c #004CFF",
"w 	c #0049FF",
"x 	c #00009B",
"y 	c #28D7A8",
"z 	c #0000FC",
"A 	c #0031DE",
"B 	c #0039D2",
"C 	c #0056FF",
"D 	c #0055FF",
"E 	c #0054FF",
"F 	c #0053FF",
"G 	c #000098",
"H 	c #0014FF",
"I 	c #25CBB9",
"J 	c #0010FA",
"K 	c #0047FA",
"L 	c #001E9C",
"M 	c #0057FF",
"N 	c #0058FF",
"O 	c #000096",
"P 	c #2CE58E",
"Q 	c #1082F3",
"R 	c #001DFF",
"S 	c #0025F8",
"T 	c #004AF9",
"U 	c #003DC5",
"V 	c #005AFF",
"W 	c #0059FF",
"X 	c #000095",
"Y 	c #0013FF",
"Z 	c #1BA8D9",
"` 	c #002AFF",
" .	c #002DF7",
"..	c #004CF7",
"+.	c #005BFF",
"@.	c #002FA5",
"#.	c #000094",
"$.	c #003FFF",
"%.	c #0024FF",
"&.	c #0363FE",
"*.	c #0030FF",
"=.	c #0031F6",
"-.	c #004CF6",
";.	c #0038B7",
">.	c #005CFF",
",.	c #000009",
"'.	c #002BFF",
").	c #31FA4F",
"!.	c #0033F5",
"~.	c #004CF5",
"{.	c #0037B5",
"].	c #00001C",
"^.	c #0044FF",
"/.	c #002EFF",
"(.	c #0031F5",
"_.	c #004BF4",
":.	c #0032A7",
"<.	c #000028",
"[.	c #000097",
"}.	c #0043FF",
"|.	c #002CFF",
"1.	c #002DF5",
"2.	c #004AF2",
"3.	c #003CC3",
"4.	c #000032",
"5.	c #0040FF",
"6.	c #0026FF",
"7.	c #0052FF",
"8.	c #0971FA",
"9.	c #001EFF",
"0.	c #0024F5",
"a.	c #0047F2",
"b.	c #00289C",
"c.	c #00003A",
"d.	c #003BFF",
"e.	c #0018FF",
"f.	c #179AE4",
"g.	c #22C1C3",
"h.	c #000FF6",
"i.	c #0043F1",
"j.	c #003ECE",
"k.	c #004FFF",
"l.	c #000040",
"m.	c #29DE9A",
"n.	c #0000F8",
"o.	c #003DF1",
"p.	c #00008E",
"q.	c #000044",
"r.	c #0000A0",
"s.	c #1CAED7",
"t.	c #0000FA",
"u.	c #0031F1",
"v.	c #004AFF",
"w.	c #004DFF",
"x.	c #0038DD",
"y.	c #0000A3",
"z.	c #25CBBA",
"A.	c #0017F2",
"B.	c #0000A6",
"C.	c #0261FF",
"D.	c #30F46F",
"E.	c #0000F4",
"F.	c #0028FF",
"G.	c #0032FF",
"H.	c #003AFF",
"I.	c #0008EC",
"J.	c #0000A9",
"K.	c #34FF2A",
"L.	c #2FF07C",
"M.	c #000FFF",
"N.	c #001AFF",
"O.	c #0015FF",
"P.	c #0000B9",
"Q.	c #0000A5",
"R.	c #0000E4",
"S.	c #0036FF",
"T.	c #32FA5E",
"U.	c #33FF40",
"V.	c #0972FD",
"W.	c #128BF4",
"X.	c #34FF1E",
"Y.	c #29DE9F",
"Z.	c #076EFC",
"`.	c #1084F6",
" +	c #2EE98D",
".+	c #28D9A4",
"++	c #1EB3D0",
"@+	c #1BAAD7",
"#+	c #1BAAD8",
"$+	c #1FB6CF",
"%+	c #29DD9E",
"              . . . . . + + + + + + + + . . . . .               ",
"            . . . + + + + @ @ @ @ @ @ + + + . . . .             ",
"        . . . . + + @ @ # # # # # # # # @ @ + + . . . .         ",
"      . . . + + @ @ # # # $ % & * = - # # # @ @ + + . . .       ",
"    . . . + + @ # ; > , ' ' ' ' ' ' ' ' ) ! ; # @ + + . . .     ",
"    . . + + @ # + ~ ' ' ' ' ' ' ' ' ' ' ' ' { # # @ + + . . .   ",
"  . . + + @ # ] ^ / ( _ : ' < [ } ' ' ' | 1 2 3 4 # @ + + . . . ",
". . . + @ # 5 ' ' 6 6 6 7 8 9 0 9 a b c d 6 e ' f + # @ + . . . ",
". . + @ # # g ' ' 6 6 6 6 h i j i k l m n 6 o ' ' p ; # @ + . . ",
". . + @ # q ' ' r 6 6 6 6 6 s s t u v w 6 6 x ' ' ' y # @ + + . ",
". + @ # + ' ' ' z 6 6 A 6 6 B C D E F t 6 6 G H ' ' 9 ; # @ + . ",
". + @ # I ' ' ' J 6 6 K L 6 6 M N M C D 6 6 O b ' ' ' P # @ + + ",
". + @ ; Q ' ' R S 6 6 T F 6 6 U V W W M 6 6 X 0 Y ' ' Z ; @ @ + ",
". + @ ; ' ' ' `  .6 6 ..+.@.6 6 N +.V W 6 6 #.$.%.' ' &.; # @ + ",
"+ + # + ' ' ' *.=.6 6 -.+.N 6 6 ;.>.+.V ,.6 X l '.' ' ' ; # @ + ",
"+ + # ).' ' ' f !.6 6 ~.+.>.{.6 6 N >.+.].6 X ^./.' ' ' ; # @ + ",
"+ + # . ' ' ' *.(.6 6 _.V +.W 6 6 :.>.+.<.6 [.}.|.' ' ' ; # @ + ",
". + @ ; ' ' ' ` 1.6 6 2.W V +.3.6 6 C +.4.6 ( 5.6.' ' 7.; # @ + ",
". + @ ; 8.' ' 9.0.6 6 a.N W V W 6 6 b.V c.6 x d.e.' ' f.; # @ + ",
". + @ # g.' ' ' h.6 6 i.D M N W j.6 6 k.l.6 / f ' ' ' m.# @ + + ",
". + @ # . ' ' ' n.6 6 o.s F D C M 6 6 p.q.6 r.R ' ' ' # # @ + . ",
". . + @ ; s.' ' t.6 6 u.v.w.k.s 7.x.6 6 6 6 y.' ' ' z.# @ + + . ",
". . + @ # + %.' z 6 6 A.$.^.i w v.w c.6 6 6 B.' ' C.# # @ + . . ",
". . . + @ # D.' ' 6 6 E.F.G.9 H.d.H.I.6 6 6 J.' ' K.# @ + + . . ",
"  . . + + @ # L.' B.r.' ' ' M.e.N.O.' P.Q.J.R.S.T.# @ + + . . . ",
"    . . + @ @ # U.V.' ' ' ' ' ' ' ' ' ' ' ' W.X.# @ + + . . .   ",
"    . . . + @ @ # ; Y.Z.' ' ' ' ' ' ' ' `. +; # @ + + . . .     ",
"      . . . + + @ # # ; . .+++@+#+$+%+. ; # # @ + + . . .       ",
"        . . . + + @ @ # # # ; ; ; # # # # @ @ + + . . .         ",
"          . . . . + + @ @ @ @ @ @ @ @ @ @ + + . . . .           ",
"            . . . . + + + + + + + + + + + + . . . .             ",
"              . . . . . . + + + + + + . . . . . .               "};
