/* XPM */
static char * SO_32_xpm[] = {
"32 32 189 2",
"  	c #0056FF",
". 	c #0055FF",
"+ 	c #0054FF",
"@ 	c #0053FF",
"# 	c #0052FF",
"$ 	c #0050FF",
"% 	c #004EFF",
"& 	c #004CFF",
"* 	c #0049FF",
"= 	c #0046FF",
"- 	c #0043FF",
"; 	c #0041FF",
"> 	c #003EFF",
", 	c #003DFF",
"' 	c #003CFF",
") 	c #003FFF",
"! 	c #0051FF",
"~ 	c #004FFF",
"{ 	c #0044FF",
"] 	c #0040FF",
"^ 	c #003BFF",
"/ 	c #0036FF",
"( 	c #0031FF",
"_ 	c #002CFF",
": 	c #0029FF",
"< 	c #0027FF",
"[ 	c #0045FF",
"} 	c #004BFF",
"| 	c #0038FF",
"1 	c #0030FF",
"2 	c #0026FF",
"3 	c #001AFF",
"4 	c #0008FF",
"5 	c #0000FF",
"6 	c #0005FF",
"7 	c #0018FF",
"8 	c #0025FF",
"9 	c #002FFF",
"0 	c #004AFF",
"a 	c #0021FF",
"b 	c #0006FF",
"c 	c #0024FF",
"d 	c #1697EA",
"e 	c #20BCCF",
"f 	c #27D0B7",
"g 	c #1493ED",
"h 	c #001BFF",
"i 	c #001FFF",
"j 	c #0039FF",
"k 	c #002AFF",
"l 	c #000DFF",
"m 	c #128CF0",
"n 	c #2EEF82",
"o 	c #3AFF00",
"p 	c #3BFF00",
"q 	c #2BE19C",
"r 	c #0870FC",
"s 	c #0028FF",
"t 	c #2DE88F",
"u 	c #33FF00",
"v 	c #32FA00",
"w 	c #32F900",
"x 	c #33FC00",
"y 	c #39FF00",
"z 	c #2ADD9F",
"A 	c #0003FF",
"B 	c #076EFC",
"C 	c #37FF00",
"D 	c #36FF00",
"E 	c #1EA100",
"F 	c #000000",
"G 	c #1EA900",
"H 	c #34FF00",
"I 	c #32FF35",
"J 	c #0048FF",
"K 	c #002EFF",
"L 	c #015AFF",
"M 	c #38FF00",
"N 	c #33FE00",
"O 	c #011800",
"P 	c #010700",
"Q 	c #2BD800",
"R 	c #0019FF",
"S 	c #34FF1A",
"T 	c #2BDA00",
"U 	c #29D700",
"V 	c #0C5E00",
"W 	c #29D300",
"X 	c #2EEE73",
"Y 	c #000CFF",
"Z 	c #25CAB8",
"` 	c #2FEF00",
" .	c #29D800",
"..	c #1DADD2",
"+.	c #0020FF",
"@.	c #0042FF",
"#.	c #0034FF",
"$.	c #27CB00",
"%.	c #002DFF",
"&.	c #21BEC3",
"*.	c #27CA00",
"=.	c #31F800",
"-.	c #1799E2",
";.	c #0022FF",
">.	c #0037FF",
",.	c #2FF168",
"'.	c #30F200",
").	c #095500",
"!.	c #35FF00",
"~.	c #2ADB9A",
"{.	c #0014FF",
"].	c #0032FF",
"^.	c #0023FF",
"/.	c #084600",
"(.	c #0F6C00",
"_.	c #23BA00",
":.	c #2DE600",
"<.	c #33FD33",
"[.	c #0001FF",
"}.	c #003AFF",
"|.	c #001DFF",
"1.	c #0B5700",
"2.	c #032F00",
"3.	c #26CA00",
"4.	c #076DF9",
"5.	c #2DE900",
"6.	c #189400",
"7.	c #001500",
"8.	c #001CFF",
"9.	c #2EE700",
"0.	c #1FA900",
"a.	c #0B5E00",
"b.	c #002BFF",
"c.	c #32F800",
"d.	c #32F84D",
"e.	c #2BE100",
"f.	c #26CB00",
"g.	c #2DE58A",
"h.	c #0016FF",
"i.	c #23C6B9",
"j.	c #30F400",
"k.	c #1AA6DA",
"l.	c #0011FF",
"m.	c #2ADD00",
"n.	c #2CDE00",
"o.	c #29D8A3",
"p.	c #27CC00",
"q.	c #168500",
"r.	c #31F500",
"s.	c #22C0C3",
"t.	c #000FFF",
"u.	c #29D000",
"v.	c #1EA800",
"w.	c #2AD500",
"x.	c #1B9700",
"y.	c #25C800",
"z.	c #34FF27",
"A.	c #0010FF",
"B.	c #0E80F2",
"C.	c #31F400",
"D.	c #042100",
"E.	c #29D200",
"F.	c #0058FF",
"G.	c #128AEE",
"H.	c #2BDB00",
"I.	c #1FAA00",
"J.	c #189000",
"K.	c #178300",
"L.	c #189100",
"M.	c #1FAB00",
"N.	c #2BE000",
"O.	c #0873F8",
"P.	c #0364FF",
"Q.	c #32FD51",
"R.	c #2FF372",
"S.	c #004DFF",
"T.	c #1CACD9",
"U.	c #33FF4A",
"V.	c #30F769",
"W.	c #169AE7",
"X.	c #0013FF",
"Y.	c #005CFF",
"Z.	c #1EB5D4",
"`.	c #29DAA8",
" +	c #2AE09E",
".+	c #29D7AB",
"++	c #1CADD9",
"@+	c #0012FF",
"#+	c #0047FF",
"  . . + @ # $ % & * = - ; > , ' ' , ) ; - = * & % $ # @ + . . . ",
". . + @ ! ~ & * { ] ^ / ( _ : < < : _ ( / ^ ] [ * & ~ # @ + . . ",
". + @ ! ~ } = ] | 1 2 3 4 5 5 5 5 5 5 6 7 8 9 | ] = } ~ ! @ + . ",
"+ @ ! % 0 { ^ 1 a b 5 5 c d e f f e g h 5 5 5 i 1 ^ { 0 % ! # + ",
"@ # ~ 0 - j k l 5 5 m n o p p p p p p o q r 5 5 6 s | - * % ! # ",
"# ~ } { j 2 5 5 ' t p o o o u v w x y o o o z A 5 5 c | - * % $ ",
"$ & = ^ s 5 5 B C o o D E F F F F F F F G H o I + 5 5 8 j { 0 % ",
"% J ) K 5 5 L M o o N F F F F O P F F F F Q y y D ^ 5 5 k ^ [ 0 ",
"& { / R 5 5 S o y y F F F T M M M M D U V W M M y X 5 5 Y 1 > = ",
"J > k 5 5 Z o y y ` F F  .M M C C C C C C C C C M y ..5 5 +./ @.",
"[ | 3 5 #.y y M M $.F F D M M C C C D D D D D C C M D 5 5 5 %.' ",
"@.( 5 5 &.y M M M *.F F =.M C C C D D D D D D D C M y -.5 5 ;.>.",
") k 5 5 ,.y M C C '.F F ).!.M C C C D D D D D D D C M ~.5 5 {.].",
"' ^.5 5 M M C C C C /.F F F (._.:.D C C D D D D D C M <.5 5 [.%.",
"}.|.5 < y M C D D D H 1.F F F F F F 2.3.C D D D D C M y 5 5 5 k ",
"j 3 5 4.y M C D D D D C 5.6.F F F F F F 7.H D D D C M y 5 5 5 : ",
"}.8.5 * y M C D D D D D D C C D 9.0.F F F a.C C C C M y 5 5 5 b.",
"^ +.5 5 y M C D D !.!.D D D D C C C !.F F F c.C C M M H 5 5 6 K ",
"> < 5 5 d.M C D D !.!.D D D D D C C M e.F F f.C C M y g.5 5 h.].",
"; K 5 5 i.y M C D D D D D D D D C C M j.F F *.M M M y k.5 5 ^.>.",
"{ / l.5 ] M M C C D D D D D D C C C M m.F F n.M M y C 5 5 b K , ",
"J , 2 5 5 o.y M M p.q.r.C C C C C M H F F F D y y o s.5 5 ;.>.@.",
"} - #.t.5 a D y M u.F F F v.p.w.p.x.F F F y.y y o z.5 5 A.( > = ",
"% J , k 5 5 B.y y C.D.F F F F F F F F F E.y y o M F.5 5 k ^ [ 0 ",
"$ & [ j ^.5 5 G.y o y !.H.I.J.K.L.M.N.M y o o C O.5 5 8 | - * % ",
"# ~ 0 @./ +.5 5 P.Q.o o o y y y y y o o o o R.! 5 5 ;./ @.* S.$ ",
"@ ! % * ; / ^.5 5 5 T.U.o o o o o o o o V.W.5 5 5 c / ; * S.$ # ",
"+ @ ! S.* @.| k X.5 5 5 Y.Z.`. + +.+++$ 5 5 5 @+k | @.* S.$ # @ ",
". + @ ! S.* - ^ ].8 l.5 5 5 5 5 5 5 5 5 5 t.c ( ' - * S.$ # + + ",
". . + # $ % 0 [ ) | 1 < 8.t.5 5 5 5 t.8.< 1 | ) [ 0 % $ # + + . ",
". . . + # $ % } #+- > j #.9 _ k k _ 9 #.j > - #+} % $ # + + . . ",
"  . . + @ # ! % & * = - ] , ^ }.}.^ , ] - = * & % ! # @ + . .   "};
