/* XPM */
static char * WE_32_xpm[] = {
"32 32 125 2",
"  	c #FF0000",
". 	c #FF5500",
"+ 	c #FF9600",
"@ 	c #FFA400",
"# 	c #FF9100",
"$ 	c #FF4400",
"% 	c #FF3900",
"& 	c #FFCA00",
"* 	c #FFFF00",
"= 	c #FFFD00",
"- 	c #FFC000",
"; 	c #FFC600",
"> 	c #FFB600",
", 	c #FFF300",
"' 	c #FFFE00",
") 	c #FFE600",
"! 	c #FFFA00",
"~ 	c #FFFC00",
"{ 	c #FFED00",
"] 	c #FFEB00",
"^ 	c #FFD800",
"/ 	c #FFAC00",
"( 	c #F9FF00",
"_ 	c #E3EB00",
": 	c #E9EA00",
"< 	c #F6EB00",
"[ 	c #E8DE00",
"} 	c #FFF800",
"| 	c #FCF700",
"1 	c #E4E700",
"2 	c #E5EC00",
"3 	c #FF8700",
"4 	c #E6EF00",
"5 	c #000000",
"6 	c #FFF900",
"7 	c #384200",
"8 	c #D6CB00",
"9 	c #A5A700",
"0 	c #005200",
"a 	c #FFF500",
"b 	c #FF9C00",
"c 	c #CEDF12",
"d 	c #E9EF0C",
"e 	c #D4CF00",
"f 	c #979200",
"g 	c #244800",
"h 	c #9EAB00",
"i 	c #FF7100",
"j 	c #FFDF00",
"k 	c #EDF50A",
"l 	c #FFFF04",
"m 	c #5C7800",
"n 	c #919300",
"o 	c #E5D700",
"p 	c #DFDE00",
"q 	c #FFC400",
"r 	c #BEC100",
"s 	c #AEA500",
"t 	c #BFB400",
"u 	c #E1D700",
"v 	c #F7F100",
"w 	c #FFF600",
"x 	c #3B3B00",
"y 	c #F7EA00",
"z 	c #958D00",
"A 	c #D7CB00",
"B 	c #A8A200",
"C 	c #4B6000",
"D 	c #D3C900",
"E 	c #DBD000",
"F 	c #908900",
"G 	c #182C00",
"H 	c #B2B200",
"I 	c #818600",
"J 	c #888400",
"K 	c #E2D700",
"L 	c #7F7900",
"M 	c #EEE600",
"N 	c #CFCA00",
"O 	c #A69D00",
"P 	c #CDC200",
"Q 	c #E0D400",
"R 	c #FFEC00",
"S 	c #FFE200",
"T 	c #FFF700",
"U 	c #FEF100",
"V 	c #A69C00",
"W 	c #CBC100",
"X 	c #A19A00",
"Y 	c #6E7300",
"Z 	c #FFC700",
"` 	c #FFA600",
" .	c #AFA900",
"..	c #E1D500",
"+.	c #797700",
"@.	c #C2BF00",
"#.	c #FF7E00",
"$.	c #969A00",
"%.	c #8D8900",
"&.	c #F8F100",
"*.	c #FFFB00",
"=.	c #FFB900",
"-.	c #D6D500",
";.	c #D3CC00",
">.	c #263D00",
",.	c #FF9A00",
"'.	c #A5A400",
").	c #758700",
"!.	c #CCD100",
"~.	c #BEC300",
"{.	c #C8C800",
"].	c #F4EE00",
"^.	c #EDEE00",
"/.	c #FF5600",
"(.	c #FF0800",
"_.	c #FFE000",
":.	c #FFD100",
"<.	c #FF7A00",
"[.	c #FFE300",
"}.	c #FFDA00",
"|.	c #FF5F00",
"1.	c #FF8A00",
"2.	c #FFB300",
"3.	c #FFAF00",
"4.	c #FF8200",
"                                                                ",
"                                                                ",
"                                                                ",
"                          . + @ @ # $                           ",
"                    % & * * * * * * * = -                       ",
"                  ; * * * * * * * * * * * * >                   ",
"                , * * * * * * ' ' * * * * * * )                 ",
"              ! * * * * ' = = = ~ = = ' * * * * {               ",
"            ] * * * * ' = ~ ~ ~ ~ ~ ~ = ' * * * * ^             ",
"          / ( _ : * * ' = = < [ [ } = = ' * | 1 2 * 3           ",
"          * 4 5 5 6 * * ' * 7 5 5 8 ' ' * * 9 5 0 * a           ",
"        b c d 5 5 e * * * ' 5 5 5 f * * * * g 5 h * * i         ",
"        j k l m 5 n * * * o 5 5 5 5 * * * ' 5 5 p * * q         ",
"        * * * r 5 5 * * * s 5 t 5 5 a * * u 5 5 * * * ]         ",
"        * * * v 5 5 w * * x 5 y z 5 A * * B 5 C * * * =         ",
"        * * * * 5 5 D * ' 5 5 * E 5 F * * G 5 H * * * *         ",
"        * * * * I 5 J * K 5 L * 6 5 5 * = 5 5 M * * * *         ",
"        * * * * N 5 5 * O 5 P * * 5 5 , Q 5 5 * * * * R         ",
"        S * * * T 5 5 U 5 5 , * * V 5 W X 5 Y * * * * Z         ",
"        ` * * * * 5 5  .5 5 * * * ..5 +.5 5 @.* * * * #.        ",
"          * * * * $.5 5 5 %.* * * ~ 5 5 5 5 &.* * * *.          ",
"          =.* * * -.5 5 5 ;.* * * * >.5 5 5 * * * * ,.          ",
"            w * * * 5 5 5 a * * * * '.5 5 ).* * * )             ",
"            % * * * !.~.{.* * * * * ].r ~.^.* * *.              ",
"              /.* * * * * * * * * * * * * * * w (.              ",
"                  _.* * * * * * * * * * * * :.                  ",
"                    <.[.* * * * * * * * }.|.                    ",
"                          1.2.; ; 3.4.                          ",
"                                                                ",
"                                                                ",
"                                                                ",
"                                                                "};
