/* XPM */
static char * fatasma_xpm[] = {
"64 64 4 1",
" 	c #F54892",
".	c #0DFF00",
"+	c #FFFFFF",
"@	c #0055D4",
"                                                                ",
"                                                                ",
"                                                                ",
"                                                                ",
"                         ................                       ",
"                         ................                       ",
"                         ................                       ",
"                         ................                       ",
"                 ..............................                 ",
"                 ..............................                 ",
"                 ..............................                 ",
"                 ..............................                 ",
"             ......................................             ",
"             ......................................             ",
"             ......................................             ",
"             ......................................             ",
"         ............++++++++..............++++++++....         ",
"         ............++++++++..............++++++++....         ",
"         ............++++++++..............++++++++....         ",
"         ............++++++++..............++++++++....         ",
"         ........++++++++++++++++......++++++++++++++++         ",
"         ........++++++++++++++++......++++++++++++++++         ",
"         ........++++++++++++++++......++++++++++++++++         ",
"         ........++++++++++++++++......++++++++++++++++         ",
"         ........++++++++@@@@@@@@......++++++++@@@@@@@@         ",
"         ........++++++++@@@@@@@@......++++++++@@@@@@@@         ",
"         ........++++++++@@@@@@@@......++++++++@@@@@@@@         ",
"         ........++++++++@@@@@@@@......++++++++@@@@@@@@         ",
"     ............++++++++@@@@@@@@......++++++++@@@@@@@@....     ",
"     ............++++++++@@@@@@@@......++++++++@@@@@@@@....     ",
"     ............++++++++@@@@@@@@......++++++++@@@@@@@@....     ",
"     ............++++++++@@@@@@@@......++++++++@@@@@@@@....     ",
"     ................++++++++..............++++++++........     ",
"     ................++++++++..............++++++++........     ",
"     ................++++++++..............++++++++........     ",
"     ................++++++++..............++++++++........     ",
"     ......................................................     ",
"     ......................................................     ",
"     ......................................................     ",
"     ......................................................     ",
"     ......................................................     ",
"     ......................................................     ",
"     ......................................................     ",
"     ......................................................     ",
"     ......................................................     ",
"     ......................................................     ",
"     ......................................................     ",
"     ......................................................     ",
"     ......................................................     ",
"     ......................................................     ",
"     ........    ............        ..........    ........     ",
"     ........    ............        ..........    ........     ",
"     ........    ............        ..........    ........     ",
"     ........    ............        ..........    ........     ",
"     ....            ........        ......            ....     ",
"     ....            ........        ......            ....     ",
"     ....            ........        ......            ....     ",
"     ....            ........        ......            ....     ",
"                                                                ",
"                                                                ",
"                                                                ",
"                                                                ",
"                                                                ",
"                                                                "};
