/* XPM */
static char * cherry_00_xpm[] = {
"64 64 348 2",
"  	c #000000",
". 	c #023300",
"+ 	c #054901",
"@ 	c #0C7501",
"# 	c #108702",
"$ 	c #096601",
"% 	c #0E7A01",
"& 	c #0D7601",
"* 	c #0B7001",
"= 	c #0E7701",
"- 	c #0A6300",
"; 	c #0F8001",
"> 	c #0D7701",
", 	c #022D00",
"' 	c #0A6B01",
") 	c #0F8502",
"! 	c #0B6700",
"~ 	c #0D7401",
"{ 	c #0B7101",
"] 	c #0A6200",
"^ 	c #0D7B02",
"/ 	c #010E00",
"( 	c #011300",
"_ 	c #011700",
": 	c #075C01",
"< 	c #0C7301",
"[ 	c #0E7F02",
"} 	c #0B6C01",
"| 	c #022601",
"1 	c #043702",
"2 	c #064202",
"3 	c #074602",
"4 	c #074803",
"5 	c #074703",
"6 	c #074502",
"7 	c #053E02",
"8 	c #053B02",
"9 	c #033001",
"0 	c #000700",
"a 	c #0B6A00",
"b 	c #108302",
"c 	c #128A03",
"d 	c #148D06",
"e 	c #158D07",
"f 	c #179208",
"g 	c #179008",
"h 	c #158F08",
"i 	c #158C07",
"j 	c #148A06",
"k 	c #148906",
"l 	c #138605",
"m 	c #138505",
"n 	c #107A03",
"o 	c #0E7602",
"p 	c #0B6902",
"q 	c #075401",
"r 	c #022801",
"s 	c #022001",
"t 	c #0A6701",
"u 	c #107E03",
"v 	c #169606",
"w 	c #1AA109",
"x 	c #1AA40A",
"y 	c #1AA20A",
"z 	c #19A10A",
"A 	c #19A109",
"B 	c #19A009",
"C 	c #199F09",
"D 	c #189D08",
"E 	c #179A07",
"F 	c #169806",
"G 	c #159205",
"H 	c #148F05",
"I 	c #138D05",
"J 	c #128704",
"K 	c #0F7804",
"L 	c #064402",
"M 	c #032A01",
"N 	c #023000",
"O 	c #0D7100",
"P 	c #118502",
"Q 	c #149004",
"R 	c #159405",
"S 	c #149305",
"T 	c #149405",
"U 	c #159406",
"V 	c #159606",
"W 	c #169706",
"X 	c #169907",
"Y 	c #179B08",
"Z 	c #179C08",
"` 	c #1AA209",
" .	c #19A008",
"..	c #199F08",
"+.	c #159206",
"@.	c #128404",
"#.	c #0B6103",
"$.	c #011A00",
"%.	c #011400",
"&.	c #0B6B00",
"*.	c #0D7501",
"=.	c #108402",
"-.	c #108602",
";.	c #0E7E02",
">.	c #108503",
",.	c #108703",
"'.	c #128903",
").	c #118603",
"!.	c #118903",
"~.	c #128C04",
"{.	c #138D04",
"].	c #139104",
"^.	c #149404",
"/.	c #169906",
"(.	c #179B07",
"_.	c #189C07",
":.	c #189E08",
"<.	c #199D08",
"[.	c #158E06",
"}.	c #107905",
"|.	c #064102",
"1.	c #011E01",
"2.	c #085900",
"3.	c #0B6900",
"4.	c #0E7801",
"5.	c #0F8201",
"6.	c #118B02",
"7.	c #118D02",
"8.	c #118C02",
"9.	c #108B02",
"0.	c #128F02",
"a.	c #129003",
"b.	c #139103",
"c.	c #139203",
"d.	c #149304",
"e.	c #169505",
"f.	c #189D07",
"g.	c #179607",
"h.	c #148706",
"i.	c #0B6003",
"j.	c #000B00",
"k.	c #075601",
"l.	c #0C6D00",
"m.	c #0E7B01",
"n.	c #0F8101",
"o.	c #118A02",
"p.	c #108A02",
"q.	c #118E02",
"r.	c #128E03",
"s.	c #128F03",
"t.	c #139003",
"u.	c #159506",
"v.	c #179907",
"w.	c #169306",
"x.	c #0F7803",
"y.	c #033801",
"z.	c #001100",
"A.	c #0A6A00",
"B.	c #0B6C00",
"C.	c #0C7000",
"D.	c #0F8302",
"E.	c #108902",
"F.	c #128C02",
"G.	c #189E07",
"H.	c #033601",
"I.	c #022900",
"J.	c #0C7201",
"K.	c #128D03",
"L.	c #169705",
"M.	c #159306",
"N.	c #0D7103",
"O.	c #000600",
"P.	c #0C6E01",
"Q.	c #0D7502",
"R.	c #0F7F02",
"S.	c #139004",
"T.	c #179A06",
"U.	c #148C05",
"V.	c #0C6E02",
"W.	c #033300",
"X.	c #0F7B02",
"Y.	c #0E7901",
"Z.	c #108802",
"`.	c #118B03",
" +	c #1AA009",
".+	c #138C04",
"++	c #085A01",
"@+	c #0B6D00",
"#+	c #0E7802",
"$+	c #0F7C02",
"%+	c #0B6800",
"&+	c #0F8102",
"*+	c #159505",
"=+	c #1AA30A",
"-+	c #107D04",
";+	c #0B6E00",
">+	c #0C7101",
",+	c #0E7B02",
"'+	c #0F7D02",
")+	c #0D7201",
"!+	c #0C6900",
"~+	c #0D7301",
"{+	c #108502",
"]+	c #118902",
"^+	c #0F7F01",
"/+	c #118802",
"(+	c #169507",
"_+	c #0A5F03",
":+	c #0C6E00",
"<+	c #0E7702",
"[+	c #0A6600",
"}+	c #0E7C01",
"|+	c #0E7D01",
"1+	c #0D7801",
"2+	c #0F8301",
"3+	c #179B06",
"4+	c #148606",
"5+	c #0A6400",
"6+	c #0E7E01",
"7+	c #0C7001",
"8+	c #0C6F01",
"9+	c #0F8402",
"0+	c #149204",
"a+	c #1CA60B",
"b+	c #189A09",
"c+	c #0A5803",
"d+	c #0E7C02",
"e+	c #0D6E00",
"f+	c #169805",
"g+	c #1BA40A",
"h+	c #1BA30A",
"i+	c #117A05",
"j+	c #0E7502",
"k+	c #0E7A02",
"l+	c #108202",
"m+	c #0B6600",
"n+	c #1DA90C",
"o+	c #179508",
"p+	c #0C6C00",
"q+	c #0D7202",
"r+	c #0F8002",
"s+	c #159605",
"t+	c #1AA00A",
"u+	c #0C7200",
"v+	c #0D7102",
"w+	c #0D7702",
"x+	c #0B6500",
"y+	c #139204",
"z+	c #1CA80B",
"A+	c #1CA50B",
"B+	c #064502",
"C+	c #0D7101",
"D+	c #128E02",
"E+	c #1AA309",
"F+	c #1DA80C",
"G+	c #0F7204",
"H+	c #0E7402",
"I+	c #0F8202",
"J+	c #158A07",
"K+	c #022301",
"L+	c #0C7401",
"M+	c #0C6D01",
"N+	c #0C7002",
"O+	c #0D7302",
"P+	c #1BA60A",
"Q+	c #1A9E0A",
"R+	c #0C7701",
"S+	c #0C6C01",
"T+	c #0E7601",
"U+	c #0C5B04",
"V+	c #0D7802",
"W+	c #0D7402",
"X+	c #0C6F00",
"Y+	c #1FAD0D",
"Z+	c #117B05",
"`+	c #0B6D01",
" @	c #0C7102",
".@	c #169A06",
"+@	c #1FB20E",
"@@	c #138705",
"#@	c #0E7D02",
"$@	c #0C6B00",
"%@	c #0F8401",
"&@	c #159705",
"*@	c #20B40F",
"=@	c #148E05",
"-@	c #065301",
";@	c #0C6F02",
">@	c #0E7202",
",@	c #20B50F",
"'@	c #169206",
")@	c #022F00",
"!@	c #0D7B01",
"~@	c #0D7002",
"{@	c #0E7902",
"]@	c #20B30F",
"^@	c #189B07",
"/@	c #065401",
"(@	c #0C6800",
"_@	c #1EAE0D",
":@	c #0D6D02",
"<@	c #1BA50A",
"[@	c #0D7A02",
"}@	c #0C6D02",
"|@	c #0F7E02",
"1@	c #0F7E03",
"2@	c #138905",
"3@	c #0E7302",
"4@	c #0F7C01",
"5@	c #108501",
"6@	c #1DAC0C",
"7@	c #075201",
"8@	c #075801",
"9@	c #1DAC0D",
"0@	c #0F7404",
"a@	c #0D7001",
"b@	c #0D7901",
"c@	c #1DAD0D",
"d@	c #158B07",
"e@	c #075A01",
"f@	c #0F7E01",
"g@	c #108601",
"h@	c #1CA90C",
"i@	c #199D09",
"j@	c #094F03",
"k@	c #0B6F00",
"l@	c #0F7D01",
"m@	c #148D04",
"n@	c #169407",
"o@	c #033F00",
"p@	c #0B6F01",
"q@	c #0C7300",
"r@	c #0D7600",
"s@	c #0F7A02",
"t@	c #054800",
"u@	c #096100",
"v@	c #096000",
"w@	c #095F00",
"x@	c #0A6700",
"y@	c #012000",
"z@	c #033900",
"A@	c #044000",
"B@	c #085C01",
"C@	c #0D7200",
"D@	c #023100",
"E@	c #033500",
"F@	c #054600",
"G@	c #0D7300",
"                                                                                                                                ",
"                                                                                                                                ",
"                                                                                                                                ",
"                                                                                                                                ",
"                                                                                                                                ",
"                                                                                                                                ",
"                                                                                                                                ",
"                                                                                                                                ",
"                                                                                                                                ",
"                  . + + .                                                                                                       ",
"                  @ # # $                                                                                                       ",
"                  @ % & # $                                                                                                     ",
"                  * = - ; > ,                                                                                                   ",
"                    ' ) ! ~ $                                                                                                   ",
"                      + { ] ^ $ ,         / / ( ( ( _ _ /                                                                       ",
"                        : < ] [ } | 1 2 3 4 4 4 5 6 2 7 8 9 ( / 0 0 0 0 0                                                       ",
"                          : a b c d e f f f g h e i j k l m n o p q r | | s / / 0                                               ",
"                            t u v w x y z A B B B B B C C C D E F G H I J K L M | _                                             ",
"                            N O P Q R S T R U V W X E E Y Z C A B ` B  ...D +.@.#.8 $.0                                         ",
"                            %.&.*.=.-.;.=.>.,.'.).!.~.{.].^./.(._._.:... . . .<.[.}.|.1.0                                       ",
"                              2.3.4.5.=.-.6.7.7.8.9.7.8.7.0.a.b.c.d.d.R e.F f...:.g.h.i.s 0                                     ",
"                              j.k.l.m.n.o.7.7.7.7.7.8.p.p.8.7.7.7.7.q.r.s.t.T u.v.f.:.w.x.y.0                                   ",
"                                z.A.B.C.m.D.E.8.8.7.7.8.-.) E.7.7.7.7.7.8.F.r.b.^.F G. .W x.H.0                                 ",
"                                  I.&.&.a J.~ =.# 6.7.7.7.7.7.7.7.7.7.7.8.8.8.8.K.].L. .A M.N._ 0                               ",
"                                  O.&.&.3.P.Q.3.R.# 8.7.7.8.8.7.8.8.7.7.7.8.6.o.o.6.S.T.`  .U.V.W.                              ",
"                                    &.&.&.l.~ X.3.Y.Z.6.8.8.6.7.8.8.7.7.7.7.8.6.E.Z.`.T D  +...+++0                             ",
"                                    @+&.&.&.~ #+$+%+*.&+8.6.E.6.7.7.8.7.7.7.7.8.p.# Z.K.*+ .=+Y -+1.                            ",
"                                    ;+&.&.&.>+#+,+'+)+!+~+)+E.{+7.7.7.7.8.o.]+E.^+{+-./+S./.w ` (+_+0                           ",
"                                    ;+&.&.&.:+> '+$+<+- [+- ] %+Y.E.}+n.|+1+& & Y.% 2+-.]+S.3+=+=+4+$.                          ",
"                                    ;+&.&.&.l.< ,+'+<+P.} %+! ] > 5+6+7+:+P.8+7+~ Y.9+# # o.0+:.a+b+c+_                         ",
"                                    ;+&.&.&.B.)+<+d+;.] ] ~ e+% {+E.2+9+# Z.2+7.8.7.7.7.Z.Z.K.f+g+h+i+r                         ",
"                                    ;+&.&.&.B.7+j+k+d+>+} ] l+% m+~+o.E.8.7.7.7.7.7.7.7.6.E.o.].f.n+o+|                         ",
"                                    l.&.&.&.p+P.q+<+,+>+>+m+$+b r+)+-.8.o.7.7.7.7.7.7.7.8.6.o.r.s+n+t+M                         ",
"                                    u+&.&.&.B.P.v+o k+w+%+P.x+l+=.n.> {+8.8.7.7.7.7.7.7.6.6.6.7.y+z+A+B+                        ",
"                                    ~+&.&.&.B.P.C+o #+d+7+P.- '+=.=.^+Y.# 8.7.7.7.7.7.7.7.-.o.7.D+E+F+G+0                       ",
"                                    < &.&.B.&.P.v+H+#+,+7+7+x+C+=.{+-.I+a 6.7.7.7.7.7.7.7.8.6.7.7.3+z+J+K+                      ",
"                                    L+&.&.@+&.M+N+O+<+#+w+a a &.b =.-.-.{+3.-.7.7.7.7.7.7.7.8.7.7.^.P+Q+2 0                     ",
"                                    R+&.&.B.&.&.N+q+H+<+#+S+M+x+&+b {+# # T+a :+{+% {+7.7.7.7.7.7.a.A F+U+0                     ",
"                                    V+B.&.&.&.&.@+N+q+H+<+a W+] R.&+9+-.Z.Z.X+)+7+4.8+& p+{+7.7.7.q.f.Y+Z+/                     ",
"                                    `+&.&.&.&.&.M+8+ @q+j+M+3.] w+r+&+9+# Z.] % = 4.= ~+~ ~ -.o.6.7..@+@@@/                     ",
"                                    $ ;+&.&.&.&.} P.N+ @q+v+[+] %+#@R.&+9+Z.l.$@> :+8+Y.r+n.n.%@# 8.&@*@=@0                     ",
"                                    -@< &.&.&.&.} M+;@N+q+>@! ] S+k+#@R.&+D.) - ;+o.m+& -.E.o.{+{+o.^.,@'@)@                    ",
"                                    , !@&.&.&.&.B.M+P.;@ @~@M+] #+{@,+#@R.r+&+%+%+Z.1+% E.-.{+I+{+o.].]@^@/@                    ",
"                                      @ @+&.&.&.B.S+M+P.;@ @a ] o <+{@,+#@#@R.8+(@D.-.l.~ Z.o.Z.D.6.s._@P+J.                    ",
"                                      $ u+&.&.&.&.B.S+M+P.N+:@] H+o <+{@k+,+#@Q.] r+&+{+|+C.E.E.# 8.7.<@_@[@                    ",
"                                      , 1+B.&.&.&.B.B.S+M+8+}@] q+O+o <+#+k+,+w+- |@R.&+I+4.9+o.o.6.7.G.]@1@                    ",
"                                        $ L+&.&.B.&.B.B.S+P.S+] v+q+O+j+o <+{@Q.%+d+;.R.r+R.|+p.6.8.7.*+*@2@0                   ",
"                                          #@C.&.&.&.&.B.p+S+M+] 8+N+q+3@H+o <+<+#+{@,+#@R.R.4@5@6.8.7.b.6@Q+7@                  ",
"                                          8@k+:+&.&.&.&.B.B.p+l.P.P.7+>+)+O+W+H+W+& > V+[@'+'+R.Z.8.7.7...9@0@                  ",
"                                            >+k+:+&.&.&.&.&.B.B.@+l.l.X+7+7+7+C+a@7+>+J.*.b@d+4@2+p.8.7.W c@d@K+                ",
"                                              e@r+k+J.@+&.&.&.&.&.B.B.B.@+l.l.:+l.l.M+P.8+J.& m.f@g@6.8.0+h@i@L 1.              ",
"                                                { r+D.r+*.B.B.&.&.&.&.&.&.&.&.&.&.&.B.B.p+P.7+< d+r+g@p.K...i@j@9               ",
"                                                    : 1+) -.) 1+l.&.B.&.&.&.&.&.&.&.&.&.&.&.@+k@@ m.l@&+-.m@n@#.r               ",
"                                                      , o@e@$ `+`+p@7+;+&.B.&.&.&.&.&.&.&.&.&.&.;+q@r@Y.b@4@).s@k.              ",
"                                                                            t@u@v@w@x@x@3.&.&.&.&.B.X+O q@J.~ m.&+r+:           ",
"                                                                                        y@z@A@A@B@P.B.B.@+;+$@C.C@l+D.+         ",
"                                                                                                    D@] &.&.&.&.&.R.Z.+         ",
"                                                                                                        E@F@- @+G@&+> +         ",
"                                                                                                                                ",
"                                                                                                                                ",
"                                                                                                                                ",
"                                                                                                                                ",
"                                                                                                                                ",
"                                                                                                                                "};
