/* XPM */
static char * g_phantom_r_00_xpm[] = {
"64 64 396 2",
"  	c #000000",
". 	c #013E00",
"+ 	c #015600",
"@ 	c #026900",
"# 	c #027600",
"$ 	c #038100",
"% 	c #013D00",
"& 	c #000200",
"* 	c #001500",
"= 	c #038A00",
"- 	c #06B200",
"; 	c #08C900",
"> 	c #09D800",
", 	c #0AE300",
"' 	c #0AE200",
") 	c #0BE800",
"! 	c #0BED00",
"~ 	c #0CF000",
"{ 	c #0BEA00",
"] 	c #0ADF00",
"^ 	c #08C700",
"/ 	c #06AF00",
"( 	c #038500",
"_ 	c #026300",
": 	c #0C0000",
"< 	c #090000",
"[ 	c #020000",
"} 	c #000300",
"| 	c #023500",
"1 	c #044E00",
"2 	c #066100",
"3 	c #0AB100",
"4 	c #0CD200",
"5 	c #0DFF00",
"6 	c #0DFC00",
"7 	c #0DF600",
"8 	c #0DE000",
"9 	c #0DA900",
"0 	c #0B7300",
"a 	c #065800",
"b 	c #031900",
"c 	c #010F00",
"d 	c #011000",
"e 	c #043600",
"f 	c #0D8A00",
"g 	c #0DB600",
"h 	c #0DCB00",
"i 	c #0DE500",
"j 	c #0DF000",
"k 	c #0DDF00",
"l 	c #0DC200",
"m 	c #0DA700",
"n 	c #0C3D00",
"o 	c #093500",
"p 	c #072E00",
"q 	c #033500",
"r 	c #098300",
"s 	c #0CC300",
"t 	c #0DEE00",
"u 	c #0DF800",
"v 	c #0DFE00",
"w 	c #0DFA00",
"x 	c #0DE300",
"y 	c #0DBC00",
"z 	c #0DA500",
"A 	c #0C6F00",
"B 	c #080000",
"C 	c #001600",
"D 	c #058C00",
"E 	c #0A9B00",
"F 	c #0DEF00",
"G 	c #0DCF00",
"H 	c #0D9300",
"I 	c #000600",
"J 	c #0CDA00",
"K 	c #0DFD00",
"L 	c #0DDD00",
"M 	c #06A200",
"N 	c #002A00",
"O 	c #000400",
"P 	c #066800",
"Q 	c #0AD500",
"R 	c #0BE900",
"S 	c #049700",
"T 	c #001C00",
"U 	c #000100",
"V 	c #023200",
"W 	c #0BE600",
"X 	c #049A00",
"Y 	c #010400",
"Z 	c #0BE000",
"` 	c #09D200",
" .	c #013A00",
"..	c #025F00",
"+.	c #09D300",
"@.	c #0DEA00",
"#.	c #0D7D00",
"$.	c #015100",
"%.	c #07B800",
"&.	c #0DD300",
"*.	c #038200",
"=.	c #003000",
"-.	c #07BD00",
";.	c #0BEB00",
">.	c #05A700",
",.	c #037E00",
"'.	c #0BF000",
").	c #08C300",
"!.	c #048A00",
"~.	c #034300",
"{.	c #09B700",
"].	c #2EFF2A",
"^.	c #4EFF4C",
"/.	c #9FFF9F",
"(.	c #CBFFCA",
"_.	c #EBFFEB",
":.	c #F9FFF9",
"<.	c #FFFFFF",
"[.	c #40FF3D",
"}.	c #27FF23",
"|.	c #A3FFA2",
"1.	c #E2FFE2",
"2.	c #F0FFF0",
"3.	c #DAFFDA",
"4.	c #C5FFC5",
"5.	c #83FF82",
"6.	c #16FF0D",
"7.	c #053800",
"8.	c #010600",
"9.	c #088E00",
"0.	c #66FE63",
"a.	c #B2FEB1",
"b.	c #F2FAF0",
"c.	c #ECF7E9",
"d.	c #D5EFCD",
"e.	c #75FC71",
"f.	c #AAFBA7",
"g.	c #C1FFC1",
"h.	c #67FF66",
"i.	c #0DD700",
"j.	c #076A00",
"k.	c #000500",
"l.	c #011C00",
"m.	c #0AB700",
"n.	c #42FF40",
"o.	c #CBFDCA",
"p.	c #FEFFFE",
"q.	c #EAF7E7",
"r.	c #A7F7A2",
"s.	c #BEFDBD",
"t.	c #DDFFDD",
"u.	c #A0F498",
"v.	c #77F970",
"w.	c #0A8E00",
"x.	c #021800",
"y.	c #045E00",
"z.	c #0CDB00",
"A.	c #81FF80",
"B.	c #F6FEF6",
"C.	c #D8F0D1",
"D.	c #E7F5E3",
"E.	c #BEF8BA",
"F.	c #20FF17",
"G.	c #0CC600",
"H.	c #066200",
"I.	c #068A00",
"J.	c #0DF900",
"K.	c #E5FFE5",
"L.	c #5BFF5A",
"M.	c #0DE200",
"N.	c #097800",
"O.	c #08A900",
"P.	c #F2FFF2",
"Q.	c #0DE800",
"R.	c #0B8800",
"S.	c #055800",
"T.	c #0BCC00",
"U.	c #F6FFF6",
"V.	c #99FF98",
"W.	c #0C9F00",
"X.	c #069400",
"Y.	c #ABFFAB",
"Z.	c #0DFB00",
"`.	c #0DDE00",
" +	c #08AF00",
".+	c #EFF1FA",
"++	c #E5E8F7",
"@+	c #0055D4",
"#+	c #95A3E2",
"$+	c #C4CBED",
"%+	c #E9EBF8",
"&+	c #B8C0EA",
"*+	c #A3AEE5",
"=+	c #85DDB0",
"-+	c #0DFE10",
";+	c #0DE100",
">+	c #001100",
",+	c #0ACB00",
"'+	c #BBC2EB",
")+	c #667FDA",
"!+	c #68FF66",
"~+	c #C2C8EC",
"{+	c #07C897",
"]+	c #0DFD21",
"^+	c #001B00",
"/+	c #0CDF00",
"(+	c #06C19D",
"_+	c #002400",
":+	c #0CF300",
"<+	c #06B6A7",
"[+	c #0DFC24",
"}+	c #0DE600",
"|+	c #012900",
"1+	c #04AEAD",
"2+	c #0CF939",
"3+	c #002F00",
"4+	c #4168D7",
"5+	c #049EB8",
"6+	c #0DFB2C",
"7+	c #000900",
"8+	c #E7E9F7",
"9+	c #8193DE",
"0+	c #B3BCE8",
"a+	c #DADEF3",
"b+	c #0388C3",
"c+	c #0DFC23",
"d+	c #EAECF8",
"e+	c #CBD0EF",
"f+	c #8596DF",
"g+	c #9FAAE4",
"h+	c #A2ADE5",
"i+	c #C6CDED",
"j+	c #D0D4F0",
"k+	c #F1F2FA",
"l+	c #CFD4F0",
"m+	c #C2D5E4",
"n+	c #0DFC29",
"o+	c #65FF63",
"p+	c #EFF9ED",
"q+	c #EAF6E6",
"r+	c #F6FBF5",
"s+	c #FAFDF9",
"t+	c #F7FBF5",
"u+	c #CEF3C8",
"v+	c #3EFF3C",
"w+	c #D0F5CB",
"x+	c #F7FEF7",
"y+	c #5EFF5D",
"z+	c #F2FBF1",
"A+	c #8BF985",
"B+	c #AEF9A9",
"C+	c #DAF5D6",
"D+	c #F1FFF0",
"E+	c #E1FFE1",
"F+	c #CEF9CA",
"G+	c #58FF57",
"H+	c #36FF33",
"I+	c #A6FCA3",
"J+	c #D9FFD9",
"K+	c #F4FFF4",
"L+	c #DBFFDB",
"M+	c #D0FFD0",
"N+	c #B0F5AA",
"O+	c #49FC3F",
"P+	c #76F869",
"Q+	c #E7FFE7",
"R+	c #FAFFFA",
"S+	c #AAFFA9",
"T+	c #50FF4E",
"U+	c #14FF0A",
"V+	c #2DFF29",
"W+	c #51FF50",
"X+	c #A8FFA7",
"Y+	c #DEFFDE",
"Z+	c #C6FFC5",
"`+	c #8BFF8A",
" @	c #2CFF28",
".@	c #1BFF14",
"+@	c #24FF20",
"@@	c #47FF44",
"#@	c #3AFF37",
"$@	c #30FF2C",
"%@	c #26FF21",
"&@	c #0EFF01",
"*@	c #11FF05",
"=@	c #25FF21",
"-@	c #33FF30",
";@	c #09D900",
">@	c #0DED00",
",@	c #0DF200",
"'@	c #0DF100",
")@	c #0DEC00",
"!@	c #037C00",
"~@	c #0CD100",
"{@	c #0DF300",
"]@	c #0DEB00",
"^@	c #049C00",
"/@	c #049200",
"(@	c #08CB00",
"_@	c #0DF500",
":@	c #0CB500",
"<@	c #0C7600",
"[@	c #0B8000",
"}@	c #0CF900",
"|@	c #05A600",
"1@	c #049500",
"2@	c #0CDD00",
"3@	c #0DDB00",
"4@	c #0C9200",
"5@	c #054200",
"6@	c #033A00",
"7@	c #0CBD00",
"8@	c #0DE400",
"9@	c #027700",
"0@	c #002900",
"a@	c #014300",
"b@	c #0DE900",
"c@	c #0CD000",
"d@	c #0CB800",
"e@	c #0A6000",
"f@	c #022C00",
"g@	c #022800",
"h@	c #064600",
"i@	c #0CE000",
"j@	c #0BC000",
"k@	c #068100",
"l@	c #0CD900",
"m@	c #026B00",
"n@	c #0CD800",
"o@	c #0BB800",
"p@	c #049600",
"q@	c #013200",
"r@	c #08AC00",
"s@	c #089600",
"t@	c #013100",
"u@	c #09B900",
"v@	c #0DF700",
"w@	c #038700",
"x@	c #06B400",
"y@	c #026500",
"z@	c #08CD00",
"A@	c #013F00",
"B@	c #0BEF00",
"C@	c #014700",
"D@	c #07C000",
"E@	c #049900",
"F@	c #0CF800",
"G@	c #0CF200",
"H@	c #015200",
"I@	c #001F00",
"J@	c #0AE100",
"K@	c #07BE00",
"L@	c #09CF00",
"M@	c #014600",
"N@	c #09D500",
"O@	c #0CBC00",
"P@	c #014B00",
"Q@	c #0BC100",
"R@	c #0CCD00",
"S@	c #038900",
"T@	c #015500",
"U@	c #09D700",
"V@	c #06B900",
"W@	c #06B800",
"X@	c #089D00",
"Y@	c #089800",
"Z@	c #0CB400",
"`@	c #001700",
" #	c #05AC00",
".#	c #0CD600",
"+#	c #06B600",
"@#	c #001D00",
"##	c #07C400",
"$#	c #099300",
"%#	c #002200",
"&#	c #054300",
"*#	c #095900",
"=#	c #0C6900",
"-#	c #037D00",
";#	c #0CBA00",
">#	c #0CBF00",
",#	c #0CB100",
"'#	c #05A100",
")#	c #0DF400",
"!#	c #015A00",
"~#	c #015000",
"{#	c #0C8900",
"]#	c #0A7B00",
"^#	c #055B00",
"/#	c #074E00",
"(#	c #064E00",
"_#	c #0C6800",
":#	c #000C00",
"<#	c #011700",
"[#	c #000F00",
"}#	c #001300",
"                                                                                                                                ",
"                                                                                                                                ",
"                                                          . + @ # $ $ $ $ # @ + %                                               ",
"                                          & * = - ; > , , ' ) ! ~ ~ ~ ~ ~ ~ { ] ^ / ( _ : < [                                   ",
"                                    } | 1 2 3 4 5 5 5 5 5 5 5 5 5 5 5 5 5 5 5 5 5 6 7 8 9 0 a b c &                             ",
"                                  d e f g h i j 5 5 5 5 5 5 5 5 5 5 5 5 5 5 5 5 5 5 5 5 k l m n o p                             ",
"                                q r s t u v 5 5 5 5 5 5 5 5 5 5 5 5 5 5 5 5 5 5 5 5 5 5 5 w x y z A B                           ",
"                            C D E t v 5 5 5 5 5 5 5 5 5 5 5 5 5 5 5 5 5 5 5 5 5 5 5 5 5 5 5 5 5 F G H                           ",
"                          I 1 J w 5 5 5 5 5 5 5 5 5 5 5 5 5 5 5 5 5 5 5 5 5 5 5 5 5 5 5 5 5 5 5 5 K L M N                       ",
"                        O P Q v 5 5 5 5 5 5 5 5 5 5 5 5 5 5 5 5 5 5 5 5 5 5 5 5 5 5 5 5 5 5 5 5 5 5 v R S T                     ",
"                      U V F 5 5 5 5 5 5 5 5 5 5 5 5 5 5 5 5 5 5 5 5 5 5 5 5 5 5 5 5 5 5 5 5 5 5 5 5 5 5 W X }                   ",
"                      Y Z v 5 5 5 5 5 5 5 5 5 5 5 5 5 5 5 5 5 5 5 5 5 5 5 5 5 5 5 5 5 5 5 5 5 6 5 5 5 5 5 `  .                  ",
"                    ..+.5 5 5 5 5 5 5 5 5 5 5 5 5 5 5 5 5 5 5 5 5 5 5 5 5 5 5 5 5 5 5 5 5 5 5 5 5 5 5 5 5 @.#.                  ",
"                  $.%.~ 5 5 5 5 5 5 5 5 5 5 5 5 5 5 5 5 5 5 5 5 5 5 5 5 5 5 5 5 5 5 5 5 5 5 5 5 5 5 5 5 5 K &.*.                ",
"                =.-.;.5 5 5 5 5 5 5 5 5 5 5 5 5 5 5 5 5 5 5 5 5 5 5 5 5 5 5 5 5 5 5 5 5 5 5 5 5 5 5 5 5 5 5 w >.                ",
"                ,.'.5 5 5 5 5 5 5 5 5 5 5 5 5 5 5 5 5 5 5 5 5 5 5 5 5 5 5 5 5 5 5 5 5 5 5 5 5 5 5 5 5 5 5 5 5 ).!.O             ",
"              ~.{.5 5 5 5 5 5 5 5 5 5 ].^./.(._.:.<.<.<.<.[.[.5 5 5 5 5 5 5 5 5 5 5 }.|.1.:.2.3.4.5.6.5 5 5 5 5 g 7.            ",
"            8.9.u 5 5 5 5 5 5 5 5 5 0.a.<.<.<.<.<.<.<.<.<.b.c.d.5 5 5 5 5 5 5 5 5 e.f.:.<.<.<.<.<.g.h.5 5 5 5 5 i.j.k.          ",
"            l.m.5 5 5 5 5 5 5 5 5 n.o.:.<.<.<.<.<.<.<.<.<.<.p.q.5 5 5 5 5 5 5 5 r.s.<.<.<.<.<.<.<.2.t.u.v.5 5 5 w w.x.          ",
"            y.z.5 5 5 5 5 5 5 5 5 A.B.<.<.<.<.<.<.<.<.<.<.<.<.q.5 5 5 5 5 5 5 5 C.<.<.<.<.<.<.<.<.<.<.D.E.F.5 5 K G.H.          ",
"          I I.J.5 5 5 5 5 5 5 5 5 <.<.<.<.<.<.<.<.<.<.<.<.<.<.<.<.5 5 5 5 5 5 <.<.<.<.<.<.<.<.<.<.<.<.<.K.L.5 5 5 M.N.          ",
"          l.O.v 5 5 5 5 5 5 5 5 5 <.<.<.<.<.<.<.<.<.<.<.<.<.<.<.<.5 5 5 5 5 5 <.<.<.<.<.<.<.<.<.<.<.<.<.P.h.5 5 5 Q.R.          ",
"          S.T.5 5 5 5 5 5 5 5 5 5 <.<.<.<.<.<.<.<.<.<.<.<.<.<.<.<.5 5 5 5 5 5 <.<.<.<.<.<.<.<.<.<.<.<.<.U.V.5 5 5 t W.          ",
"          X.7 5 5 5 5 5 5 5 5 5 5 <.<.<.<.<.<.<.<.<.<.<.<.<.<.<.<.5 5 5 5 5 5 <.<.<.<.<.<.<.<.<.<.<.<.<.<.Y.5 5 5 Z.`.          ",
"           +Z.5 5 5 5 5 5 5 5 5 5 <.<.<.<.<.<.<.<..+++@+@+@+@+#+$+5 5 5 5 5 5 <.<.<.<.<.<.<.<.%+&+@+@+@+*+=+-+5 5 5 ;+          ",
"        >+,+v 5 5 5 5 5 5 5 5 5 5 <.<.<.<.<.<.<.<.'+@+@+@+@+@+@+)+!+5 5 5 5 5 <.<.<.<.<.<.<.<.~+@+@+@+@+@+{+]+5 5 5 i           ",
"        ^+/+5 5 5 5 5 5 5 5 5 5 5 <.<.<.<.<.<.<.<.@+@+@+@+@+@+@+@+5 5 5 5 5 5 <.<.<.<.<.<.<.<.)+@+@+@+@+@+(+]+5 5 5 Q.          ",
"        _+:+5 5 5 5 5 5 5 5 5 5 5 <.<.<.<.<.<.<.<.@+@+@+@+@+@+@+@+5 5 5 5 5 5 <.<.<.<.<.<.<.<.@+@+@+@+@+@+<+[+5 5 v }+          ",
"        |+5 5 5 5 5 5 5 5 5 5 5 5 <.<.<.<.<.<.<.<.@+@+@+@+@+@+@+@+5 5 5 5 5 5 <.<.<.<.<.<.<.<.@+@+@+@+@+@+1+2+5 5 5 5           ",
"        3+5 5 5 5 5 5 5 5 5 5 5 5 <.<.<.<.<.<.<.<.)+@+@+@+@+@+@+@+5 5 5 5 5 5 <.<.<.<.<.<.<.<.4+@+@+@+@+@+5+6+5 5 5 5           ",
"        7+5 5 5 5 5 5 5 5 5 5 5 5 <.<.<.<.<.<.<.<.8+4+@+@+@+@+9+0+5 5 5 5 5 5 <.<.<.<.<.<.<.<.a+@+@+@+@+@+b+c+5 5 5 5           ",
"          5 5 5 5 5 5 5 5 5 5 5 5 <.<.<.<.<.<.<.<.d+e+f+g+g+h+i+j+5 5 5 5 5 5 <.<.<.<.<.<.<.<.k+l+f+f+f+$+m+n+5 5 5 5           ",
"          5 5 5 5 5 5 5 5 5 5 5 5 o+p+<.<.<.<.<.<.<.<.<.<.<.<.q+o+5 5 5 5 5 5 o+r+<.<.<.<.<.<.<.<.<.<.s+t+u+5 5 5 5 5           ",
"          5 5 5 5 5 5 5 5 5 5 5 5 v+w+x+<.<.<.<.<.<.<.<.<.<.<.q+o+5 5 5 5 5 5 y+z+<.<.<.<.<.<.<.<.<.<.<.<.C.5 5 5 5 5           ",
"          5 5 5 5 5 5 5 5 5 5 5 5 5 A+B+C+<.<.<.<.<.<.<.<.D+E+F+G+5 5 5 5 5 5 H+I+J+K+<.<.<.<.<.<.:.t.L+M+N+5 5 5 5 5           ",
"          5 5 5 5 5 5 5 5 5 5 5 5 5 5 O+P+Q+<.<.<.<.<.R+K+S+T+5 5 5 5 5 5 5 5 5 U+V+W+X+Y+2.<.<.:.Z+`+H+ @.@5 5 5 5 5           ",
"          5 5 5 5 5 5 5 5 5 5 5 5 5 5 5 5 5 5 5 5 +@@@#@$@%@5 5 5 5 5 5 5 5 5 5 5 5 5 &@*@.@5 5 =@-@5 5 5 5 5 5 5 5 5           ",
"          5 5 5 5 5 5 5 5 5 5 5 5 5 5 5 5 5 5 5 5 5 5 5 5 5 5 5 5 5 5 5 5 5 5 5 5 5 5 5 5 5 5 5 5 5 5 5 5 5 5 5 5 5 5           ",
"          5 5 5 5 5 5 5 5 5 5 5 5 5 5 5 5 5 5 5 5 5 5 5 5 5 5 5 5 5 5 5 5 5 5 5 5 5 5 5 5 5 5 5 5 5 5 5 5 5 5 5 5 5 5           ",
"          5 5 5 5 5 5 5 5 5 5 5 5 5 5 5 5 5 5 5 5 5 5 5 5 5 5 5 5 5 5 5 5 5 5 5 5 5 5 5 5 5 5 5 5 5 5 5 5 5 5 5 5 5 5           ",
"          5 5 5 5 5 5 5 5 5 5 5 5 5 5 5 5 5 5 5 5 5 5 5 5 5 5 5 5 5 5 5 5 5 5 5 5 5 5 5 5 5 5 5 5 5 5 5 5 5 5 5 5 5 5           ",
"          5 5 5 5 5 5 5 5 5 5 5 5 5 5 5 5 5 5 5 5 5 5 5 5 5 5 5 5 5 5 5 5 5 5 5 5 5 5 5 5 5 5 5 5 5 5 5 5 5 5 5 5 5 5           ",
"          5 5 5 5 5 5 5 5 5 5 5 5 5 5 5 5 5 5 5 5 5 5 5 5 5 5 5 5 5 5 5 5 5 5 5 5 5 5 5 5 5 5 5 5 5 5 5 5 5 5 5 5 5 5           ",
"          5 5 5 5 5 5 5 5 5 5 5 5 5 5 5 5 5 5 5 5 5 5 5 5 5 5 5 5 5 5 5 5 5 5 5 5 5 5 5 5 5 5 5 5 5 5 5 5 5 5 5 5 5 5           ",
"          5 5 5 5 5 5 5 5 5 5 5 5 5 5 5 5 5 5 5 5 5 5 5 5 5 5 5 5 5 5 5 5 5 5 5 5 5 5 5 5 5 5 5 5 5 5 5 5 5 5 5 5 5 5           ",
"          5 5 5 5 5 5 5 5 5 5 5 5 5 5 5 5 5 5 5 5 5 5 5 5 5 5 5 5 5 5 5 5 5 5 5 5 5 5 5 5 5 5 5 5 5 5 5 5 5 5 5 5 5 5           ",
"          5 5 5 5 5 5 5 5 5 5 5 5 5 5 5 5 5 5 5 5 5 5 5 5 5 5 5 5 5 5 5 5 5 5 5 5 5 5 5 5 5 5 5 5 5 5 5 5 5 5 5 5 5 5           ",
"          5 5 5 5 5 5 5 5 5 5 5 5 5 5 5 5 5 5 5 5 5 5 5 5 5 5 5 5 5 5 5 5 5 5 5 5 5 5 5 5 5 5 5 5 5 5 5 5 5 5 5 5 5 5           ",
"          5 5 5 5 5 5 5 5 5 5 5 5 5 5 5 5 5 5 5 5 5 5 5 5 5 5 5 5 5 5 5 5 5 5 5 5 5 5 5 5 5 5 5 5 5 5 5 5 5 5 5 5 5 5           ",
"          5 5 5 5 5 5 5 5 5 5 5 5 5 5 5 5 5 5 5 5 5 5 5 5 5 5 5 5 5 5 5 5 5 5 5 5 5 5 5 5 5 5 5 5 5 5 5 5 5 5 5 5 5 5           ",
"          5 5 5 5 5 5 5 5 5 5 5 5 5 5 5 5 5 5 5 5 5 5 5 5 5 5 5 5 5 K 5 5 5 5 5 5 5 5 5 5 5 5 5 5 5 5 5 5 5 5 5 5 5 5           ",
"          5 5 5 5 5 5 5 5 5 5 5 5 5 5 5 5 5 5 5 5 5 5 5 5 5 5 6 ;@; >@v 5 5 5 5 5 5 5 5 5 5 5 5 5 K K 5 5 5 5 5 5 5 5           ",
"          5 5 5 5 5 5 5 5 v ,@'@5 5 5 5 5 5 5 5 5 5 5 5 5 5 )@J !@  ~@{@5 5 5 5 5 5 5 5 5 5 5 6 ]@x }+5 5 5 5 5 5 5 5           ",
"          5 5 5 5 5 5 5 5 - ^@/@(@5 5 5 5 5 5 5 5 5 5 5 5 _@:@<@    [@:@k 5 5 5 5 5 5 5 5 5 }@|@!@  1@5 5 5 5 5 5 5 5           ",
"          K 5 5 5 5 5 2@_       ( / @.5 5 5 5 5 5 5 5 5 5 3@4@5@    6@0 7@5 5 5 5 5 5 5 8@J 9@0@      ( @.5 5 5 5 5 5           ",
"        a@K 5 5 5 5 b@c@          % c@8@5 5 5 5 5 5 5 5 5 d@e@f@    g@h@W.5 5 5 5 5 5 i@j@k@            l@v 5 5 5 5 5           ",
"        m@K 5 5 5 w n@o@            d@n@6 5 5 5 5 5 5 5 5 p@            q@5 5 5 5 5 5 r@s@t@            u@v@5 5 5 5 5           ",
"        w@K 5 5 5 x@y@                !@z@5 5 5 5 5 5 :+z@A@              5 5 5 5 5 B@                  C@D@5 5 5 5 5           ",
"        E@6 5 5 F@9@                    >.G@5 5 5 t G.H@I@                S j 5 5 J@y@                    /@~ 5 5 5 l@          ",
"        K@v 5 5 L@M@                    _ N@5 5 5 >@O@                    P@Q@R@R@S@T@                    $.U@5 5 5 l@          ",
"        V@v 5 ;.,.O                       W@J.5 5 }+X@                      Y@Z@d@                        `@ #J@5 5 .#          ",
"        +#K 5 W@@#                        !@##i.i.$#%#                      &#*#=#                            -#;#>#,#          ",
"        '#)#; !#                          ~#_ {#]#^#U                         5@/#                              (#_#=#          ",
"        :#k.O                                 <#[#}                           U }                               }#O O           "};
