/* XPM */
static char * pacman_u_00_xpm[] = {
"64 64 90 1",
" 	c #000000",
".	c #1C1C00",
"+	c #A5A500",
"@	c #CFCF00",
"#	c #2E2E00",
"$	c #3D3D00",
"%	c #D1D100",
"&	c #F0F000",
"*	c #FFFF00",
"=	c #DBDB00",
"-	c #323200",
";	c #404000",
">	c #E4E400",
",	c #898900",
"'	c #4B4B00",
")	c #E5E500",
"!	c #636300",
"~	c #E1E100",
"{	c #262600",
"]	c #4D4D00",
"^	c #E9E900",
"/	c #BCBC00",
"(	c #D6D600",
"_	c #585800",
":	c #EAEA00",
"<	c #222200",
"[	c #5C5C00",
"}	c #EEEE00",
"|	c #D5D500",
"1	c #656500",
"2	c #EFEF00",
"3	c #6D6D00",
"4	c #F2F200",
"5	c #D4D400",
"6	c #717100",
"7	c #F5F500",
"8	c #D3D300",
"9	c #161600",
"0	c #7A7A00",
"a	c #F6F600",
"b	c #CECE00",
"c	c #7E7E00",
"d	c #F8F800",
"e	c #CDCD00",
"f	c #868600",
"g	c #FAFA00",
"h	c #CCCC00",
"i	c #0D0D00",
"j	c #939300",
"k	c #FBFB00",
"l	c #CBCB00",
"m	c #959500",
"n	c #FCFC00",
"o	c #F7F700",
"p	c #B9B97F",
"q	c #88885D",
"r	c #C7C78A",
"s	c #CACA00",
"t	c #9F9F00",
"u	c #FDFD00",
"v	c #F7F7AB",
"w	c #A7A793",
"x	c #C7C7AF",
"y	c #FFFFB1",
"z	c #C4C400",
"A	c #A2A200",
"B	c #FEFE00",
"C	c #ECECE5",
"D	c #5E5E5E",
"E	c #838383",
"F	c #FFFFF8",
"G	c #AAAA00",
"H	c #F1F1F1",
"I	c #7F7F7F",
"J	c #A9A9A9",
"K	c #FFFFFF",
"L	c #C2C200",
"M	c #ADAD00",
"N	c #FBFBFB",
"O	c #D8D8D8",
"P	c #6B6B6B",
"Q	c #464646",
"R	c #868686",
"S	c #EFEFEF",
"T	c #B6B600",
"U	c #FFFFE1",
"V	c #E8E8E8",
"W	c #DADADA",
"X	c #C1C100",
"Y	c #B9B900",
"                                                                ",
"                                                                ",
"                                                                ",
"                                                                ",
"                                                                ",
"                                                                ",
"                                                                ",
"                                                                ",
"                                                                ",
"                                                                ",
"          .                                         .           ",
"         +@#                                       $%+          ",
"        +&*=-                                     ;>*&+         ",
"       ,&***=#                                   ')***&,        ",
"      !~*****={                                 ]^*****~!       ",
"      /*******({                               _:*******/       ",
"     ,&********(<                             [}********&,      ",
"     ~**********|<                           12**********~      ",
"    ,************|<                         34************,     ",
"    ~*************5<                       67*************~     ",
"   ,***************89                     0a***************,    ",
"   @****************b9                   cd****************@    ",
"  !&*****************e9                 fd*****************&!   ",
"  +*******************e9               ,g*******************+   ",
"  @********************hi             jk********************@   ",
"  &*********************li           mn*********************&   ",
"  *********opqr**********s          tu***********************   ",
" !********vw   xy*********z        AB************************!  ",
" ,*******yCD   EFy*********z      GB*************************,  ",
" +*******FHI   JKF**********L    M***************************+  ",
" /******yKNOPQRSKKy**********L  T****************************/  ",
" /******UKKNVWSKKKU***********XY*****************************/  ",
" /******UKKKKKKKKKU******************************************/  ",
" /******yKKKKKKKKKy******************************************/  ",
" +*******FKKKKKKKF*******************************************+  ",
" ,*******yFKKKKKFy*******************************************,  ",
" !********yUFFFUy********************************************!  ",
"  **********yyy**********************************************   ",
"  &*********************************************************&   ",
"  @*********************************************************@   ",
"  +*********************************************************+   ",
"  !&*******************************************************&!   ",
"   @*******************************************************@    ",
"   ,*******************************************************,    ",
"    ~*****************************************************~     ",
"    ,*****************************************************,     ",
"     ~***************************************************~      ",
"     ,&*************************************************&,      ",
"      /*************************************************/       ",
"      !~***********************************************~!       ",
"       ,&*********************************************&,        ",
"        +&*******************************************&+         ",
"         +&*****************************************&+          ",
"          +&***************************************&+           ",
"           +&*************************************&+            ",
"            +~***********************************~+             ",
"             ,@&*******************************&@,              ",
"              !+~*****************************~+!               ",
"                ,/~*************************~/,                 ",
"                  ,/~&*******************&~/,                   ",
"                    ,+@~&*************&~@+,                     ",
"                      !,+//@@~~~~~@@//+,!                       ",
"                           !!,,,,,!!                            ",
"                                                                "};
