/* XPM */
static char * pacman_r_02_xpm[] = {
"64 64 83 1",
" 	c #000000",
".	c #636300",
"+	c #898900",
"@	c #A5A500",
"#	c #BCBC00",
"$	c #CFCF00",
"%	c #F0F000",
"&	c #FFFF00",
"*	c #E1E100",
"=	c #FFFFB1",
"-	c #FFFFE1",
";	c #FFFFF8",
">	c #FFFFFF",
",	c #F2F200",
"'	c #FBFBFB",
")	c #F1F1F1",
"!	c #ECECE5",
"~	c #F7F7AB",
"{	c #E5E500",
"]	c #616100",
"^	c #D8D8D8",
"/	c #7F7F7F",
"(	c #5E5E5E",
"_	c #A7A793",
":	c #F7F700",
"<	c #FDFD00",
"[	c #D4D400",
"}	c #5C5C00",
"|	c #E8E8E8",
"1	c #6B6B6B",
"2	c #B9B97F",
"3	c #DADADA",
"4	c #464646",
"5	c #88885D",
"6	c #BDBD00",
"7	c #EFEFEF",
"8	c #868686",
"9	c #C7C78A",
"0	c #F9F900",
"a	c #707000",
"b	c #A9A9A9",
"c	c #838383",
"d	c #C7C7AF",
"e	c #D9D900",
"f	c #474700",
"g	c #FEFE00",
"h	c #B3B300",
"i	c #9E9E00",
"j	c #DFDF00",
"k	c #FAFA00",
"l	c #929200",
"m	c #D0D000",
"n	c #F3F300",
"o	c #3A3A00",
"p	c #828200",
"q	c #555500",
"r	c #696900",
"s	c #6B6B00",
"t	c #ACAC00",
"u	c #CCCC00",
"v	c #F6F600",
"w	c #F8F800",
"x	c #E6E600",
"y	c #C4C400",
"z	c #959500",
"A	c #EEEE00",
"B	c #CBCB00",
"C	c #585800",
"D	c #A9A900",
"E	c #3E3E00",
"F	c #D7D700",
"G	c #DADA00",
"H	c #525200",
"I	c #9B9B00",
"J	c #808000",
"K	c #C3C300",
"L	c #ECEC00",
"M	c #FCFC00",
"N	c #F4F400",
"O	c #FBFB00",
"P	c #D2D200",
"Q	c #D3D300",
"R	c #7F7F00",
"                                                                ",
"                           .+@####@+.                           ",
"                      .@$%&&&&&&&&&&&&%$@.                      ",
"                    +$%&&&&&&&&&&&&&&&&&&%$+                    ",
"                  +*&&&&&&&&&&&&&&&&&&&&&&&&*+                  ",
"                +*&&&&&&&&&&&&&&&&&&&&&&&&&&&&*+                ",
"              .#%&&&&&&&&&&&&&&&&&&&&&&&&&&&&&&%#.              ",
"             +*&&&&&&&&&&&&&&&&&&&&&&&&&&&&&&&&&&*+             ",
"            @%&&&&&&&&&&&&&&&&=--=&&&&&&&&&&&&&&&&%@            ",
"           @%&&&&&&&&&&&&&&&=;>>>>;=&&&&&&&&&&&&&&&,@           ",
"          @%&&&&&&&&&&&&&&&=;>>>>')!~&&&&&&&&&&&&&&&{]          ",
"         @%&&&&&&&&&&&&&&&&->>>>'^/(_:&&&&&&&&&&&&&&<[}         ",
"        @%&&&&&&&&&&&&&&&&=;>>>>|1   2&&&&&&&&&&&&&&&&[}        ",
"       +*&&&&&&&&&&&&&&&&&=;>>>>34   5&&&&&&&&&&&&&&&&&6        ",
"      .$&&&&&&&&&&&&&&&&&&=;>>>>78   9&&&&&&&&&&&&&&&&&0a       ",
"      @%&&&&&&&&&&&&&&&&&&&->>>>>7bcd&&&&&&&&&&&&&&&&&&&ef      ",
"     +*&&&&&&&&&&&&&&&&&&&&=;>>>>>>;=&&&&&&&&&&&&&&&&&&&ghf     ",
"     #&&&&&&&&&&&&&&&&&&&&&&=;>>>>;=&&&&&&&&&&&&&&&&&&&&&:i     ",
"    +*&&&&&&&&&&&&&&&&&&&&&&&&=--=&&&&&&&&&&&&&&&&&&&&&&&&jf    ",
"    #&&&&&&&&&&&&&&&&&&&&&&&&&&&&&&&&&&&&&&&&&&&&&&&&&&&&&kl    ",
"   +*&&&&&&&&&&&&&&&&&&&&&&&&&&&&&&&&&&&&&&&&&&&&&&&&&&&&&&m    ",
"   @%&&&&&&&&&&&&&&&&&&&&&&&&&&&&&&&&&&&&&&&&&&&&&&&&&&&&&&no   ",
"  .$&&&&&&&&&&&&&&&&&&&&&&&&&&&&&&&&&&&&&&&&&&&&&&&&&&&&&&&gp   ",
"  +*&&&&&&&&&&&&&&&&&&&&&&&&&&&&&&&&&&&&&&&&&&&&&&&&&&&&&&&&#o  ",
"  @%&&&&&&&&&&&&&&&&&&&&&&&&&&&&&&&&&&&&&&&&&&&&&&&&&&&&&&&&{q  ",
"  #&&&&&&&&&&&&&&&&&&&&&&&&&&&&&&&&&&&&&&&&&&&&&&&&&&&&&&&&&0r  ",
"  #&&&&&&&&&&&&&&&&&&&&&&&&&&&&&&&&&&&&&&&&&&&&&&&&&&&&&&&&&gs  ",
" .$&&&&&&&&&&&&&&&&&&&&&&&&&&&&&&&&&&&&&&&&&&&&&&&&&&&&&&&&&g+  ",
" .$&&&&&&&&&&&&&&&&&&&&&&&&&&&&&&&&&&&&&&&&&&&&&&&&&&&&&&&&&&t  ",
" +*&&&&&&&&&&&&&&&&&&&&&&&&&&&&&&&&&&&&&&&&&&&&&&&&&&&&&&&&&&u  ",
" +*&&&&&&&&&&&&&&&&&&&&&&&&&&&&&&&&&&&&&&&&&&&&&&&&&&&&&&&&&&*  ",
" +*&&&&&&&&&&&&&&&&&&&&&&&&&&&&&&&&&&&&&&&&&&&&&&&&&&&&&&&&&&%  ",
" +*&&&&&&&&&&&&&&&&&&&&&&&&&&&&&&&&&&&&&&&&&&&&&&&&&&&&&&&&&&v  ",
" +*&&&&&&&&&&&&&&&&&&&&&&&&&&&&&&&&&&&&&&&&&&&&&&&&&&&&&&&&&&w  ",
" .$&&&&&&&&&&&&&&&&&&&&&&&&&&&&&&&&&&&&&&&&&&&&&&&&&&&&&&&&&&n  ",
" .$&&&&&&&&&&&&&&&&&&&&&&&&&&&&&&&&&&&&&&&&&&&&&&&&&&&&&&&&&&x  ",
"  #&&&&&&&&&&&&&&&&&&&&&&&&&&&&&&&&&&&&&&&&&&&&&&&&&&&&&&&&&&y  ",
"  #&&&&&&&&&&&&&&&&&&&&&&&&&&&&&&&&&&&&&&&&&&&&&&&&&&&&&&&&&gz  ",
"  @%&&&&&&&&&&&&&&&&&&&&&&&&&&&&&&&&&&&&&&&&&&&&&&&&&&&&&&&&0s  ",
"  +*&&&&&&&&&&&&&&&&&&&&&&&&&&&&&&&&&&&&&&&&&&&&&&&&&&&&&&&&As  ",
"  .$&&&&&&&&&&&&&&&&&&&&&&&&&&&&&&&&&&&&&&&&&&&&&&&&&&&&&&&&BC  ",
"   @%&&&&&&&&&&&&&&&&&&&&&&&&&&&&&&&&&&&&&&&&&&&&&&&&&&&&&&&DE  ",
"   +*&&&&&&&&&&&&&&&&&&&&&&&&&&&&&&&&&&&&&&&&&&&&&&&&&&&&&&vs   ",
"    #&&&&&&&&&&&&&&&&&&&&&&&&&&&&&&&&&&&&&&&&&&&&&&&&&&&&&&FE   ",
"    +*&&&&&&&&&&&&&&&&&&&&&&&&&&&&&&&&&&&&&&&&&&&&&&&&&&&&kl    ",
"     #&&&&&&&&&&&&&&&&&&&&&&&&&&&&&&&&&&&&&&&&&&&&&&&&&&&&GH    ",
"     +*&&&&&&&&&&&&&&&&&&&&&&&&&&&&&&&&&&&&&&&&&&&&&&&&&&wI     ",
"      @%&&&&&&&&&&&&&&&&&&&&&&&&&&&&&&&&&&&&&&&&&&&&&&&&gyH     ",
"      .$&&&&&&&&&&&&&&&&&&&&&&&&&&&&&&&&&&&&&&&&&&&&&&&&jH      ",
"       +*&&&&&&&&&&&&&&&&&&&&&&&&&&&&&&&&&&&&&&&&&&&&&&0J       ",
"        @%&&&&&&&&&&&&&&&&&&&&&&&&&&&&&&&&&&&&&&&&&&&&gK        ",
"         @%&&&&&&&&&&&&&&&&&&&&&&&&&&&&&&&&&&&&&&&&&&&L         ",
"          @%&&&&&&&&&&&&&&&&&&&&&&&&&&&&&&&&&&&&&&&&&k          ",
"           @%&&&&&&&&&&&&&&&&&&&&&&&&&&&&&&&&&&&&&&&M           ",
"            @%&&&&&&&&&&&&&&&&&&&&&&&&&&&&&&&&&&&&&N            ",
"             +*&&&&&&&&&&&&&&&&&&&&&&&&&&&&&&&&&&OP             ",
"              .#%&&&&&&&&&&&&&&&&&&&&&&&&&&&&&&wQR              ",
"                +*&&&&&&&&&&&&&&&&&&&&&&&&&&&&*+                ",
"                  +*&&&&&&&&&&&&&&&&&&&&&&&&*+                  ",
"                    +$%&&&&&&&&&&&&&&&&&&%$+                    ",
"                      .@$%&&&&&&&&&&&&%$@.                      ",
"                           .+@####@+.                           ",
"                                                                ",
"                                                                "};
