/* XPM */
static char * pacman_l_00_xpm[] = {
"64 64 90 1",
" 	c #000000",
".	c #636300",
"+	c #898900",
"@	c #A5A500",
"#	c #BCBC00",
"$	c #CFCF00",
"%	c #F0F000",
"&	c #FFFF00",
"*	c #E1E100",
"=	c #FFFFB1",
"-	c #FFFFE1",
";	c #FFFFF8",
">	c #FFFFFF",
",	c #1C1C00",
"'	c #F7F7AB",
")	c #ECECE5",
"!	c #F1F1F1",
"~	c #FBFBFB",
"{	c #2E2E00",
"]	c #DBDB00",
"^	c #F7F700",
"/	c #A7A793",
"(	c #5E5E5E",
"_	c #7F7F7F",
":	c #D8D8D8",
"<	c #323200",
"[	c #B9B97F",
"}	c #6B6B6B",
"|	c #E8E8E8",
"1	c #88885D",
"2	c #464646",
"3	c #DADADA",
"4	c #262600",
"5	c #D6D600",
"6	c #C7C78A",
"7	c #868686",
"8	c #EFEFEF",
"9	c #C7C7AF",
"0	c #838383",
"a	c #A9A9A9",
"b	c #222200",
"c	c #D5D500",
"d	c #D4D400",
"e	c #D3D300",
"f	c #161600",
"g	c #CECE00",
"h	c #CDCD00",
"i	c #CCCC00",
"j	c #0D0D00",
"k	c #CBCB00",
"l	c #CACA00",
"m	c #C4C400",
"n	c #C2C200",
"o	c #C1C100",
"p	c #B9B900",
"q	c #B6B600",
"r	c #ADAD00",
"s	c #AAAA00",
"t	c #A2A200",
"u	c #FEFE00",
"v	c #9F9F00",
"w	c #959500",
"x	c #FDFD00",
"y	c #939300",
"z	c #FCFC00",
"A	c #FBFB00",
"B	c #868600",
"C	c #FAFA00",
"D	c #7E7E00",
"E	c #F8F800",
"F	c #7A7A00",
"G	c #717100",
"H	c #F6F600",
"I	c #6D6D00",
"J	c #F5F500",
"K	c #656500",
"L	c #F2F200",
"M	c #5C5C00",
"N	c #EFEF00",
"O	c #585800",
"P	c #EEEE00",
"Q	c #4D4D00",
"R	c #EAEA00",
"S	c #4B4B00",
"T	c #E9E900",
"U	c #404000",
"V	c #E5E500",
"W	c #3D3D00",
"X	c #E4E400",
"Y	c #D1D100",
"                                                                ",
"                           .+@####@+.                           ",
"                      .@$%&&&&&&&&&&&&%$@.                      ",
"                    +$%&&&&&&&&&&&&&&&&&&%$+                    ",
"                  +*&&&&&&&&&&&&&&&&&&&&&&&&*+                  ",
"                +*&&&&&&&&&&&&&&&&&&&&&&&&&&&&*+                ",
"              .#%&&&&&&&&&&&&&&&&&&&&&&&&&&&&&&%#.              ",
"             +*&&&&&&&&&&&&&&&&&&&&&&&&&&&&&&&&&&*+             ",
"            @%&&&&&&&&&&&&&&&&=--=&&&&&&&&&&&&&&&&%@            ",
"           @%&&&&&&&&&&&&&&&=;>>>>;=&&&&&&&&&&&&&&&%@           ",
"          ,$&&&&&&&&&&&&&&&')!~>>>>;=&&&&&&&&&&&&&&&%@          ",
"           {]&&&&&&&&&&&&&^/(_:~>>>>-&&&&&&&&&&&&&&&&%@         ",
"            <]&&&&&&&&&&&&[   }|>>>>;=&&&&&&&&&&&&&&&&%@        ",
"             {]&&&&&&&&&&&1   23>>>>;=&&&&&&&&&&&&&&&&&*+       ",
"              45&&&&&&&&&&6   78>>>>;=&&&&&&&&&&&&&&&&&&$.      ",
"               45&&&&&&&&&&90a8>>>>>-&&&&&&&&&&&&&&&&&&&%@      ",
"                bc&&&&&&&&&=;>>>>>>;=&&&&&&&&&&&&&&&&&&&&*+     ",
"                 bc&&&&&&&&&=;>>>>;=&&&&&&&&&&&&&&&&&&&&&&#     ",
"                  bd&&&&&&&&&&=--=&&&&&&&&&&&&&&&&&&&&&&&&*+    ",
"                   be&&&&&&&&&&&&&&&&&&&&&&&&&&&&&&&&&&&&&&#    ",
"                    fg&&&&&&&&&&&&&&&&&&&&&&&&&&&&&&&&&&&&&*+   ",
"                     fh&&&&&&&&&&&&&&&&&&&&&&&&&&&&&&&&&&&&%@   ",
"                      fh&&&&&&&&&&&&&&&&&&&&&&&&&&&&&&&&&&&&$.  ",
"                       fi&&&&&&&&&&&&&&&&&&&&&&&&&&&&&&&&&&&*+  ",
"                        jk&&&&&&&&&&&&&&&&&&&&&&&&&&&&&&&&&&%@  ",
"                         jl&&&&&&&&&&&&&&&&&&&&&&&&&&&&&&&&&&#  ",
"                           m&&&&&&&&&&&&&&&&&&&&&&&&&&&&&&&&&#  ",
"                            m&&&&&&&&&&&&&&&&&&&&&&&&&&&&&&&&$. ",
"                             n&&&&&&&&&&&&&&&&&&&&&&&&&&&&&&&$. ",
"                              n&&&&&&&&&&&&&&&&&&&&&&&&&&&&&&*+ ",
"                               o&&&&&&&&&&&&&&&&&&&&&&&&&&&&&*+ ",
"                               p&&&&&&&&&&&&&&&&&&&&&&&&&&&&&*+ ",
"                              q&&&&&&&&&&&&&&&&&&&&&&&&&&&&&&*+ ",
"                             r&&&&&&&&&&&&&&&&&&&&&&&&&&&&&&&*+ ",
"                            s&&&&&&&&&&&&&&&&&&&&&&&&&&&&&&&&$. ",
"                           tu&&&&&&&&&&&&&&&&&&&&&&&&&&&&&&&&$. ",
"                          vu&&&&&&&&&&&&&&&&&&&&&&&&&&&&&&&&&#  ",
"                         wx&&&&&&&&&&&&&&&&&&&&&&&&&&&&&&&&&&#  ",
"                        yz&&&&&&&&&&&&&&&&&&&&&&&&&&&&&&&&&&%@  ",
"                       +A&&&&&&&&&&&&&&&&&&&&&&&&&&&&&&&&&&&*+  ",
"                      BC&&&&&&&&&&&&&&&&&&&&&&&&&&&&&&&&&&&&$.  ",
"                     DE&&&&&&&&&&&&&&&&&&&&&&&&&&&&&&&&&&&&%@   ",
"                    FE&&&&&&&&&&&&&&&&&&&&&&&&&&&&&&&&&&&&&*+   ",
"                   GH&&&&&&&&&&&&&&&&&&&&&&&&&&&&&&&&&&&&&&#    ",
"                  IJ&&&&&&&&&&&&&&&&&&&&&&&&&&&&&&&&&&&&&&*+    ",
"                 KL&&&&&&&&&&&&&&&&&&&&&&&&&&&&&&&&&&&&&&&#     ",
"                MN&&&&&&&&&&&&&&&&&&&&&&&&&&&&&&&&&&&&&&&*+     ",
"               OP&&&&&&&&&&&&&&&&&&&&&&&&&&&&&&&&&&&&&&&%@      ",
"              QR&&&&&&&&&&&&&&&&&&&&&&&&&&&&&&&&&&&&&&&&$.      ",
"             ST&&&&&&&&&&&&&&&&&&&&&&&&&&&&&&&&&&&&&&&&*+       ",
"            UV&&&&&&&&&&&&&&&&&&&&&&&&&&&&&&&&&&&&&&&&%@        ",
"           WX&&&&&&&&&&&&&&&&&&&&&&&&&&&&&&&&&&&&&&&&%@         ",
"          ,Y&&&&&&&&&&&&&&&&&&&&&&&&&&&&&&&&&&&&&&&&%@          ",
"           @%&&&&&&&&&&&&&&&&&&&&&&&&&&&&&&&&&&&&&&%@           ",
"            @%&&&&&&&&&&&&&&&&&&&&&&&&&&&&&&&&&&&&%@            ",
"             +*&&&&&&&&&&&&&&&&&&&&&&&&&&&&&&&&&&*+             ",
"              .#%&&&&&&&&&&&&&&&&&&&&&&&&&&&&&&%#.              ",
"                +*&&&&&&&&&&&&&&&&&&&&&&&&&&&&*+                ",
"                  +*&&&&&&&&&&&&&&&&&&&&&&&&*+                  ",
"                    +$%&&&&&&&&&&&&&&&&&&%$+                    ",
"                      .@$%&&&&&&&&&&&&%$@.                      ",
"                           .+@####@+.                           ",
"                                                                ",
"                                                                "};
