/* XPM */
static char * pacman_l_02_xpm[] = {
"64 64 83 1",
" 	c #000000",
".	c #636300",
"+	c #898900",
"@	c #A5A500",
"#	c #BCBC00",
"$	c #CFCF00",
"%	c #F0F000",
"&	c #FFFF00",
"*	c #E1E100",
"=	c #FFFFB1",
"-	c #FFFFE1",
";	c #F2F200",
">	c #FFFFF8",
",	c #FFFFFF",
"'	c #616100",
")	c #E5E500",
"!	c #F7F7AB",
"~	c #ECECE5",
"{	c #F1F1F1",
"]	c #FBFBFB",
"^	c #5C5C00",
"/	c #D4D400",
"(	c #FDFD00",
"_	c #F7F700",
":	c #A7A793",
"<	c #5E5E5E",
"[	c #7F7F7F",
"}	c #D8D8D8",
"|	c #B9B97F",
"1	c #6B6B6B",
"2	c #E8E8E8",
"3	c #BDBD00",
"4	c #88885D",
"5	c #464646",
"6	c #DADADA",
"7	c #707000",
"8	c #F9F900",
"9	c #C7C78A",
"0	c #868686",
"a	c #EFEFEF",
"b	c #474700",
"c	c #D9D900",
"d	c #C7C7AF",
"e	c #838383",
"f	c #A9A9A9",
"g	c #B3B300",
"h	c #FEFE00",
"i	c #9E9E00",
"j	c #DFDF00",
"k	c #929200",
"l	c #FAFA00",
"m	c #D0D000",
"n	c #3A3A00",
"o	c #F3F300",
"p	c #828200",
"q	c #555500",
"r	c #696900",
"s	c #6B6B00",
"t	c #ACAC00",
"u	c #CCCC00",
"v	c #F6F600",
"w	c #F8F800",
"x	c #E6E600",
"y	c #C4C400",
"z	c #959500",
"A	c #EEEE00",
"B	c #585800",
"C	c #CBCB00",
"D	c #3E3E00",
"E	c #A9A900",
"F	c #D7D700",
"G	c #525200",
"H	c #DADA00",
"I	c #9B9B00",
"J	c #808000",
"K	c #C3C300",
"L	c #ECEC00",
"M	c #FCFC00",
"N	c #F4F400",
"O	c #D2D200",
"P	c #FBFB00",
"Q	c #7F7F00",
"R	c #D3D300",
"                                                                ",
"                           .+@####@+.                           ",
"                      .@$%&&&&&&&&&&&&%$@.                      ",
"                    +$%&&&&&&&&&&&&&&&&&&%$+                    ",
"                  +*&&&&&&&&&&&&&&&&&&&&&&&&*+                  ",
"                +*&&&&&&&&&&&&&&&&&&&&&&&&&&&&*+                ",
"              .#%&&&&&&&&&&&&&&&&&&&&&&&&&&&&&&%#.              ",
"             +*&&&&&&&&&&&&&&&&&&&&&&&&&&&&&&&&&&*+             ",
"            @%&&&&&&&&&&&&&&&&=--=&&&&&&&&&&&&&&&&%@            ",
"           @;&&&&&&&&&&&&&&&=>,,,,>=&&&&&&&&&&&&&&&%@           ",
"          ')&&&&&&&&&&&&&&&!~{],,,,>=&&&&&&&&&&&&&&&%@          ",
"         ^/(&&&&&&&&&&&&&&_:<[}],,,,-&&&&&&&&&&&&&&&&%@         ",
"        ^/&&&&&&&&&&&&&&&&|   12,,,,>=&&&&&&&&&&&&&&&&%@        ",
"        3&&&&&&&&&&&&&&&&&4   56,,,,>=&&&&&&&&&&&&&&&&&*+       ",
"       78&&&&&&&&&&&&&&&&&9   0a,,,,>=&&&&&&&&&&&&&&&&&&$.      ",
"      bc&&&&&&&&&&&&&&&&&&&defa,,,,,-&&&&&&&&&&&&&&&&&&&%@      ",
"     bgh&&&&&&&&&&&&&&&&&&&=>,,,,,,>=&&&&&&&&&&&&&&&&&&&&*+     ",
"     i_&&&&&&&&&&&&&&&&&&&&&=>,,,,>=&&&&&&&&&&&&&&&&&&&&&&#     ",
"    bj&&&&&&&&&&&&&&&&&&&&&&&&=--=&&&&&&&&&&&&&&&&&&&&&&&&*+    ",
"    kl&&&&&&&&&&&&&&&&&&&&&&&&&&&&&&&&&&&&&&&&&&&&&&&&&&&&&#    ",
"    m&&&&&&&&&&&&&&&&&&&&&&&&&&&&&&&&&&&&&&&&&&&&&&&&&&&&&&*+   ",
"   no&&&&&&&&&&&&&&&&&&&&&&&&&&&&&&&&&&&&&&&&&&&&&&&&&&&&&&%@   ",
"   ph&&&&&&&&&&&&&&&&&&&&&&&&&&&&&&&&&&&&&&&&&&&&&&&&&&&&&&&$.  ",
"  n#&&&&&&&&&&&&&&&&&&&&&&&&&&&&&&&&&&&&&&&&&&&&&&&&&&&&&&&&*+  ",
"  q)&&&&&&&&&&&&&&&&&&&&&&&&&&&&&&&&&&&&&&&&&&&&&&&&&&&&&&&&%@  ",
"  r8&&&&&&&&&&&&&&&&&&&&&&&&&&&&&&&&&&&&&&&&&&&&&&&&&&&&&&&&&#  ",
"  sh&&&&&&&&&&&&&&&&&&&&&&&&&&&&&&&&&&&&&&&&&&&&&&&&&&&&&&&&&#  ",
"  +h&&&&&&&&&&&&&&&&&&&&&&&&&&&&&&&&&&&&&&&&&&&&&&&&&&&&&&&&&$. ",
"  t&&&&&&&&&&&&&&&&&&&&&&&&&&&&&&&&&&&&&&&&&&&&&&&&&&&&&&&&&&$. ",
"  u&&&&&&&&&&&&&&&&&&&&&&&&&&&&&&&&&&&&&&&&&&&&&&&&&&&&&&&&&&*+ ",
"  *&&&&&&&&&&&&&&&&&&&&&&&&&&&&&&&&&&&&&&&&&&&&&&&&&&&&&&&&&&*+ ",
"  %&&&&&&&&&&&&&&&&&&&&&&&&&&&&&&&&&&&&&&&&&&&&&&&&&&&&&&&&&&*+ ",
"  v&&&&&&&&&&&&&&&&&&&&&&&&&&&&&&&&&&&&&&&&&&&&&&&&&&&&&&&&&&*+ ",
"  w&&&&&&&&&&&&&&&&&&&&&&&&&&&&&&&&&&&&&&&&&&&&&&&&&&&&&&&&&&*+ ",
"  o&&&&&&&&&&&&&&&&&&&&&&&&&&&&&&&&&&&&&&&&&&&&&&&&&&&&&&&&&&$. ",
"  x&&&&&&&&&&&&&&&&&&&&&&&&&&&&&&&&&&&&&&&&&&&&&&&&&&&&&&&&&&$. ",
"  y&&&&&&&&&&&&&&&&&&&&&&&&&&&&&&&&&&&&&&&&&&&&&&&&&&&&&&&&&&#  ",
"  zh&&&&&&&&&&&&&&&&&&&&&&&&&&&&&&&&&&&&&&&&&&&&&&&&&&&&&&&&&#  ",
"  s8&&&&&&&&&&&&&&&&&&&&&&&&&&&&&&&&&&&&&&&&&&&&&&&&&&&&&&&&%@  ",
"  sA&&&&&&&&&&&&&&&&&&&&&&&&&&&&&&&&&&&&&&&&&&&&&&&&&&&&&&&&*+  ",
"  BC&&&&&&&&&&&&&&&&&&&&&&&&&&&&&&&&&&&&&&&&&&&&&&&&&&&&&&&&$.  ",
"  DE&&&&&&&&&&&&&&&&&&&&&&&&&&&&&&&&&&&&&&&&&&&&&&&&&&&&&&&%@   ",
"   sv&&&&&&&&&&&&&&&&&&&&&&&&&&&&&&&&&&&&&&&&&&&&&&&&&&&&&&*+   ",
"   DF&&&&&&&&&&&&&&&&&&&&&&&&&&&&&&&&&&&&&&&&&&&&&&&&&&&&&&#    ",
"    kl&&&&&&&&&&&&&&&&&&&&&&&&&&&&&&&&&&&&&&&&&&&&&&&&&&&&*+    ",
"    GH&&&&&&&&&&&&&&&&&&&&&&&&&&&&&&&&&&&&&&&&&&&&&&&&&&&&#     ",
"     Iw&&&&&&&&&&&&&&&&&&&&&&&&&&&&&&&&&&&&&&&&&&&&&&&&&&*+     ",
"     Gyh&&&&&&&&&&&&&&&&&&&&&&&&&&&&&&&&&&&&&&&&&&&&&&&&%@      ",
"      Gj&&&&&&&&&&&&&&&&&&&&&&&&&&&&&&&&&&&&&&&&&&&&&&&&$.      ",
"       J8&&&&&&&&&&&&&&&&&&&&&&&&&&&&&&&&&&&&&&&&&&&&&&*+       ",
"        Kh&&&&&&&&&&&&&&&&&&&&&&&&&&&&&&&&&&&&&&&&&&&&%@        ",
"         L&&&&&&&&&&&&&&&&&&&&&&&&&&&&&&&&&&&&&&&&&&&%@         ",
"          l&&&&&&&&&&&&&&&&&&&&&&&&&&&&&&&&&&&&&&&&&%@          ",
"           M&&&&&&&&&&&&&&&&&&&&&&&&&&&&&&&&&&&&&&&%@           ",
"            N&&&&&&&&&&&&&&&&&&&&&&&&&&&&&&&&&&&&&%@            ",
"             OP&&&&&&&&&&&&&&&&&&&&&&&&&&&&&&&&&&*+             ",
"              QRw&&&&&&&&&&&&&&&&&&&&&&&&&&&&&&%#.              ",
"                +*&&&&&&&&&&&&&&&&&&&&&&&&&&&&*+                ",
"                  +*&&&&&&&&&&&&&&&&&&&&&&&&*+                  ",
"                    +$%&&&&&&&&&&&&&&&&&&%$+                    ",
"                      .@$%&&&&&&&&&&&&%$@.                      ",
"                           .+@####@+.                           ",
"                                                                ",
"                                                                "};
