/* XPM */
static char * pacman_d_02_xpm[] = {
"64 64 83 1",
" 	c #000000",
".	c #636300",
"+	c #898900",
"@	c #A5A500",
"#	c #BCBC00",
"$	c #CFCF00",
"%	c #E1E100",
"&	c #F0F000",
"*	c #FFFF00",
"=	c #FFFFB1",
"-	c #FFFFE1",
";	c #FFFFF8",
">	c #FFFFFF",
",	c #EFEFEF",
"'	c #DADADA",
")	c #E8E8E8",
"!	c #FBFBFB",
"~	c #868686",
"{	c #464646",
"]	c #6B6B6B",
"^	c #D8D8D8",
"/	c #A9A9A9",
"(	c #7F7F7F",
"_	c #F1F1F1",
":	c #838383",
"<	c #5E5E5E",
"[	c #ECECE5",
"}	c #C7C7AF",
"|	c #A7A793",
"1	c #F7F7AB",
"2	c #C7C78A",
"3	c #88885D",
"4	c #B9B97F",
"5	c #F7F700",
"6	c #F8F800",
"7	c #D3D300",
"8	c #7F7F00",
"9	c #FBFB00",
"0	c #D2D200",
"a	c #F4F400",
"b	c #F2F200",
"c	c #FCFC00",
"d	c #FDFD00",
"e	c #E5E500",
"f	c #FAFA00",
"g	c #D4D400",
"h	c #616100",
"i	c #ECEC00",
"j	c #FEFE00",
"k	c #5C5C00",
"l	c #C3C300",
"m	c #F9F900",
"n	c #BDBD00",
"o	c #808000",
"p	c #DFDF00",
"q	c #D9D900",
"r	c #707000",
"s	c #525200",
"t	c #C4C400",
"u	c #B3B300",
"v	c #474700",
"w	c #9B9B00",
"x	c #DADA00",
"y	c #9E9E00",
"z	c #929200",
"A	c #D7D700",
"B	c #F6F600",
"C	c #F3F300",
"D	c #D0D000",
"E	c #3E3E00",
"F	c #6B6B00",
"G	c #A9A900",
"H	c #CBCB00",
"I	c #EEEE00",
"J	c #828200",
"K	c #3A3A00",
"L	c #585800",
"M	c #959500",
"N	c #E6E600",
"O	c #CCCC00",
"P	c #ACAC00",
"Q	c #696900",
"R	c #555500",
"                                                                ",
"                            ..+++++..                           ",
"                       .+@##$$%%%%%$$##@+.                      ",
"                     +@$%&*************&%$@+                    ",
"                   +#%&*******************&%#+                  ",
"                 +#%*************************%#+                ",
"               .@%*****************************%@.              ",
"              +$&*******************************&$+             ",
"             @%***********************************%@            ",
"            @&*************************************&@           ",
"           @&***************************************&@          ",
"          @&*****************************************&@         ",
"         @&*******************************************&@        ",
"        +&*********************************************&+       ",
"       .%***********************************************%.      ",
"       #*************************************************#      ",
"      +&*************************************************&+     ",
"      %***************************************************%     ",
"     +*****************************************************+    ",
"     %*****************************************************%    ",
"    +*******************************************************+   ",
"    $*******************************************************$   ",
"   .&*******************************************************&.  ",
"   @*********************************************************@  ",
"   $*********************************************************$  ",
"   &*********************************************************&  ",
"   **********************************************===**********  ",
"  .********************************************=-;;;-=********. ",
"  +*******************************************=;>>>>>;=*******+ ",
"  @*******************************************;>>>>>>>;*******@ ",
"  #******************************************=>>>>>>>>>=******# ",
"  #******************************************->>>>>>>>>-******# ",
"  #******************************************->>>,')!>>-******# ",
"  #******************************************=>>,~{]^!>=******# ",
"  @*******************************************;>/   (_;*******@ ",
"  +*******************************************=;:   <[=*******+ ",
"  .********************************************=}   |1********. ",
"   **********************************************2345*********  ",
"   &*********************************************************&  ",
"   $*********************************************************$  ",
"   @*********************************************************@  ",
"   .&*******************************************************&.  ",
"    $*******************************************************$   ",
"    +*******************************************************+   ",
"     %*****************************************************%    ",
"     +*****************************************************+    ",
"      %***************************************************%     ",
"      +6*************************************************&+     ",
"       7*************************************************#      ",
"       89***********************************************%.      ",
"        0**********************************************&+       ",
"         a********************************************b@        ",
"          c*****************************************de@         ",
"           f****************************************gh          ",
"            ij*************************************gk           ",
"             lm**********************************mnk            ",
"              opj******************************jqr              ",
"               st6****************************5uv               ",
"                swxf************************fpyv                ",
"                  szAB*******************jCDzv                  ",
"                    EFGHImj*********jjme#JK                     ",
"                      ELFFMtNC6B&%OP+FQRK                       ",
"                                                                ",
"                                                                "};
