/* XPM */
static char * pacman_r_00_xpm[] = {
"64 64 90 1",
" 	c #000000",
".	c #636300",
"+	c #898900",
"@	c #A5A500",
"#	c #BCBC00",
"$	c #CFCF00",
"%	c #F0F000",
"&	c #FFFF00",
"*	c #E1E100",
"=	c #FFFFB1",
"-	c #FFFFE1",
";	c #FFFFF8",
">	c #FFFFFF",
",	c #FBFBFB",
"'	c #F1F1F1",
")	c #ECECE5",
"!	c #F7F7AB",
"~	c #1C1C00",
"{	c #D8D8D8",
"]	c #7F7F7F",
"^	c #5E5E5E",
"/	c #A7A793",
"(	c #F7F700",
"_	c #DBDB00",
":	c #2E2E00",
"<	c #E8E8E8",
"[	c #6B6B6B",
"}	c #B9B97F",
"|	c #323200",
"1	c #DADADA",
"2	c #464646",
"3	c #88885D",
"4	c #EFEFEF",
"5	c #868686",
"6	c #C7C78A",
"7	c #D6D600",
"8	c #262600",
"9	c #A9A9A9",
"0	c #838383",
"a	c #C7C7AF",
"b	c #D5D500",
"c	c #222200",
"d	c #D4D400",
"e	c #D3D300",
"f	c #CECE00",
"g	c #161600",
"h	c #CDCD00",
"i	c #CCCC00",
"j	c #CBCB00",
"k	c #0D0D00",
"l	c #CACA00",
"m	c #C4C400",
"n	c #C2C200",
"o	c #C1C100",
"p	c #B9B900",
"q	c #B6B600",
"r	c #ADAD00",
"s	c #AAAA00",
"t	c #FEFE00",
"u	c #A2A200",
"v	c #9F9F00",
"w	c #FDFD00",
"x	c #959500",
"y	c #FCFC00",
"z	c #939300",
"A	c #FBFB00",
"B	c #FAFA00",
"C	c #868600",
"D	c #F8F800",
"E	c #7E7E00",
"F	c #7A7A00",
"G	c #F6F600",
"H	c #717100",
"I	c #F5F500",
"J	c #6D6D00",
"K	c #F2F200",
"L	c #656500",
"M	c #EFEF00",
"N	c #5C5C00",
"O	c #EEEE00",
"P	c #585800",
"Q	c #EAEA00",
"R	c #4D4D00",
"S	c #E9E900",
"T	c #4B4B00",
"U	c #E5E500",
"V	c #404000",
"W	c #E4E400",
"X	c #3D3D00",
"Y	c #D1D100",
"                                                                ",
"                           .+@####@+.                           ",
"                      .@$%&&&&&&&&&&&&%$@.                      ",
"                    +$%&&&&&&&&&&&&&&&&&&%$+                    ",
"                  +*&&&&&&&&&&&&&&&&&&&&&&&&*+                  ",
"                +*&&&&&&&&&&&&&&&&&&&&&&&&&&&&*+                ",
"              .#%&&&&&&&&&&&&&&&&&&&&&&&&&&&&&&%#.              ",
"             +*&&&&&&&&&&&&&&&&&&&&&&&&&&&&&&&&&&*+             ",
"            @%&&&&&&&&&&&&&&&&=--=&&&&&&&&&&&&&&&&%@            ",
"           @%&&&&&&&&&&&&&&&=;>>>>;=&&&&&&&&&&&&&&&%@           ",
"          @%&&&&&&&&&&&&&&&=;>>>>,')!&&&&&&&&&&&&&&&$~          ",
"         @%&&&&&&&&&&&&&&&&->>>>,{]^/(&&&&&&&&&&&&&_:           ",
"        @%&&&&&&&&&&&&&&&&=;>>>><[   }&&&&&&&&&&&&_|            ",
"       +*&&&&&&&&&&&&&&&&&=;>>>>12   3&&&&&&&&&&&_:             ",
"      .$&&&&&&&&&&&&&&&&&&=;>>>>45   6&&&&&&&&&&78              ",
"      @%&&&&&&&&&&&&&&&&&&&->>>>>490a&&&&&&&&&&78               ",
"     +*&&&&&&&&&&&&&&&&&&&&=;>>>>>>;=&&&&&&&&&bc                ",
"     #&&&&&&&&&&&&&&&&&&&&&&=;>>>>;=&&&&&&&&&bc                 ",
"    +*&&&&&&&&&&&&&&&&&&&&&&&&=--=&&&&&&&&&&dc                  ",
"    #&&&&&&&&&&&&&&&&&&&&&&&&&&&&&&&&&&&&&&ec                   ",
"   +*&&&&&&&&&&&&&&&&&&&&&&&&&&&&&&&&&&&&&fg                    ",
"   @%&&&&&&&&&&&&&&&&&&&&&&&&&&&&&&&&&&&&hg                     ",
"  .$&&&&&&&&&&&&&&&&&&&&&&&&&&&&&&&&&&&&hg                      ",
"  +*&&&&&&&&&&&&&&&&&&&&&&&&&&&&&&&&&&&ig                       ",
"  @%&&&&&&&&&&&&&&&&&&&&&&&&&&&&&&&&&&jk                        ",
"  #&&&&&&&&&&&&&&&&&&&&&&&&&&&&&&&&&&lk                         ",
"  #&&&&&&&&&&&&&&&&&&&&&&&&&&&&&&&&&m                           ",
" .$&&&&&&&&&&&&&&&&&&&&&&&&&&&&&&&&m                            ",
" .$&&&&&&&&&&&&&&&&&&&&&&&&&&&&&&&n                             ",
" +*&&&&&&&&&&&&&&&&&&&&&&&&&&&&&&n                              ",
" +*&&&&&&&&&&&&&&&&&&&&&&&&&&&&&o                               ",
" +*&&&&&&&&&&&&&&&&&&&&&&&&&&&&&p                               ",
" +*&&&&&&&&&&&&&&&&&&&&&&&&&&&&&&q                              ",
" +*&&&&&&&&&&&&&&&&&&&&&&&&&&&&&&&r                             ",
" .$&&&&&&&&&&&&&&&&&&&&&&&&&&&&&&&&s                            ",
" .$&&&&&&&&&&&&&&&&&&&&&&&&&&&&&&&&tu                           ",
"  #&&&&&&&&&&&&&&&&&&&&&&&&&&&&&&&&&tv                          ",
"  #&&&&&&&&&&&&&&&&&&&&&&&&&&&&&&&&&&wx                         ",
"  @%&&&&&&&&&&&&&&&&&&&&&&&&&&&&&&&&&&yz                        ",
"  +*&&&&&&&&&&&&&&&&&&&&&&&&&&&&&&&&&&&A+                       ",
"  .$&&&&&&&&&&&&&&&&&&&&&&&&&&&&&&&&&&&&BC                      ",
"   @%&&&&&&&&&&&&&&&&&&&&&&&&&&&&&&&&&&&&DE                     ",
"   +*&&&&&&&&&&&&&&&&&&&&&&&&&&&&&&&&&&&&&DF                    ",
"    #&&&&&&&&&&&&&&&&&&&&&&&&&&&&&&&&&&&&&&GH                   ",
"    +*&&&&&&&&&&&&&&&&&&&&&&&&&&&&&&&&&&&&&&IJ                  ",
"     #&&&&&&&&&&&&&&&&&&&&&&&&&&&&&&&&&&&&&&&KL                 ",
"     +*&&&&&&&&&&&&&&&&&&&&&&&&&&&&&&&&&&&&&&&MN                ",
"      @%&&&&&&&&&&&&&&&&&&&&&&&&&&&&&&&&&&&&&&&OP               ",
"      .$&&&&&&&&&&&&&&&&&&&&&&&&&&&&&&&&&&&&&&&&QR              ",
"       +*&&&&&&&&&&&&&&&&&&&&&&&&&&&&&&&&&&&&&&&&ST             ",
"        @%&&&&&&&&&&&&&&&&&&&&&&&&&&&&&&&&&&&&&&&&UV            ",
"         @%&&&&&&&&&&&&&&&&&&&&&&&&&&&&&&&&&&&&&&&&WX           ",
"          @%&&&&&&&&&&&&&&&&&&&&&&&&&&&&&&&&&&&&&&&&Y~          ",
"           @%&&&&&&&&&&&&&&&&&&&&&&&&&&&&&&&&&&&&&&%@           ",
"            @%&&&&&&&&&&&&&&&&&&&&&&&&&&&&&&&&&&&&%@            ",
"             +*&&&&&&&&&&&&&&&&&&&&&&&&&&&&&&&&&&*+             ",
"              .#%&&&&&&&&&&&&&&&&&&&&&&&&&&&&&&%#.              ",
"                +*&&&&&&&&&&&&&&&&&&&&&&&&&&&&*+                ",
"                  +*&&&&&&&&&&&&&&&&&&&&&&&&*+                  ",
"                    +$%&&&&&&&&&&&&&&&&&&%$+                    ",
"                      .@$%&&&&&&&&&&&&%$@.                      ",
"                           .+@####@+.                           ",
"                                                                ",
"                                                                "};
