/* XPM */
static char * pacman_d_01_xpm[] = {
"64 64 103 2",
"  	c #000000",
". 	c #636300",
"+ 	c #898900",
"@ 	c #A5A500",
"# 	c #BCBC00",
"$ 	c #CFCF00",
"% 	c #E1E100",
"& 	c #F0F000",
"* 	c #FFFF00",
"= 	c #FFFFB1",
"- 	c #FFFFE1",
"; 	c #FFFFF8",
"> 	c #FFFFFF",
", 	c #E7E700",
"' 	c #EFEFEF",
") 	c #DADADA",
"! 	c #E8E8E8",
"~ 	c #FBFBFB",
"{ 	c #AAAA00",
"] 	c #868686",
"^ 	c #464646",
"/ 	c #6B6B6B",
"( 	c #D8D8D8",
"_ 	c #F8F800",
": 	c #383800",
"< 	c #353500",
"[ 	c #F5F500",
"} 	c #A9A9A9",
"| 	c #7F7F7F",
"1 	c #F1F1F1",
"2 	c #C6C600",
"3 	c #C1C100",
"4 	c #838383",
"5 	c #5E5E5E",
"6 	c #ECECE5",
"7 	c #FEFE00",
"8 	c #656500",
"9 	c #606000",
"0 	c #C7C7AF",
"a 	c #A7A793",
"b 	c #F7F7AB",
"c 	c #DEDE00",
"d 	c #DADA00",
"e 	c #C7C78A",
"f 	c #88885D",
"g 	c #B9B97F",
"h 	c #F7F700",
"i 	c #949400",
"j 	c #8D8D00",
"k 	c #EEEE00",
"l 	c #0D0D00",
"m 	c #E9E900",
"n 	c #B6B600",
"o 	c #FBFB00",
"p 	c #4B4B00",
"q 	c #D0D000",
"r 	c #777700",
"s 	c #A3A300",
"t 	c #262600",
"u 	c #AFAF00",
"v 	c #D3D300",
"w 	c #3D3D00",
"x 	c #F9F900",
"y 	c #7F7F00",
"z 	c #CBCB00",
"A 	c #D2D200",
"B 	c #717100",
"C 	c #F4F400",
"D 	c #EDED00",
"E 	c #F2F200",
"F 	c #FCFC00",
"G 	c #9C9C00",
"H 	c #FDFD00",
"I 	c #E5E500",
"J 	c #FAFA00",
"K 	c #1C1C00",
"L 	c #EFEF00",
"M 	c #D4D400",
"N 	c #616100",
"O 	c #ECEC00",
"P 	c #5C5C00",
"Q 	c #C3C300",
"R 	c #737300",
"S 	c #BDBD00",
"T 	c #808000",
"U 	c #DFDF00",
"V 	c #E3E300",
"W 	c #D9D900",
"X 	c #707000",
"Y 	c #525200",
"Z 	c #C4C400",
"` 	c #757500",
" .	c #B3B300",
"..	c #474700",
"+.	c #9B9B00",
"@.	c #F3F300",
"#.	c #222200",
"$.	c #9E9E00",
"%.	c #929200",
"&.	c #D7D700",
"*.	c #B4B400",
"=.	c #575700",
"-.	c #1D1D00",
"                                                                                                                                ",
"                                                        . . + + + + + . .                                                       ",
"                                              . + @ # # $ $ % % % % % $ $ # # @ + .                                             ",
"                                          + @ $ % & * * * * * * * * * * * * * & % $ @ +                                         ",
"                                      + # % & * * * * * * * * * * * * * * * * * * * & % # +                                     ",
"                                  + # % * * * * * * * * * * * * * * * * * * * * * * * * * % # +                                 ",
"                              . @ % * * * * * * * * * * * * * * * * * * * * * * * * * * * * * % @ .                             ",
"                            + $ & * * * * * * * * * * * * * * * * * * * * * * * * * * * * * * * & $ +                           ",
"                          @ % * * * * * * * * * * * * * * * * * * * * * * * * * * * * * * * * * * * % @                         ",
"                        @ & * * * * * * * * * * * * * * * * * * * * * * * * * * * * * * * * * * * * * & @                       ",
"                      @ & * * * * * * * * * * * * * * * * * * * * * * * * * * * * * * * * * * * * * * * & @                     ",
"                    @ & * * * * * * * * * * * * * * * * * * * * * * * * * * * * * * * * * * * * * * * * * & @                   ",
"                  @ & * * * * * * * * * * * * * * * * * * * * * * * * * * * * * * * * * * * * * * * * * * * & @                 ",
"                + & * * * * * * * * * * * * * * * * * * * * * * * * * * * * * * * * * * * * * * * * * * * * * & +               ",
"              . % * * * * * * * * * * * * * * * * * * * * * * * * * * * * * * * * * * * * * * * * * * * * * * * % .             ",
"              # * * * * * * * * * * * * * * * * * * * * * * * * * * * * * * * * * * * * * * * * * * * * * * * * * #             ",
"            + & * * * * * * * * * * * * * * * * * * * * * * * * * * * * * * * * * * * * * * * * * * * * * * * * * & +           ",
"            % * * * * * * * * * * * * * * * * * * * * * * * * * * * * * * * * * * * * * * * * * * * * * * * * * * * %           ",
"          + * * * * * * * * * * * * * * * * * * * * * * * * * * * * * * * * * * * * * * * * * * * * * * * * * * * * * +         ",
"          % * * * * * * * * * * * * * * * * * * * * * * * * * * * * * * * * * * * * * * * * * * * * * * * * * * * * * %         ",
"        + * * * * * * * * * * * * * * * * * * * * * * * * * * * * * * * * * * * * * * * * * * * * * * * * * * * * * * * +       ",
"        $ * * * * * * * * * * * * * * * * * * * * * * * * * * * * * * * * * * * * * * * * * * * * * * * * * * * * * * * $       ",
"      . & * * * * * * * * * * * * * * * * * * * * * * * * * * * * * * * * * * * * * * * * * * * * * * * * * * * * * * * & .     ",
"      @ * * * * * * * * * * * * * * * * * * * * * * * * * * * * * * * * * * * * * * * * * * * * * * * * * * * * * * * * * @     ",
"      $ * * * * * * * * * * * * * * * * * * * * * * * * * * * * * * * * * * * * * * * * * * * * * * * * * * * * * * * * * $     ",
"      & * * * * * * * * * * * * * * * * * * * * * * * * * * * * * * * * * * * * * * * * * * * * * * * * * * * * * * * * * &     ",
"      * * * * * * * * * * * * * * * * * * * * * * * * * * * * * * * * * * * * * * * * * * * * * * = = = * * * * * * * * * *     ",
"    . * * * * * * * * * * * * * * * * * * * * * * * * * * * * * * * * * * * * * * * * * * * * = - ; ; ; - = * * * * * * * * .   ",
"    + * * * * * * * * * * * * * * * * * * * * * * * * * * * * * * * * * * * * * * * * * * * = ; > > > > > ; = * * * * * * * +   ",
"    @ * * * * * * * * * * * * * * * * * * * * * * * * * * * * * * * * * * * * * * * * * * * ; > > > > > > > ; * * * * * * * @   ",
"    # * * * * * * * * * * * * * * * * * * * * * * * * * * * * * * * * * * * * * * * * * * = > > > > > > > > > = * * * * * * #   ",
"    # * * * * * * * * * * * * * * * * * * * * * * * * * * * * * * * * * * * * * * * * * * - > > > > > > > > > - * * * * * * #   ",
"    # * * * * * * * * * * * * * * * * * * * * * * * * * * * * * , , * * * * * * * * * * * - > > > ' ) ! ~ > > - * * * * * * #   ",
"    # * * * * * * * * * * * * * * * * * * * * * * * * * * * * * { { * * * * * * * * * * * = > > ' ] ^ / ( ~ > = * * * * * * #   ",
"    @ * * * * * * * * * * * * * * * * * * * * * * * * * * * * _ : < [ * * * * * * * * * * * ; > }       | 1 ; * * * * * * * @   ",
"    + * * * * * * * * * * * * * * * * * * * * * * * * * * * * 2     3 * * * * * * * * * * * = ; 4       5 6 = * * * * * * * +   ",
"    . * * * * * * * * * * * * * * * * * * * * * * * * * * * 7 8     9 7 * * * * * * * * * * * = 0       a b * * * * * * * * .   ",
"      * * * * * * * * * * * * * * * * * * * * * * * * * * * c         d * * * * * * * * * * * * * e f g h * * * * * * * * *     ",
"      & * * * * * * * * * * * * * * * * * * * * * * * * * * i         j * * * * * * * * * * * * * * * * * * * * * * * * * &     ",
"      $ * * * * * * * * * * * * * * * * * * * * * * * * * k l           m * * * * * * * * * * * * * * * * * * * * * * * * $     ",
"      @ * * * * * * * * * * * * * * * * * * * * * * * * * n             { * * * * * * * * * * * * * * * * * * * * * * * * @     ",
"      . & * * * * * * * * * * * * * * * * * * * * * * * o p             : _ * * * * * * * * * * * * * * * * * * * * * * & .     ",
"        $ * * * * * * * * * * * * * * * * * * * * * * * q                 2 * * * * * * * * * * * * * * * * * * * * * * $       ",
"        + * * * * * * * * * * * * * * * * * * * * * * * r                 . 7 * * * * * * * * * * * * * * * * * * * * * +       ",
"          % * * * * * * * * * * * * * * * * * * * * * ,                     c * * * * * * * * * * * * * * * * * * * * %         ",
"          + * * * * * * * * * * * * * * * * * * * * * s                     i * * * * * * * * * * * * * * * * * * * * +         ",
"            % * * * * * * * * * * * * * * * * * * * [ t                     l k * * * * * * * * * * * * * * * * * * %           ",
"            + _ * * * * * * * * * * * * * * * * * * 3                         u * * * * * * * * * * * * * * * * * & +           ",
"              v * * * * * * * * * * * * * * * * * 7 9                         w x * * * * * * * * * * * * * * * * #             ",
"              y o * * * * * * * * * * * * * * * * d                             z * * * * * * * * * * * * * * * % .             ",
"                A * * * * * * * * * * * * * * * * j                             B 7 * * * * * * * * * * * * * & +               ",
"                  C * * * * * * * * * * * * * * D l                               c * * * * * * * * * * * * E @                 ",
"                    F * * * * * * * * * * * * * u                                 G * * * * * * * * * * H I @                   ",
"                      J * * * * * * * * * * * x w                                 K L * * * * * * * * * M N                     ",
"                        O 7 * * * * * * * * * z                                     n * * * * * * * * M P                       ",
"                          Q x * * * * * * * * R                                     p J * * * * * x S P                         ",
"                            T U 7 * * * * * V                                         z * * * 7 W X                             ",
"                              Y Z _ * * * * G                                         ` * * h  ...                              ",
"                                Y +.d J * @.#.                                          c U $...                                ",
"                                    Y %.&.*.                                            =...                                    ",
"                                        w -.                                                                                    ",
"                                                                                                                                ",
"                                                                                                                                ",
"                                                                                                                                "};
