/* XPM */
static char * pacman_r_01_xpm[] = {
"64 64 103 2",
"  	c #000000",
". 	c #636300",
"+ 	c #898900",
"@ 	c #A5A500",
"# 	c #BCBC00",
"$ 	c #CFCF00",
"% 	c #F0F000",
"& 	c #FFFF00",
"* 	c #E1E100",
"= 	c #FFFFB1",
"- 	c #FFFFE1",
"; 	c #FFFFF8",
"> 	c #FFFFFF",
", 	c #F2F200",
"' 	c #FBFBFB",
") 	c #F1F1F1",
"! 	c #ECECE5",
"~ 	c #F7F7AB",
"{ 	c #E5E500",
"] 	c #616100",
"^ 	c #D8D8D8",
"/ 	c #7F7F7F",
"( 	c #5E5E5E",
"_ 	c #A7A793",
": 	c #F7F700",
"< 	c #FDFD00",
"[ 	c #D4D400",
"} 	c #5C5C00",
"| 	c #E8E8E8",
"1 	c #6B6B6B",
"2 	c #B9B97F",
"3 	c #DADADA",
"4 	c #464646",
"5 	c #88885D",
"6 	c #BDBD00",
"7 	c #EFEFEF",
"8 	c #868686",
"9 	c #C7C78A",
"0 	c #F9F900",
"a 	c #707000",
"b 	c #A9A9A9",
"c 	c #838383",
"d 	c #C7C7AF",
"e 	c #D9D900",
"f 	c #474700",
"g 	c #FEFE00",
"h 	c #B3B300",
"i 	c #9E9E00",
"j 	c #DFDF00",
"k 	c #DEDE00",
"l 	c #575700",
"m 	c #FAFA00",
"n 	c #CBCB00",
"o 	c #757500",
"p 	c #EFEF00",
"q 	c #B6B600",
"r 	c #4B4B00",
"s 	c #9C9C00",
"t 	c #1C1C00",
"u 	c #717100",
"v 	c #EEEE00",
"w 	c #AFAF00",
"x 	c #3D3D00",
"y 	c #949400",
"z 	c #0D0D00",
"A 	c #F8F800",
"B 	c #C6C600",
"C 	c #E9E900",
"D 	c #AAAA00",
"E 	c #383800",
"F 	c #DADA00",
"G 	c #8D8D00",
"H 	c #F5F500",
"I 	c #C1C100",
"J 	c #606000",
"K 	c #E7E700",
"L 	c #353500",
"M 	c #656500",
"N 	c #FBFB00",
"O 	c #D0D000",
"P 	c #777700",
"Q 	c #A3A300",
"R 	c #262600",
"S 	c #EDED00",
"T 	c #737300",
"U 	c #E3E300",
"V 	c #222200",
"W 	c #F3F300",
"X 	c #B4B400",
"Y 	c #1D1D00",
"Z 	c #D7D700",
"` 	c #929200",
" .	c #525200",
"..	c #9B9B00",
"+.	c #C4C400",
"@.	c #808000",
"#.	c #C3C300",
"$.	c #ECEC00",
"%.	c #FCFC00",
"&.	c #F4F400",
"*.	c #D2D200",
"=.	c #D3D300",
"-.	c #7F7F00",
"                                                                                                                                ",
"                                                      . + @ # # # # @ + .                                                       ",
"                                            . @ $ % & & & & & & & & & & & & % $ @ .                                             ",
"                                        + $ % & & & & & & & & & & & & & & & & & & % $ +                                         ",
"                                    + * & & & & & & & & & & & & & & & & & & & & & & & & * +                                     ",
"                                + * & & & & & & & & & & & & & & & & & & & & & & & & & & & & * +                                 ",
"                            . # % & & & & & & & & & & & & & & & & & & & & & & & & & & & & & & % # .                             ",
"                          + * & & & & & & & & & & & & & & & & & & & & & & & & & & & & & & & & & & * +                           ",
"                        @ % & & & & & & & & & & & & & & & & = - - = & & & & & & & & & & & & & & & & % @                         ",
"                      @ % & & & & & & & & & & & & & & & = ; > > > > ; = & & & & & & & & & & & & & & & , @                       ",
"                    @ % & & & & & & & & & & & & & & & = ; > > > > ' ) ! ~ & & & & & & & & & & & & & & & { ]                     ",
"                  @ % & & & & & & & & & & & & & & & & - > > > > ' ^ / ( _ : & & & & & & & & & & & & & & < [ }                   ",
"                @ % & & & & & & & & & & & & & & & & = ; > > > > | 1       2 & & & & & & & & & & & & & & & & [ }                 ",
"              + * & & & & & & & & & & & & & & & & & = ; > > > > 3 4       5 & & & & & & & & & & & & & & & & & 6                 ",
"            . $ & & & & & & & & & & & & & & & & & & = ; > > > > 7 8       9 & & & & & & & & & & & & & & & & & 0 a               ",
"            @ % & & & & & & & & & & & & & & & & & & & - > > > > > 7 b c d & & & & & & & & & & & & & & & & & & & e f             ",
"          + * & & & & & & & & & & & & & & & & & & & & = ; > > > > > > ; = & & & & & & & & & & & & & & & & & & & g h f           ",
"          # & & & & & & & & & & & & & & & & & & & & & & = ; > > > > ; = & & & & & & & & & & & & & & & & & & & & & : i           ",
"        + * & & & & & & & & & & & & & & & & & & & & & & & & = - - = & & & & & & & & & & & & & & & & & & & & & & & & j f         ",
"        # & & & & & & & & & & & & & & & & & & & & & & & & & & & & & & & & & & & & & & & & & & & & & & & & & & & & & k l         ",
"      + * & & & & & & & & & & & & & & & & & & & & & & & & & & & & & & & & & & & & & & & & & & & & & & & & & & m n o             ",
"      @ % & & & & & & & & & & & & & & & & & & & & & & & & & & & & & & & & & & & & & & & & & & & & & & & & p q r                 ",
"    . $ & & & & & & & & & & & & & & & & & & & & & & & & & & & & & & & & & & & & & & & & & & & & & & g k s t                     ",
"    + * & & & & & & & & & & & & & & & & & & & & & & & & & & & & & & & & & & & & & & & & & & & & 0 n u                           ",
"    @ % & & & & & & & & & & & & & & & & & & & & & & & & & & & & & & & & & & & & & & & & & & v w x                               ",
"    # & & & & & & & & & & & & & & & & & & & & & & & & & & & & & & & & & & & & & & & & g k y z                                   ",
"    # & & & & & & & & & & & & & & & & & & & & & & & & & & & & & & & & & & & & & & A B .                                         ",
"  . $ & & & & & & & & & & & & & & & & & & & & & & & & & & & & & & & & & & & & C D E                                             ",
"  . $ & & & & & & & & & & & & & & & & & & & & & & & & & & & & & & & & & g F G                                                   ",
"  + * & & & & & & & & & & & & & & & & & & & & & & & & & & & & & & & H I J                                                       ",
"  + * & & & & & & & & & & & & & & & & & & & & & & & & & & & & & K D L                                                           ",
"  + * & & & & & & & & & & & & & & & & & & & & & & & & & & & & & K D E                                                           ",
"  + * & & & & & & & & & & & & & & & & & & & & & & & & & & & & & & & A B M                                                       ",
"  + * & & & & & & & & & & & & & & & & & & & & & & & & & & & & & & & & & g k y z                                                 ",
"  . $ & & & & & & & & & & & & & & & & & & & & & & & & & & & & & & & & & & & & v q r                                             ",
"  . $ & & & & & & & & & & & & & & & & & & & & & & & & & & & & & & & & & & & & & & N O P                                         ",
"    # & & & & & & & & & & & & & & & & & & & & & & & & & & & & & & & & & & & & & & & & & K Q R                                   ",
"    # & & & & & & & & & & & & & & & & & & & & & & & & & & & & & & & & & & & & & & & & & & & H I J                               ",
"    @ % & & & & & & & & & & & & & & & & & & & & & & & & & & & & & & & & & & & & & & & & & & & & g F G z                         ",
"    + * & & & & & & & & & & & & & & & & & & & & & & & & & & & & & & & & & & & & & & & & & & & & & & & S w x                     ",
"    . $ & & & & & & & & & & & & & & & & & & & & & & & & & & & & & & & & & & & & & & & & & & & & & & & & & 0 n T                 ",
"      @ % & & & & & & & & & & & & & & & & & & & & & & & & & & & & & & & & & & & & & & & & & & & & & & & & & & & U s V           ",
"      + * & & & & & & & & & & & & & & & & & & & & & & & & & & & & & & & & & & & & & & & & & & & & & & & & & & & & & W X Y       ",
"        # & & & & & & & & & & & & & & & & & & & & & & & & & & & & & & & & & & & & & & & & & & & & & & & & & & & & & & Z x       ",
"        + * & & & & & & & & & & & & & & & & & & & & & & & & & & & & & & & & & & & & & & & & & & & & & & & & & & & & m `         ",
"          # & & & & & & & & & & & & & & & & & & & & & & & & & & & & & & & & & & & & & & & & & & & & & & & & & & & & F  .        ",
"          + * & & & & & & & & & & & & & & & & & & & & & & & & & & & & & & & & & & & & & & & & & & & & & & & & & & A ..          ",
"            @ % & & & & & & & & & & & & & & & & & & & & & & & & & & & & & & & & & & & & & & & & & & & & & & & & g +. .          ",
"            . $ & & & & & & & & & & & & & & & & & & & & & & & & & & & & & & & & & & & & & & & & & & & & & & & & j  .            ",
"              + * & & & & & & & & & & & & & & & & & & & & & & & & & & & & & & & & & & & & & & & & & & & & & & 0 @.              ",
"                @ % & & & & & & & & & & & & & & & & & & & & & & & & & & & & & & & & & & & & & & & & & & & & g #.                ",
"                  @ % & & & & & & & & & & & & & & & & & & & & & & & & & & & & & & & & & & & & & & & & & & & $.                  ",
"                    @ % & & & & & & & & & & & & & & & & & & & & & & & & & & & & & & & & & & & & & & & & & m                     ",
"                      @ % & & & & & & & & & & & & & & & & & & & & & & & & & & & & & & & & & & & & & & & %.                      ",
"                        @ % & & & & & & & & & & & & & & & & & & & & & & & & & & & & & & & & & & & & & &.                        ",
"                          + * & & & & & & & & & & & & & & & & & & & & & & & & & & & & & & & & & & N *.                          ",
"                            . # % & & & & & & & & & & & & & & & & & & & & & & & & & & & & & & A =.-.                            ",
"                                + * & & & & & & & & & & & & & & & & & & & & & & & & & & & & * +                                 ",
"                                    + * & & & & & & & & & & & & & & & & & & & & & & & & * +                                     ",
"                                        + $ % & & & & & & & & & & & & & & & & & & % $ +                                         ",
"                                            . @ $ % & & & & & & & & & & & & % $ @ .                                             ",
"                                                      . + @ # # # # @ + .                                                       ",
"                                                                                                                                ",
"                                                                                                                                "};
