/* XPM */
static char * pacman_u_02_xpm[] = {
"64 64 83 1",
" 	c #000000",
".	c #3A3A00",
"+	c #555500",
"@	c #696900",
"#	c #6B6B00",
"$	c #898900",
"%	c #ACAC00",
"&	c #CCCC00",
"*	c #E1E100",
"=	c #F0F000",
"-	c #F6F600",
";	c #F8F800",
">	c #F3F300",
",	c #E6E600",
"'	c #C4C400",
")	c #959500",
"!	c #585800",
"~	c #3E3E00",
"{	c #828200",
"]	c #BCBC00",
"^	c #E5E500",
"/	c #F9F900",
"(	c #FEFE00",
"_	c #FFFF00",
":	c #EEEE00",
"<	c #CBCB00",
"[	c #A9A900",
"}	c #474700",
"|	c #929200",
"1	c #D0D000",
"2	c #D7D700",
"3	c #525200",
"4	c #9E9E00",
"5	c #DFDF00",
"6	c #FAFA00",
"7	c #DADA00",
"8	c #9B9B00",
"9	c #B3B300",
"0	c #F7F700",
"a	c #707000",
"b	c #D9D900",
"c	c #808000",
"d	c #5C5C00",
"e	c #BDBD00",
"f	c #C3C300",
"g	c #D4D400",
"h	c #ECEC00",
"i	c #616100",
"j	c #A5A500",
"k	c #FDFD00",
"l	c #FCFC00",
"m	c #F2F200",
"n	c #F4F400",
"o	c #D2D200",
"p	c #636300",
"q	c #FBFB00",
"r	c #7F7F00",
"s	c #D3D300",
"t	c #CFCF00",
"u	c #B9B97F",
"v	c #88885D",
"w	c #C7C78A",
"x	c #F7F7AB",
"y	c #A7A793",
"z	c #C7C7AF",
"A	c #FFFFB1",
"B	c #ECECE5",
"C	c #5E5E5E",
"D	c #838383",
"E	c #FFFFF8",
"F	c #F1F1F1",
"G	c #7F7F7F",
"H	c #A9A9A9",
"I	c #FFFFFF",
"J	c #FBFBFB",
"K	c #D8D8D8",
"L	c #6B6B6B",
"M	c #464646",
"N	c #868686",
"O	c #EFEFEF",
"P	c #FFFFE1",
"Q	c #E8E8E8",
"R	c #DADADA",
"                                                                ",
"                                                                ",
"                       .+@#$%&*=-;>,')##!~                      ",
"                     .{]^/((_________(/:<[#~                    ",
"                  }|1>(___________________-2|3                  ",
"                }456________________________6783                ",
"               }90____________________________;'3               ",
"              ab(______________________________(5c              ",
"            de/__________________________________/f             ",
"           dg_____________________________________(h            ",
"          ig________________________________________6           ",
"         j^k_________________________________________l          ",
"        jm____________________________________________n         ",
"       $=______________________________________________o        ",
"      p*_______________________________________________qr       ",
"      ]_________________________________________________s       ",
"     $=_________________________________________________;$      ",
"     *___________________________________________________*      ",
"    $_____________________________________________________$     ",
"    *_____________________________________________________*     ",
"   $_______________________________________________________$    ",
"   t_______________________________________________________t    ",
"  p=_______________________________________________________=p   ",
"  j_________________________________________________________j   ",
"  t_________________________________________________________t   ",
"  =_________________________________________________________=   ",
"  _________0uvw______________________________________________   ",
" p________xy   zA____________________________________________p  ",
" $_______ABC   DEA___________________________________________$  ",
" j_______EFG   HIE___________________________________________j  ",
" ]______AIJKLMNOIIA__________________________________________]  ",
" ]______PIIJQROIIIP__________________________________________]  ",
" ]______PIIIIIIIIIP__________________________________________]  ",
" ]______AIIIIIIIIIA__________________________________________]  ",
" j_______EIIIIIIIE___________________________________________j  ",
" $_______AEIIIIIEA___________________________________________$  ",
" p________APEEEPA____________________________________________p  ",
"  __________AAA______________________________________________   ",
"  =_________________________________________________________=   ",
"  t_________________________________________________________t   ",
"  j_________________________________________________________j   ",
"  p=_______________________________________________________=p   ",
"   t_______________________________________________________t    ",
"   $_______________________________________________________$    ",
"    *_____________________________________________________*     ",
"    $_____________________________________________________$     ",
"     *___________________________________________________*      ",
"     $=_________________________________________________=$      ",
"      ]_________________________________________________]       ",
"      p*_______________________________________________*p       ",
"       $=_____________________________________________=$        ",
"        j=___________________________________________=j         ",
"         j=_________________________________________=j          ",
"          j=_______________________________________=j           ",
"           j=_____________________________________=j            ",
"            j*___________________________________*j             ",
"             $t=_______________________________=t$              ",
"              pj*_____________________________*jp               ",
"                $]*_________________________*]$                 ",
"                  $]*=___________________=*]$                   ",
"                    $jt*=_____________=*tj$                     ",
"                      p$j]]tt*****tt]]j$p                       ",
"                           pp$$$$$pp                            ",
"                                                                "};
