/* XPM */
static char * pacman_l_01_xpm[] = {
"64 64 103 2",
"  	c #000000",
". 	c #636300",
"+ 	c #898900",
"@ 	c #A5A500",
"# 	c #BCBC00",
"$ 	c #CFCF00",
"% 	c #F0F000",
"& 	c #FFFF00",
"* 	c #E1E100",
"= 	c #FFFFB1",
"- 	c #FFFFE1",
"; 	c #F2F200",
"> 	c #FFFFF8",
", 	c #FFFFFF",
"' 	c #616100",
") 	c #E5E500",
"! 	c #F7F7AB",
"~ 	c #ECECE5",
"{ 	c #F1F1F1",
"] 	c #FBFBFB",
"^ 	c #5C5C00",
"/ 	c #D4D400",
"( 	c #FDFD00",
"_ 	c #F7F700",
": 	c #A7A793",
"< 	c #5E5E5E",
"[ 	c #7F7F7F",
"} 	c #D8D8D8",
"| 	c #B9B97F",
"1 	c #6B6B6B",
"2 	c #E8E8E8",
"3 	c #BDBD00",
"4 	c #88885D",
"5 	c #464646",
"6 	c #DADADA",
"7 	c #707000",
"8 	c #F9F900",
"9 	c #C7C78A",
"0 	c #868686",
"a 	c #EFEFEF",
"b 	c #474700",
"c 	c #D9D900",
"d 	c #C7C7AF",
"e 	c #838383",
"f 	c #A9A9A9",
"g 	c #B3B300",
"h 	c #FEFE00",
"i 	c #9E9E00",
"j 	c #DFDF00",
"k 	c #575700",
"l 	c #DEDE00",
"m 	c #757500",
"n 	c #CBCB00",
"o 	c #FAFA00",
"p 	c #4B4B00",
"q 	c #B6B600",
"r 	c #EFEF00",
"s 	c #1C1C00",
"t 	c #9C9C00",
"u 	c #717100",
"v 	c #3D3D00",
"w 	c #AFAF00",
"x 	c #EEEE00",
"y 	c #0D0D00",
"z 	c #949400",
"A 	c #C6C600",
"B 	c #F8F800",
"C 	c #383800",
"D 	c #AAAA00",
"E 	c #E9E900",
"F 	c #8D8D00",
"G 	c #DADA00",
"H 	c #606000",
"I 	c #C1C100",
"J 	c #F5F500",
"K 	c #353500",
"L 	c #E7E700",
"M 	c #656500",
"N 	c #777700",
"O 	c #D0D000",
"P 	c #FBFB00",
"Q 	c #262600",
"R 	c #A3A300",
"S 	c #EDED00",
"T 	c #737300",
"U 	c #222200",
"V 	c #E3E300",
"W 	c #1D1D00",
"X 	c #B4B400",
"Y 	c #F3F300",
"Z 	c #D7D700",
"` 	c #929200",
" .	c #525200",
"..	c #9B9B00",
"+.	c #C4C400",
"@.	c #808000",
"#.	c #C3C300",
"$.	c #ECEC00",
"%.	c #FCFC00",
"&.	c #F4F400",
"*.	c #D2D200",
"=.	c #7F7F00",
"-.	c #D3D300",
"                                                                                                                                ",
"                                                      . + @ # # # # @ + .                                                       ",
"                                            . @ $ % & & & & & & & & & & & & % $ @ .                                             ",
"                                        + $ % & & & & & & & & & & & & & & & & & & % $ +                                         ",
"                                    + * & & & & & & & & & & & & & & & & & & & & & & & & * +                                     ",
"                                + * & & & & & & & & & & & & & & & & & & & & & & & & & & & & * +                                 ",
"                            . # % & & & & & & & & & & & & & & & & & & & & & & & & & & & & & & % # .                             ",
"                          + * & & & & & & & & & & & & & & & & & & & & & & & & & & & & & & & & & & * +                           ",
"                        @ % & & & & & & & & & & & & & & & & = - - = & & & & & & & & & & & & & & & & % @                         ",
"                      @ ; & & & & & & & & & & & & & & & = > , , , , > = & & & & & & & & & & & & & & & % @                       ",
"                    ' ) & & & & & & & & & & & & & & & ! ~ { ] , , , , > = & & & & & & & & & & & & & & & % @                     ",
"                  ^ / ( & & & & & & & & & & & & & & _ : < [ } ] , , , , - & & & & & & & & & & & & & & & & % @                   ",
"                ^ / & & & & & & & & & & & & & & & & |       1 2 , , , , > = & & & & & & & & & & & & & & & & % @                 ",
"                3 & & & & & & & & & & & & & & & & & 4       5 6 , , , , > = & & & & & & & & & & & & & & & & & * +               ",
"              7 8 & & & & & & & & & & & & & & & & & 9       0 a , , , , > = & & & & & & & & & & & & & & & & & & $ .             ",
"            b c & & & & & & & & & & & & & & & & & & & d e f a , , , , , - & & & & & & & & & & & & & & & & & & & % @             ",
"          b g h & & & & & & & & & & & & & & & & & & & = > , , , , , , > = & & & & & & & & & & & & & & & & & & & & * +           ",
"          i _ & & & & & & & & & & & & & & & & & & & & & = > , , , , > = & & & & & & & & & & & & & & & & & & & & & & #           ",
"        b j & & & & & & & & & & & & & & & & & & & & & & & & = - - = & & & & & & & & & & & & & & & & & & & & & & & & * +         ",
"        k l & & & & & & & & & & & & & & & & & & & & & & & & & & & & & & & & & & & & & & & & & & & & & & & & & & & & & #         ",
"            m n o & & & & & & & & & & & & & & & & & & & & & & & & & & & & & & & & & & & & & & & & & & & & & & & & & & * +       ",
"                p q r & & & & & & & & & & & & & & & & & & & & & & & & & & & & & & & & & & & & & & & & & & & & & & & & % @       ",
"                    s t l h & & & & & & & & & & & & & & & & & & & & & & & & & & & & & & & & & & & & & & & & & & & & & & $ .     ",
"                          u n 8 & & & & & & & & & & & & & & & & & & & & & & & & & & & & & & & & & & & & & & & & & & & & * +     ",
"                              v w x & & & & & & & & & & & & & & & & & & & & & & & & & & & & & & & & & & & & & & & & & & % @     ",
"                                  y z l h & & & & & & & & & & & & & & & & & & & & & & & & & & & & & & & & & & & & & & & & #     ",
"                                        . A B & & & & & & & & & & & & & & & & & & & & & & & & & & & & & & & & & & & & & & #     ",
"                                            C D E & & & & & & & & & & & & & & & & & & & & & & & & & & & & & & & & & & & & $ .   ",
"                                                  F G h & & & & & & & & & & & & & & & & & & & & & & & & & & & & & & & & & $ .   ",
"                                                      H I J & & & & & & & & & & & & & & & & & & & & & & & & & & & & & & & * +   ",
"                                                          K D L & & & & & & & & & & & & & & & & & & & & & & & & & & & & & * +   ",
"                                                          C D L & & & & & & & & & & & & & & & & & & & & & & & & & & & & & * +   ",
"                                                      M A B & & & & & & & & & & & & & & & & & & & & & & & & & & & & & & & * +   ",
"                                                y z l h & & & & & & & & & & & & & & & & & & & & & & & & & & & & & & & & & * +   ",
"                                            p q x & & & & & & & & & & & & & & & & & & & & & & & & & & & & & & & & & & & & $ .   ",
"                                        N O P & & & & & & & & & & & & & & & & & & & & & & & & & & & & & & & & & & & & & & $ .   ",
"                                  Q R L & & & & & & & & & & & & & & & & & & & & & & & & & & & & & & & & & & & & & & & & & #     ",
"                              H I J & & & & & & & & & & & & & & & & & & & & & & & & & & & & & & & & & & & & & & & & & & & #     ",
"                        y F G h & & & & & & & & & & & & & & & & & & & & & & & & & & & & & & & & & & & & & & & & & & & & % @     ",
"                    v w S & & & & & & & & & & & & & & & & & & & & & & & & & & & & & & & & & & & & & & & & & & & & & & & * +     ",
"                T n 8 & & & & & & & & & & & & & & & & & & & & & & & & & & & & & & & & & & & & & & & & & & & & & & & & & $ .     ",
"          U t V & & & & & & & & & & & & & & & & & & & & & & & & & & & & & & & & & & & & & & & & & & & & & & & & & & & % @       ",
"      W X Y & & & & & & & & & & & & & & & & & & & & & & & & & & & & & & & & & & & & & & & & & & & & & & & & & & & & & * +       ",
"      v Z & & & & & & & & & & & & & & & & & & & & & & & & & & & & & & & & & & & & & & & & & & & & & & & & & & & & & & #         ",
"        ` o & & & & & & & & & & & & & & & & & & & & & & & & & & & & & & & & & & & & & & & & & & & & & & & & & & & & * +         ",
"         .G & & & & & & & & & & & & & & & & & & & & & & & & & & & & & & & & & & & & & & & & & & & & & & & & & & & & #           ",
"          ..B & & & & & & & & & & & & & & & & & & & & & & & & & & & & & & & & & & & & & & & & & & & & & & & & & & * +           ",
"           .+.h & & & & & & & & & & & & & & & & & & & & & & & & & & & & & & & & & & & & & & & & & & & & & & & & % @             ",
"             .j & & & & & & & & & & & & & & & & & & & & & & & & & & & & & & & & & & & & & & & & & & & & & & & & $ .             ",
"              @.8 & & & & & & & & & & & & & & & & & & & & & & & & & & & & & & & & & & & & & & & & & & & & & & * +               ",
"                #.h & & & & & & & & & & & & & & & & & & & & & & & & & & & & & & & & & & & & & & & & & & & & % @                 ",
"                  $.& & & & & & & & & & & & & & & & & & & & & & & & & & & & & & & & & & & & & & & & & & & % @                   ",
"                    o & & & & & & & & & & & & & & & & & & & & & & & & & & & & & & & & & & & & & & & & & % @                     ",
"                      %.& & & & & & & & & & & & & & & & & & & & & & & & & & & & & & & & & & & & & & & % @                       ",
"                        &.& & & & & & & & & & & & & & & & & & & & & & & & & & & & & & & & & & & & & % @                         ",
"                          *.P & & & & & & & & & & & & & & & & & & & & & & & & & & & & & & & & & & * +                           ",
"                            =.-.B & & & & & & & & & & & & & & & & & & & & & & & & & & & & & & % # .                             ",
"                                + * & & & & & & & & & & & & & & & & & & & & & & & & & & & & * +                                 ",
"                                    + * & & & & & & & & & & & & & & & & & & & & & & & & * +                                     ",
"                                        + $ % & & & & & & & & & & & & & & & & & & % $ +                                         ",
"                                            . @ $ % & & & & & & & & & & & & % $ @ .                                             ",
"                                                      . + @ # # # # @ + .                                                       ",
"                                                                                                                                ",
"                                                                                                                                "};
