/* XPM */
static char * pacman_u_01_xpm[] = {
"64 64 103 2",
"  	c #000000",
". 	c #1D1D00",
"+ 	c #3D3D00",
"@ 	c #474700",
"# 	c #575700",
"$ 	c #B4B400",
"% 	c #D7D700",
"& 	c #929200",
"* 	c #525200",
"= 	c #9E9E00",
"- 	c #DFDF00",
"; 	c #DEDE00",
"> 	c #222200",
", 	c #F3F300",
"' 	c #FFFF00",
") 	c #FAFA00",
"! 	c #DADA00",
"~ 	c #9B9B00",
"{ 	c #B3B300",
"] 	c #F7F700",
"^ 	c #757500",
"/ 	c #9C9C00",
"( 	c #F8F800",
"_ 	c #C4C400",
": 	c #707000",
"< 	c #D9D900",
"[ 	c #FEFE00",
"} 	c #CBCB00",
"| 	c #E3E300",
"1 	c #808000",
"2 	c #5C5C00",
"3 	c #BDBD00",
"4 	c #F9F900",
"5 	c #4B4B00",
"6 	c #737300",
"7 	c #C3C300",
"8 	c #D4D400",
"9 	c #B6B600",
"0 	c #ECEC00",
"a 	c #616100",
"b 	c #EFEF00",
"c 	c #1C1C00",
"d 	c #A5A500",
"e 	c #E5E500",
"f 	c #FDFD00",
"g 	c #AFAF00",
"h 	c #FCFC00",
"i 	c #F2F200",
"j 	c #0D0D00",
"k 	c #EDED00",
"l 	c #F4F400",
"m 	c #898900",
"n 	c #F0F000",
"o 	c #717100",
"p 	c #8D8D00",
"q 	c #D2D200",
"r 	c #636300",
"s 	c #E1E100",
"t 	c #FBFB00",
"u 	c #7F7F00",
"v 	c #BCBC00",
"w 	c #606000",
"x 	c #D3D300",
"y 	c #C1C100",
"z 	c #EEEE00",
"A 	c #262600",
"B 	c #F5F500",
"C 	c #949400",
"D 	c #A3A300",
"E 	c #E7E700",
"F 	c #777700",
"G 	c #CFCF00",
"H 	c #C6C600",
"I 	c #D0D000",
"J 	c #383800",
"K 	c #AAAA00",
"L 	c #E9E900",
"M 	c #B9B97F",
"N 	c #88885D",
"O 	c #C7C78A",
"P 	c #F7F7AB",
"Q 	c #A7A793",
"R 	c #C7C7AF",
"S 	c #FFFFB1",
"T 	c #656500",
"U 	c #ECECE5",
"V 	c #5E5E5E",
"W 	c #838383",
"X 	c #FFFFF8",
"Y 	c #F1F1F1",
"Z 	c #7F7F7F",
"` 	c #A9A9A9",
" .	c #FFFFFF",
"..	c #353500",
"+.	c #FBFBFB",
"@.	c #D8D8D8",
"#.	c #6B6B6B",
"$.	c #464646",
"%.	c #868686",
"&.	c #EFEFEF",
"*.	c #FFFFE1",
"=.	c #E8E8E8",
"-.	c #DADADA",
"                                                                                                                                ",
"                                                                                                                                ",
"                                                                                                                                ",
"                                                                                    . +                                         ",
"                                    @ #                                             $ % & *                                     ",
"                                @ = - ;                                           > , ' ) ! ~ *                                 ",
"                              @ { ] ' ' ^                                         / ' ' ' ' ( _ *                               ",
"                            : < [ ' ' ' }                                         | ' ' ' ' ' [ - 1                             ",
"                        2 3 4 ' ' ' ' ' ) 5                                     6 ' ' ' ' ' ' ' ' 4 7                           ",
"                      2 8 ' ' ' ' ' ' ' ' 9                                     } ' ' ' ' ' ' ' ' ' [ 0                         ",
"                    a 8 ' ' ' ' ' ' ' ' ' b c                                 + 4 ' ' ' ' ' ' ' ' ' ' ' )                       ",
"                  d e f ' ' ' ' ' ' ' ' ' ' /                                 g ' ' ' ' ' ' ' ' ' ' ' ' ' h                     ",
"                d i ' ' ' ' ' ' ' ' ' ' ' ' ;                               j k ' ' ' ' ' ' ' ' ' ' ' ' ' ' l                   ",
"              m n ' ' ' ' ' ' ' ' ' ' ' ' ' [ o                             p ' ' ' ' ' ' ' ' ' ' ' ' ' ' ' ' q                 ",
"            r s ' ' ' ' ' ' ' ' ' ' ' ' ' ' ' }                             ! ' ' ' ' ' ' ' ' ' ' ' ' ' ' ' ' t u               ",
"            v ' ' ' ' ' ' ' ' ' ' ' ' ' ' ' ' 4 +                         w [ ' ' ' ' ' ' ' ' ' ' ' ' ' ' ' ' ' x               ",
"          m n ' ' ' ' ' ' ' ' ' ' ' ' ' ' ' ' ' g                         y ' ' ' ' ' ' ' ' ' ' ' ' ' ' ' ' ' ' ( m             ",
"          s ' ' ' ' ' ' ' ' ' ' ' ' ' ' ' ' ' ' z j                     A B ' ' ' ' ' ' ' ' ' ' ' ' ' ' ' ' ' ' ' s             ",
"        m ' ' ' ' ' ' ' ' ' ' ' ' ' ' ' ' ' ' ' ' C                     D ' ' ' ' ' ' ' ' ' ' ' ' ' ' ' ' ' ' ' ' ' m           ",
"        s ' ' ' ' ' ' ' ' ' ' ' ' ' ' ' ' ' ' ' ' ;                     E ' ' ' ' ' ' ' ' ' ' ' ' ' ' ' ' ' ' ' ' ' s           ",
"      m ' ' ' ' ' ' ' ' ' ' ' ' ' ' ' ' ' ' ' ' ' [ r                 F ' ' ' ' ' ' ' ' ' ' ' ' ' ' ' ' ' ' ' ' ' ' ' m         ",
"      G ' ' ' ' ' ' ' ' ' ' ' ' ' ' ' ' ' ' ' ' ' ' H                 I ' ' ' ' ' ' ' ' ' ' ' ' ' ' ' ' ' ' ' ' ' ' ' G         ",
"    r n ' ' ' ' ' ' ' ' ' ' ' ' ' ' ' ' ' ' ' ' ' ' ( J             5 t ' ' ' ' ' ' ' ' ' ' ' ' ' ' ' ' ' ' ' ' ' ' ' n r       ",
"    d ' ' ' ' ' ' ' ' ' ' ' ' ' ' ' ' ' ' ' ' ' ' ' ' K             9 ' ' ' ' ' ' ' ' ' ' ' ' ' ' ' ' ' ' ' ' ' ' ' ' ' d       ",
"    G ' ' ' ' ' ' ' ' ' ' ' ' ' ' ' ' ' ' ' ' ' ' ' ' L           j z ' ' ' ' ' ' ' ' ' ' ' ' ' ' ' ' ' ' ' ' ' ' ' ' ' G       ",
"    n ' ' ' ' ' ' ' ' ' ' ' ' ' ' ' ' ' ' ' ' ' ' ' ' ' p         C ' ' ' ' ' ' ' ' ' ' ' ' ' ' ' ' ' ' ' ' ' ' ' ' ' ' n       ",
"    ' ' ' ' ' ' ' ' ' ] M N O ' ' ' ' ' ' ' ' ' ' ' ' ' !         ; ' ' ' ' ' ' ' ' ' ' ' ' ' ' ' ' ' ' ' ' ' ' ' ' ' ' '       ",
"  r ' ' ' ' ' ' ' ' P Q       R S ' ' ' ' ' ' ' ' ' ' ' [ w     T [ ' ' ' ' ' ' ' ' ' ' ' ' ' ' ' ' ' ' ' ' ' ' ' ' ' ' ' r     ",
"  m ' ' ' ' ' ' ' S U V       W X S ' ' ' ' ' ' ' ' ' ' ' y     H ' ' ' ' ' ' ' ' ' ' ' ' ' ' ' ' ' ' ' ' ' ' ' ' ' ' ' ' m     ",
"  d ' ' ' ' ' ' ' X Y Z       `  .X ' ' ' ' ' ' ' ' ' ' ' B ..J ( ' ' ' ' ' ' ' ' ' ' ' ' ' ' ' ' ' ' ' ' ' ' ' ' ' ' ' ' d     ",
"  v ' ' ' ' ' ' S  .+.@.#.$.%.&. . .S ' ' ' ' ' ' ' ' ' ' ' K K ' ' ' ' ' ' ' ' ' ' ' ' ' ' ' ' ' ' ' ' ' ' ' ' ' ' ' ' ' v     ",
"  v ' ' ' ' ' ' *. . .+.=.-.&. . . .*.' ' ' ' ' ' ' ' ' ' ' E E ' ' ' ' ' ' ' ' ' ' ' ' ' ' ' ' ' ' ' ' ' ' ' ' ' ' ' ' ' v     ",
"  v ' ' ' ' ' ' *. . . . . . . . . .*.' ' ' ' ' ' ' ' ' ' ' ' ' ' ' ' ' ' ' ' ' ' ' ' ' ' ' ' ' ' ' ' ' ' ' ' ' ' ' ' ' ' v     ",
"  v ' ' ' ' ' ' S  . . . . . . . . .S ' ' ' ' ' ' ' ' ' ' ' ' ' ' ' ' ' ' ' ' ' ' ' ' ' ' ' ' ' ' ' ' ' ' ' ' ' ' ' ' ' ' v     ",
"  d ' ' ' ' ' ' ' X  . . . . . . .X ' ' ' ' ' ' ' ' ' ' ' ' ' ' ' ' ' ' ' ' ' ' ' ' ' ' ' ' ' ' ' ' ' ' ' ' ' ' ' ' ' ' ' d     ",
"  m ' ' ' ' ' ' ' S X  . . . . .X S ' ' ' ' ' ' ' ' ' ' ' ' ' ' ' ' ' ' ' ' ' ' ' ' ' ' ' ' ' ' ' ' ' ' ' ' ' ' ' ' ' ' ' m     ",
"  r ' ' ' ' ' ' ' ' S *.X X X *.S ' ' ' ' ' ' ' ' ' ' ' ' ' ' ' ' ' ' ' ' ' ' ' ' ' ' ' ' ' ' ' ' ' ' ' ' ' ' ' ' ' ' ' ' r     ",
"    ' ' ' ' ' ' ' ' ' ' S S S ' ' ' ' ' ' ' ' ' ' ' ' ' ' ' ' ' ' ' ' ' ' ' ' ' ' ' ' ' ' ' ' ' ' ' ' ' ' ' ' ' ' ' ' ' '       ",
"    n ' ' ' ' ' ' ' ' ' ' ' ' ' ' ' ' ' ' ' ' ' ' ' ' ' ' ' ' ' ' ' ' ' ' ' ' ' ' ' ' ' ' ' ' ' ' ' ' ' ' ' ' ' ' ' ' ' n       ",
"    G ' ' ' ' ' ' ' ' ' ' ' ' ' ' ' ' ' ' ' ' ' ' ' ' ' ' ' ' ' ' ' ' ' ' ' ' ' ' ' ' ' ' ' ' ' ' ' ' ' ' ' ' ' ' ' ' ' G       ",
"    d ' ' ' ' ' ' ' ' ' ' ' ' ' ' ' ' ' ' ' ' ' ' ' ' ' ' ' ' ' ' ' ' ' ' ' ' ' ' ' ' ' ' ' ' ' ' ' ' ' ' ' ' ' ' ' ' ' d       ",
"    r n ' ' ' ' ' ' ' ' ' ' ' ' ' ' ' ' ' ' ' ' ' ' ' ' ' ' ' ' ' ' ' ' ' ' ' ' ' ' ' ' ' ' ' ' ' ' ' ' ' ' ' ' ' ' ' n r       ",
"      G ' ' ' ' ' ' ' ' ' ' ' ' ' ' ' ' ' ' ' ' ' ' ' ' ' ' ' ' ' ' ' ' ' ' ' ' ' ' ' ' ' ' ' ' ' ' ' ' ' ' ' ' ' ' ' G         ",
"      m ' ' ' ' ' ' ' ' ' ' ' ' ' ' ' ' ' ' ' ' ' ' ' ' ' ' ' ' ' ' ' ' ' ' ' ' ' ' ' ' ' ' ' ' ' ' ' ' ' ' ' ' ' ' ' m         ",
"        s ' ' ' ' ' ' ' ' ' ' ' ' ' ' ' ' ' ' ' ' ' ' ' ' ' ' ' ' ' ' ' ' ' ' ' ' ' ' ' ' ' ' ' ' ' ' ' ' ' ' ' ' ' s           ",
"        m ' ' ' ' ' ' ' ' ' ' ' ' ' ' ' ' ' ' ' ' ' ' ' ' ' ' ' ' ' ' ' ' ' ' ' ' ' ' ' ' ' ' ' ' ' ' ' ' ' ' ' ' ' m           ",
"          s ' ' ' ' ' ' ' ' ' ' ' ' ' ' ' ' ' ' ' ' ' ' ' ' ' ' ' ' ' ' ' ' ' ' ' ' ' ' ' ' ' ' ' ' ' ' ' ' ' ' ' s             ",
"          m n ' ' ' ' ' ' ' ' ' ' ' ' ' ' ' ' ' ' ' ' ' ' ' ' ' ' ' ' ' ' ' ' ' ' ' ' ' ' ' ' ' ' ' ' ' ' ' ' ' n m             ",
"            v ' ' ' ' ' ' ' ' ' ' ' ' ' ' ' ' ' ' ' ' ' ' ' ' ' ' ' ' ' ' ' ' ' ' ' ' ' ' ' ' ' ' ' ' ' ' ' ' ' v               ",
"            r s ' ' ' ' ' ' ' ' ' ' ' ' ' ' ' ' ' ' ' ' ' ' ' ' ' ' ' ' ' ' ' ' ' ' ' ' ' ' ' ' ' ' ' ' ' ' ' s r               ",
"              m n ' ' ' ' ' ' ' ' ' ' ' ' ' ' ' ' ' ' ' ' ' ' ' ' ' ' ' ' ' ' ' ' ' ' ' ' ' ' ' ' ' ' ' ' ' n m                 ",
"                d n ' ' ' ' ' ' ' ' ' ' ' ' ' ' ' ' ' ' ' ' ' ' ' ' ' ' ' ' ' ' ' ' ' ' ' ' ' ' ' ' ' ' ' n d                   ",
"                  d n ' ' ' ' ' ' ' ' ' ' ' ' ' ' ' ' ' ' ' ' ' ' ' ' ' ' ' ' ' ' ' ' ' ' ' ' ' ' ' ' ' n d                     ",
"                    d n ' ' ' ' ' ' ' ' ' ' ' ' ' ' ' ' ' ' ' ' ' ' ' ' ' ' ' ' ' ' ' ' ' ' ' ' ' ' ' n d                       ",
"                      d n ' ' ' ' ' ' ' ' ' ' ' ' ' ' ' ' ' ' ' ' ' ' ' ' ' ' ' ' ' ' ' ' ' ' ' ' ' n d                         ",
"                        d s ' ' ' ' ' ' ' ' ' ' ' ' ' ' ' ' ' ' ' ' ' ' ' ' ' ' ' ' ' ' ' ' ' ' ' s d                           ",
"                          m G n ' ' ' ' ' ' ' ' ' ' ' ' ' ' ' ' ' ' ' ' ' ' ' ' ' ' ' ' ' ' ' n G m                             ",
"                            r d s ' ' ' ' ' ' ' ' ' ' ' ' ' ' ' ' ' ' ' ' ' ' ' ' ' ' ' ' ' s d r                               ",
"                                m v s ' ' ' ' ' ' ' ' ' ' ' ' ' ' ' ' ' ' ' ' ' ' ' ' ' s v m                                   ",
"                                    m v s n ' ' ' ' ' ' ' ' ' ' ' ' ' ' ' ' ' ' ' n s v m                                       ",
"                                        m d G s n ' ' ' ' ' ' ' ' ' ' ' ' ' n s G d m                                           ",
"                                            r m d v v G G s s s s s G G v v d m r                                               ",
"                                                      r r m m m m m r r                                                         ",
"                                                                                                                                "};
