/* XPM */
static char * point_01_xpm[] = {
"64 64 386 2",
"  	c #000000",
". 	c #000D00",
"+ 	c #001601",
"@ 	c #001C01",
"# 	c #002201",
"$ 	c #002E02",
"% 	c #003803",
"& 	c #003B03",
"* 	c #003202",
"= 	c #004504",
"- 	c #005307",
"; 	c #005A08",
"> 	c #005F09",
", 	c #00660A",
"' 	c #00730D",
") 	c #007D0F",
"! 	c #008110",
"~ 	c #003703",
"{ 	c #005807",
"] 	c #00710C",
"^ 	c #038513",
"/ 	c #089318",
"( 	c #059D18",
"_ 	c #02A118",
": 	c #009D16",
"< 	c #009313",
"[ 	c #008511",
"} 	c #00710D",
"| 	c #005507",
"1 	c #028E14",
"2 	c #25A52D",
"3 	c #39B43F",
"4 	c #2FBB38",
"5 	c #1CBD2A",
"6 	c #03B91D",
"7 	c #00B01A",
"8 	c #00A317",
"9 	c #008D12",
"0 	c #006F0C",
"a 	c #014C05",
"b 	c #002D02",
"c 	c #004905",
"d 	c #006E0C",
"e 	c #028C13",
"f 	c #1BA927",
"g 	c #5AC45E",
"h 	c #7AD47C",
"i 	c #71D875",
"j 	c #4FD655",
"k 	c #18D02A",
"l 	c #00C81F",
"m 	c #00BC1C",
"n 	c #00A718",
"o 	c #008811",
"p 	c #006109",
"q 	c #013D03",
"r 	c #002101",
"s 	c #003503",
"t 	c #028412",
"u 	c #20A42A",
"v 	c #4EC354",
"w 	c #90DD93",
"x 	c #ADEAAF",
"y 	c #A6ECA8",
"z 	c #80E984",
"A 	c #34E13F",
"B 	c #00DB22",
"C 	c #00D020",
"D 	c #00BD1C",
"E 	c #009D15",
"F 	c #014A05",
"G 	c #004705",
"H 	c #00720D",
"I 	c #11991E",
"J 	c #50BD56",
"K 	c #90DD92",
"L 	c #C2F0C4",
"M 	c #CBF6CC",
"N 	c #B2F5B4",
"O 	c #8CF290",
"P 	c #3EED4A",
"Q 	c #00E724",
"R 	c #00DE23",
"S 	c #00CF20",
"T 	c #01B11A",
"U 	c #018010",
"V 	c #015206",
"W 	c #004004",
"X 	c #002A02",
"Y 	c #008410",
"Z 	c #20AC2B",
"` 	c #73D276",
" .	c #B3ECB4",
"..	c #D3F7D4",
"+.	c #CCF9CD",
"@.	c #9EF8A1",
"#.	c #72F677",
"$.	c #2BF43C",
"%.	c #00EF27",
"&.	c #00E825",
"*.	c #00DC23",
"=.	c #00C01D",
"-.	c #018912",
";.	c #015907",
">.	c #013F03",
",.	c #002602",
"'.	c #21B92C",
").	c #72DB76",
"!.	c #ACF0AF",
"~.	c #C6F8C7",
"{.	c #AFFAB2",
"].	c #64FA6B",
"^.	c #37FA44",
"/.	c #0BF82C",
"(.	c #00F528",
"_.	c #00E525",
":.	c #00C91F",
"<.	c #018E12",
"[.	c #015F08",
"}.	c #014404",
"|.	c #009E16",
"1.	c #11C324",
"2.	c #50DF57",
"3.	c #7FEF83",
"4.	c #89F78D",
"5.	c #6FFA75",
"6.	c #27FC3A",
"7.	c #07FC2B",
"8.	c #01FC29",
"9.	c #00F929",
"0.	c #00F428",
"a.	c #00EA26",
"b.	c #00CC20",
"c.	c #018D13",
"d.	c #024403",
"e.	c #000D01",
"f.	c #004B05",
"g.	c #007A0E",
"h.	c #00A617",
"i.	c #02CA20",
"j.	c #20E332",
"k.	c #3DF048",
"l.	c #3BF748",
"m.	c #2BFB3D",
"n.	c #05FE2B",
"o.	c #00FE2A",
"p.	c #00FB29",
"q.	c #00F728",
"r.	c #00EE27",
"s.	c #018911",
"t.	c #015D08",
"u.	c #014403",
"v.	c #013402",
"w.	c #004F06",
"x.	c #008010",
"y.	c #00AD19",
"z.	c #02E526",
"A.	c #09F22A",
"B.	c #08F92B",
"C.	c #04FD2B",
"D.	c #00FF2A",
"E.	c #00FD2A",
"F.	c #00EE26",
"G.	c #00C11D",
"H.	c #018510",
"I.	c #015C08",
"J.	c #014303",
"K.	c #013502",
"L.	c #00D120",
"M.	c #00E725",
"N.	c #00F328",
"O.	c #00FA29",
"P.	c #00E926",
"Q.	c #01BB1C",
"R.	c #018710",
"S.	c #014603",
"T.	c #013702",
"U.	c #00F828",
"V.	c #00E124",
"W.	c #01B31A",
"X.	c #018711",
"Y.	c #016509",
"Z.	c #014904",
"`.	c #00F227",
" +	c #00D821",
".+	c #01AA17",
"++	c #01840F",
"@+	c #01680A",
"#+	c #014B05",
"$+	c #013802",
"%+	c #00CA1F",
"&+	c #00E224",
"*+	c #019F15",
"=+	c #017E0F",
"-+	c #01670A",
";+	c #014D05",
">+	c #013603",
",+	c #00C31D",
"'+	c #00EB26",
")+	c #00FC29",
"!+	c #00F628",
"~+	c #00DD23",
"{+	c #01B51A",
"]+	c #019312",
"^+	c #017A0E",
"/+	c #016309",
"(+	c #003903",
"_+	c #009414",
":+	c #00B81B",
"<+	c #00D421",
"[+	c #00F829",
"}+	c #00F429",
"|+	c #00E425",
"1+	c #01C11D",
"2+	c #01A416",
"3+	c #018810",
"4+	c #01720D",
"5+	c #00AA18",
"6+	c #00C71F",
"7+	c #00DB23",
"8+	c #00F127",
"9+	c #00DF23",
"0+	c #00C21D",
"a+	c #01AC19",
"b+	c #019613",
"c+	c #017D0E",
"d+	c #016A0B",
"e+	c #015406",
"f+	c #013E03",
"g+	c #009614",
"h+	c #00B31B",
"i+	c #00D822",
"j+	c #01BE1C",
"k+	c #01AE19",
"l+	c #019A15",
"m+	c #018610",
"n+	c #01720C",
"o+	c #015F09",
"p+	c #003403",
"q+	c #005D08",
"r+	c #009714",
"s+	c #01BA1B",
"t+	c #01B71B",
"u+	c #01B21A",
"v+	c #01A717",
"w+	c #019614",
"x+	c #01760D",
"y+	c #01650A",
"z+	c #015306",
"A+	c #003102",
"B+	c #006509",
"C+	c #019013",
"D+	c #019914",
"E+	c #019C15",
"F+	c #019C16",
"G+	c #019714",
"H+	c #018C12",
"I+	c #017F0F",
"J+	c #01740D",
"K+	c #01690B",
"L+	c #015807",
"M+	c #014804",
"N+	c #013903",
"O+	c #016109",
"P+	c #01710C",
"Q+	c #01790D",
"R+	c #018110",
"S+	c #016D0C",
"T+	c #015908",
"U+	c #014A04",
"V+	c #013C03",
"W+	c #015606",
"X+	c #016609",
"Y+	c #01690A",
"Z+	c #016209",
"`+	c #015506",
" @	c #014004",
".@	c #001F01",
"+@	c #014104",
"@@	c #015006",
"#@	c #014B04",
"$@	c #003603",
"%@	c #001E01",
"&@	c #003F04",
"*@	c #014003",
"=@	c #003E03",
"-@	c #002301",
";@	c #003302",
">@	c #000100",
",@	c #000200",
"'@	c #000500",
")@	c #000700",
"!@	c #000B00",
"~@	c #000E00",
"{@	c #000F00",
"]@	c #000C00",
"^@	c #000900",
"/@	c #000600",
"(@	c #000400",
"_@	c #000300",
":@	c #000800",
"<@	c #001000",
"[@	c #001701",
"}@	c #002001",
"|@	c #001B01",
"1@	c #001801",
"2@	c #001401",
"3@	c #002501",
"4@	c #003A03",
"5@	c #002C02",
"6@	c #002702",
"7@	c #000A00",
"8@	c #004104",
"9@	c #004805",
"0@	c #004C06",
"a@	c #004E06",
"b@	c #004D06",
"c@	c #003002",
"d@	c #002801",
"e@	c #001901",
"f@	c #001200",
"g@	c #001A01",
"h@	c #004304",
"i@	c #004C05",
"j@	c #005106",
"k@	c #005407",
"l@	c #005607",
"m@	c #005707",
"n@	c #005207",
"o@	c #004A05",
"p@	c #002802",
"q@	c #002F02",
"r@	c #003D04",
"s@	c #014F06",
"t@	c #015408",
"u@	c #015608",
"v@	c #015808",
"w@	c #005908",
"x@	c #003C03",
"y@	c #024706",
"z@	c #094F0E",
"A@	c #125315",
"B@	c #155618",
"C@	c #125817",
"D@	c #095810",
"E@	c #03590A",
"F@	c #015909",
"G@	c #005006",
"H@	c #001501",
"I@	c #07410B",
"J@	c #1C4B1E",
"K@	c #2C522D",
"L@	c #345535",
"M@	c #335734",
"N@	c #275729",
"O@	c #1A571D",
"P@	c #0D5712",
"Q@	c #025609",
"R@	c #004404",
"S@	c #001400",
"T@	c #063408",
"U@	c #183F1A",
"V@	c #2A482B",
"W@	c #374F38",
"X@	c #3B523C",
"Y@	c #365336",
"Z@	c #2A522B",
"`@	c #19511C",
" #	c #05500B",
".#	c #012002",
"+#	c #042A06",
"@#	c #0E3410",
"##	c #1A3B1B",
"$#	c #214022",
"%#	c #214321",
"&#	c #1A431B",
"*#	c #0E4311",
"=#	c #024106",
"-#	c #003E04",
";#	c #001201",
">#	c #011A02",
",#	c #032104",
"'#	c #052606",
")#	c #052907",
"!#	c #032B05",
"~#	c #012B03",
"                                                                                                                                ",
"                                                                                                                                ",
"                                                                                                                                ",
"                                                                                                                                ",
"                                                                                                                                ",
"                                                                                                                                ",
"                                                        . . + @ + . .                                                           ",
"                                                      . # $ % & % $ # .                                                         ",
"                                                    + * = - ; > ; - = * +                                                       ",
"                                                  @ % - , ' ) ! ) ' , - ~ @                                                     ",
"                                                + % { ] ^ / ( _ : < [ } | % +                                                   ",
"                                              . $ | ' 1 2 3 4 5 6 7 8 9 0 a b .                                                 ",
"                                              # c d e f g h i j k l m n o p q r                                                 ",
"                                            . s > t u v w x y z A B C D E ] F * .                                               ",
"                                            + G H I J K L M N O P Q R S T U V W +                                               ",
"                                            X ; Y Z `  ...+.@.#.$.%.&.*.=.-.;.>.,.                                              ",
"                                          . % , < '.).!.~.{.].^./.(.%._.:.<.[.}.~ .                                             ",
"                                          + = H |.1.2.3.4.5.6.7.8.9.0.a.b.c.[.d.% e.                                            ",
"                                          @ f.g.h.i.j.k.l.m.n.o.o.p.q.r.:.s.t.u.v.                                              ",
"                                          @ w.x.y.S z.A.B.C.D.D.D.E.9.F.G.H.I.J.K.e.                                            ",
"                                          # - Y 7 L.M.N.O.o.D.D.D.o.9.P.Q.R.[.S.T.+                                             ",
"                                          # - Y 7 L.M.N.O.o.D.D.D.o.U.V.W.X.Y.Z.T.+                                             ",
"                                          @ w.x.y.S _.`.9.E.D.D.D.E.(. +.+++@+#+$+e.                                            ",
"                                          @ f.g.h.%+&+%.q.p.o.o.o.p.%.:.*+=+-+;+>+e.                                            ",
"                                          + = H |.,+*.'+0.9.)+)+)+!+~+{+]+^+/+Z.(+e.                                            ",
"                                          . % , _+:+<+_.%.(.[+O.}+|+1+2+3+4+I.}.~ .                                             ",
"                                            X ; Y 5+6+7+M.r.8+r.9+0+a+b+c+d+e+f+,.                                              ",
"                                            + G ] g+h+%+i+R B S j+k+l+m+n+o+F W +                                               ",
"                                            . p+q+) r+k+s+Q.t+u+v+w+H.x+y+z+J.A+.                                               ",
"                                              # G B+) C+D+E+F+G+H+I+J+K+L+M+N+r                                                 ",
"                                              . b a O+P+Q+=+R+c+J+S+y+T+U+V+$ .                                                 ",
"                                                + ~ #+W+[.X+Y+-+Z+I.`+Z. @s +                                                   ",
"                                                  .@~ +@F V V V @@#@}.V+$@%@                                                    ",
"                                                    + $ &@>.>.*@q V+=@$ +                                                       ",
"                                                      . -@b ;@~ p+b r .                                                         ",
"                                                        . . + @ + . .                                                           ",
"                                                                                                                                ",
"                                                                                                                                ",
"                                                                                                                                ",
"                                                        >@,@,@,@,@,@,@>@                                                        ",
"                                                >@,@'@)@!@. ~@{@{@. ]@^@/@(@,@                                                  ",
"                                              _@:@<@[@@ .@r r r }@%@|@1@2@<@!@'@>@                                              ",
"                                            '@{@|@3@b p+% 4@4@% s A+5@6@# @ + <@7@,@                                            ",
"                                          (@<@.@5@% 8@9@0@a@w.w.b@9@W % c@d@}@e@f@!@(@                                          ",
"                                        >@7@g@X % h@i@j@k@l@m@m@m@| n@o@&@* p@.@[@{@:@>@                                        ",
"                                        _@{@.@q@r@9@s@t@u@v@w@w@w@w@m@- f.x@b r [@{@7@_@                                        ",
"                                        _@~@%@$ x@y@z@A@B@C@D@E@F@{ { l@G@h@c@}@H@~@^@_@                                        ",
"                                        >@:@[@,.p+I@J@K@L@M@N@O@P@Q@| - a@R@A+.@S@~@/@>@                                        ",
"                                          >@]@e@6@T@U@V@W@X@Y@Z@`@ #b@o@R@4@X |@<@:@>@                                          ",
"                                            _@^@2@.#+#@###$#%#&#*#=#-#(+* p@@ <@/@>@                                            ",
"                                              >@(@7@;#>#,#'#)#!#~#p@3@r g@;#^@(@>@                                              ",
"                                                  >@_@'@:@]@~@<@<@~@]@:@'@,@>@                                                  ",
"                                                          >@>@>@>@>@>@                                                          ",
"                                                                                                                                ",
"                                                                                                                                ",
"                                                                                                                                ",
"                                                                                                                                ",
"                                                                                                                                ",
"                                                                                                                                ",
"                                                                                                                                ",
"                                                                                                                                ",
"                                                                                                                                ",
"                                                                                                                                ",
"                                                                                                                                "};
