/* XPM */
static char * point_00_xpm[] = {
"64 64 352 2",
"  	c #000000",
". 	c #000D00",
"+ 	c #001601",
"@ 	c #001C01",
"# 	c #002A02",
"$ 	c #002E02",
"% 	c #003503",
"& 	c #003803",
"* 	c #003202",
"= 	c #004004",
"- 	c #004D06",
"; 	c #005507",
"> 	c #005807",
", 	c #005D08",
"' 	c #004204",
") 	c #006209",
"! 	c #006D0C",
"~ 	c #00760D",
"{ 	c #007C0F",
"] 	c #008010",
"^ 	c #004F06",
"/ 	c #00730D",
"( 	c #008210",
"_ 	c #008C12",
": 	c #009414",
"< 	c #009C15",
"[ 	c #00A016",
"} 	c #006109",
"| 	c #006A0B",
"1 	c #007E0F",
"2 	c #009113",
"3 	c #16A122",
"4 	c #2EAE36",
"5 	c #31B538",
"6 	c #25BB30",
"7 	c #1BBD29",
"8 	c #0ABD21",
"9 	c #00B91B",
"0 	c #00B21A",
"a 	c #00AB19",
"b 	c #007D0F",
"c 	c #00640A",
"d 	c #014B05",
"e 	c #00700C",
"f 	c #008410",
"g 	c #009815",
"h 	c #16AC24",
"i 	c #4BBF50",
"j 	c #72D075",
"k 	c #7AD67D",
"l 	c #70D873",
"m 	c #5BD860",
"n 	c #36D440",
"o 	c #0BD024",
"p 	c #00CB1F",
"q 	c #00C41E",
"r 	c #009714",
"s 	c #014304",
"t 	c #0B9B1B",
"u 	c #27B130",
"v 	c #4CC752",
"w 	c #84DA87",
"x 	c #A9E8AB",
"y 	c #B0EDB2",
"z 	c #ABEEAD",
"A 	c #97EC9A",
"B 	c #68E76E",
"C 	c #27E136",
"D 	c #00DD23",
"E 	c #00D722",
"F 	c #00CD20",
"G 	c #00C11D",
"H 	c #00AD19",
"I 	c #009213",
"J 	c #00710C",
"K 	c #015106",
"L 	c #0B991A",
"M 	c #36B23D",
"N 	c #6CCD70",
"O 	c #98E299",
"P 	c #C0F0C2",
"Q 	c #D2F6D3",
"R 	c #CAF6CC",
"S 	c #B6F5B8",
"T 	c #A2F4A4",
"U 	c #79F17D",
"V 	c #34ED41",
"W 	c #00E925",
"X 	c #00E424",
"Y 	c #00D221",
"Z 	c #00C01D",
"` 	c #01A517",
" .	c #01800F",
"..	c #015C08",
"+.	c #014404",
"@.	c #1BAD27",
"#.	c #58C85D",
"$.	c #98E29A",
"%.	c #BDF0BE",
"&.	c #D5F7D7",
"*.	c #D7F9D7",
"=.	c #C8F9CA",
"-.	c #A2F8A4",
";.	c #85F789",
">.	c #5AF662",
",.	c #1EF433",
"'.	c #00F127",
").	c #00ED26",
"!.	c #00E725",
"~.	c #00DF23",
"{.	c #00D120",
"].	c #00B51B",
"^.	c #018A12",
"/.	c #016409",
"(.	c #014D05",
"_.	c #013B02",
":.	c #1BBA28",
"<.	c #58D35D",
"[.	c #96E899",
"}.	c #B4F2B6",
"|.	c #C9F8CA",
"1.	c #C6FAC8",
"2.	c #A4FAA6",
"3.	c #5DF964",
"4.	c #3CFA48",
"5.	c #1EFA35",
"6.	c #01F829",
"7.	c #00F628",
"8.	c #00F328",
"9.	c #00EE26",
"0.	c #00DC22",
"a.	c #00BC1D",
"b.	c #018E12",
"c.	c #016909",
"d.	c #015306",
"e.	c #014103",
"f.	c #0AC422",
"g.	c #37D841",
"h.	c #6AE86E",
"i.	c #82F086",
"j.	c #88F68C",
"k.	c #82F986",
"l.	c #5AFB62",
"m.	c #1AFC32",
"n.	c #00FC29",
"o.	c #00FA29",
"p.	c #00F728",
"q.	c #00E024",
"r.	c #00BD1D",
"s.	c #018D13",
"t.	c #016A0B",
"u.	c #024203",
"v.	c #013E03",
"w.	c #0BDD26",
"x.	c #27EA38",
"y.	c #36F144",
"z.	c #30F63F",
"A.	c #2DFA3D",
"B.	c #19FC32",
"C.	c #00FE2A",
"D.	c #018711",
"E.	c #016609",
"F.	c #014F05",
"G.	c #023502",
"H.	c #00D020",
"I.	c #00EC26",
"J.	c #00F428",
"K.	c #00F829",
"L.	c #00FF2A",
"M.	c #00F228",
"N.	c #00DC23",
"O.	c #00AE19",
"P.	c #018410",
"Q.	c #01660A",
"R.	c #015105",
"S.	c #00BD1C",
"T.	c #00E324",
"U.	c #00F528",
"V.	c #00F929",
"W.	c #00EE27",
"X.	c #00D321",
"Y.	c #01A918",
"Z.	c #018710",
"`.	c #01690A",
" +	c #014303",
".+	c #023702",
"++	c #00F828",
"@+	c #01C81F",
"#+	c #01A416",
"$+	c #016F0B",
"%+	c #015907",
"&+	c #014604",
"*+	c #00DE22",
"=+	c #01BC1B",
"-+	c #019D15",
";+	c #01840F",
">+	c #01700D",
",+	c #015D07",
"'+	c #014805",
")+	c #023802",
"!+	c #00CF20",
"~+	c #01AF19",
"{+	c #019413",
"]+	c #017E0F",
"^+	c #016F0C",
"/+	c #013803",
"(+	c #00D822",
"_+	c #01B81B",
":+	c #01A115",
"<+	c #018A10",
"[+	c #017A0E",
"}+	c #016B0B",
"|+	c #014704",
"1+	c #003F03",
"2+	c #00A116",
"3+	c #00BA1C",
"4+	c #00CE20",
"5+	c #00DE23",
"6+	c #00E825",
"7+	c #00EF27",
"8+	c #00F629",
"9+	c #00ED27",
"0+	c #01BA1C",
"a+	c #01A618",
"b+	c #019312",
"c+	c #01720D",
"d+	c #01630A",
"e+	c #014104",
"f+	c #00740D",
"g+	c #00C31E",
"h+	c #00D421",
"i+	c #00E124",
"j+	c #00F227",
"k+	c #00F327",
"l+	c #00C71E",
"m+	c #01B71B",
"n+	c #01A819",
"o+	c #019A14",
"p+	c #01860F",
"q+	c #01780E",
"r+	c #015B08",
"s+	c #014B04",
"t+	c #013A03",
"u+	c #00620A",
"v+	c #00800F",
"w+	c #009A15",
"x+	c #00AF1A",
"y+	c #00DB22",
"z+	c #00E224",
"A+	c #00D621",
"B+	c #00C91E",
"C+	c #01BD1C",
"D+	c #01B41B",
"E+	c #01A518",
"F+	c #019814",
"G+	c #018910",
"H+	c #016E0B",
"I+	c #016009",
"J+	c #014204",
"K+	c #002F02",
"L+	c #005206",
"M+	c #006C0B",
"N+	c #008310",
"O+	c #009514",
"P+	c #01A717",
"Q+	c #01B51B",
"R+	c #01BF1D",
"S+	c #01BC1C",
"T+	c #01B019",
"U+	c #01A917",
"V+	c #019C16",
"W+	c #019013",
"X+	c #01790E",
"Y+	c #016109",
"Z+	c #015406",
"`+	c #024704",
" @	c #013F03",
".@	c #001D01",
"+@	c #003B03",
"@@	c #006B0B",
"#@	c #018E13",
"$@	c #049A17",
"%@	c #079E19",
"&@	c #079F19",
"*@	c #05A019",
"=@	c #039F17",
"-@	c #019F16",
";@	c #019714",
">@	c #018D12",
",@	c #018510",
"'@	c #01760E",
")@	c #016209",
"!@	c #014904",
"~@	c #013B03",
"{@	c #003A03",
"]@	c #000100",
"^@	c #002001",
"/@	c #003E04",
"(@	c #05710F",
"_@	c #0F7A17",
":@	c #167E1D",
"<@	c #198220",
"[@	c #17841F",
"}@	c #0F8719",
"|@	c #078414",
"1@	c #037E10",
"2@	c #01740D",
"3@	c #01700C",
"4@	c #01690B",
"5@	c #015407",
"6@	c #014804",
"7@	c #001F01",
"8@	c #000E00",
"9@	c #002101",
"0@	c #014D06",
"a@	c #045609",
"b@	c #0D5E12",
"c@	c #16651A",
"d@	c #1D6B21",
"e@	c #1E6F22",
"f@	c #19701D",
"g@	c #106D17",
"h@	c #076B10",
"i@	c #02680B",
"j@	c #015F08",
"k@	c #015005",
"l@	c #014504",
"m@	c #000300",
"n@	c #003403",
"o@	c #014A06",
"p@	c #034606",
"q@	c #074E0B",
"r@	c #0C5611",
"s@	c #105914",
"t@	c #0E5812",
"u@	c #0A580F",
"v@	c #04580B",
"w@	c #015507",
"x@	c #014D04",
"y@	c #004905",
"z@	c #001000",
"A@	c #003603",
"B@	c #014605",
"C@	c #024806",
"D@	c #034105",
"E@	c #024304",
"F@	c #004404",
"G@	c #004605",
"H@	c #000F00",
"I@	c #001E01",
"J@	c #002D02",
"K@	c #003102",
"                                                                                                                                ",
"                                                                                                                                ",
"                                                                                                                                ",
"                                                                                                                                ",
"                                                                                                                                ",
"                                                                                                                                ",
"                                                                                                                                ",
"                                                                                                                                ",
"                                                                                                                                ",
"                                                                                                                                ",
"                                                                                                                                ",
"                                                                                                                                ",
"                                                                                                                                ",
"                                                                                                                                ",
"                                                                                                                                ",
"                                                                                                                                ",
"                                                                                                                                ",
"                                                                                                                                ",
"                                                                                                                                ",
"                                                                                                                                ",
"                                                                                                                                ",
"                                                                                                                                ",
"                                                                                                                                ",
"                                                        . . . + + . . .                                                         ",
"                                                    . @ # $ % & & % $ # @ .                                                     ",
"                                                . @ * = - ; > , , > ; - = * @ .                                                 ",
"                                              @ $ ' ; ) ! ~ { ] ] { ~ ! ) ; ' $ @                                               ",
"                                          . @ & ^ ) / ( _ : < [ [ < : _ ( / } - & @ .                                           ",
"                                          @ & ; | 1 2 3 4 5 6 7 8 9 0 a [ 2 b c d & @                                           ",
"                                        @ & ; e f g h i j k l m n o p q 9 a r b ) s & @                                         ",
"                                      . $ ^ | f t u v w x y z A B C D E F G H I J K ' $ .                                       ",
"                                      @ ' ) 1 L M N O P Q R S T U V W X D Y Z `  ...+.' @                                       ",
"                                    . * ; / 2 @.#.$.%.&.*.=.-.;.>.,.'.).!.~.{.].^./.(._.* .                                     ",
"                                    @ = ) ( [ :.<.[.}.|.1.2.3.4.5.6.7.8.9.!.0.a.b.c.d.e.= @                                     ",
"                                  . # - ! _ a f.g.h.i.j.k.l.m.n.n.n.o.p.8.).q.r.s.t.d.u.v.# .                                   ",
"                                  . $ ; ~ : 0 p w.x.y.z.A.B.C.C.C.C.n.o.7.'.q.9 D.E.F.e.G.$ .                                   ",
"                                  . % > { < 9 H.q.I.J.K.n.C.L.L.L.L.C.n.K.M.N.O.P.Q.R.e.G.% .                                   ",
"                                  + & , ] [ S.Y T.9.U.o.n.C.L.L.L.L.C.n.V.W.X.Y.Z.`.d. +.+& +                                   ",
"                                  + & , ] [ S.Y T.9.U.o.n.C.L.L.L.L.C.n.++!.@+#+D.$+%+&+.+& +                                   ",
"                                  . % > { < 9 H.q.I.J.K.n.C.L.L.L.L.C.n.8.*+=+-+;+>+,+'+)+% .                                   ",
"                                  . $ ; ~ : 0 p D W '.7.o.n.C.C.C.C.n.V.).!+~+{+]+^+..d /+$ .                                   ",
"                                  . # - ! _ a q E X ).8.p.o.n.n.n.n.o.M.(+_+:+<+[+}+%+|+1+# .                                   ",
"                                    @ = ) ( 2+3+4+5+6+7+J.p.V.o.o.8+9+X.0+a+b+ .c+d+d.e+= @                                     ",
"                                    . * ; f+I H g+h+i+W 9.j+J.k+W.~.l+m+n+o+p+q+}+r+s+t+* .                                     ",
"                                      @ ' u+v+w+x+G H.y+q.z+*+A+B+C+D+E+F+G+[+H+I+K J+' @                                       ",
"                                      . K+L+M+N+O+P+Q+C+R+S+m+Q+T+U+V+W+P.X+$+Y+Z+`+ @K+.                                       ",
"                                        .@+@; @@b #@$@%@&@*@=@-@;@>@,@]+'@H+)@Z+!@~@{@.@                                        ",
"                                        ]@^@/@K d+(@_@:@<@[@}@|@1@q+2@3@4@I+5@6@~@+@7@]@                                        ",
"                                          8@9@/@0@a@b@c@d@e@f@g@h@i@/.j@%+k@l@J++@7@.                                           ",
"                                            m@^@n@o@p@q@r@s@t@u@v@w@d.x@|+v.y@* 7@]@                                            ",
"                                              ]@z@9@A@B@C@D@D@E@E@e.v.F@G@A@^@H@]@                                              ",
"                                                  ]@H@I@J@K@& +@+@& K@J@I@8@]@                                                  ",
"                                                        . 8@8@+ + 8@8@.                                                         ",
"                                                                                                                                ",
"                                                                                                                                ",
"                                                                                                                                ",
"                                                                                                                                ",
"                                                                                                                                ",
"                                                                                                                                ",
"                                                                                                                                ",
"                                                                                                                                ",
"                                                                                                                                ",
"                                                                                                                                ",
"                                                                                                                                "};
