/* XPM */
static char * point_02_xpm[] = {
"64 64 376 2",
"  	c #000000",
". 	c #000D00",
"+ 	c #001C01",
"@ 	c #002602",
"# 	c #002A02",
"$ 	c #003202",
"% 	c #003503",
"& 	c #003D04",
"* 	c #004B05",
"= 	c #005607",
"- 	c #005F09",
"; 	c #00630A",
"> 	c #00680A",
", 	c #001601",
"' 	c #004705",
") 	c #005A08",
"! 	c #006C0B",
"~ 	c #00790E",
"{ 	c #008310",
"] 	c #008C12",
"^ 	c #009313",
"/ 	c #009714",
"( 	c #006B0B",
"_ 	c #005908",
": 	c #004505",
"< 	c #003302",
"[ 	c #002201",
"} 	c #005807",
"| 	c #006E0C",
"1 	c #008210",
"2 	c #089418",
"3 	c #25A52D",
"4 	c #3CB242",
"5 	c #41BA47",
"6 	c #39BE40",
"7 	c #2CC036",
"8 	c #17BF27",
"9 	c #04BC1E",
"0 	c #00B61B",
"a 	c #00AE19",
"b 	c #00A317",
"c 	c #009414",
"d 	c #008110",
"e 	c #00690B",
"f 	c #015006",
"g 	c #003A03",
"h 	c #002401",
"i 	c #006209",
"j 	c #007C0F",
"k 	c #069116",
"l 	c #1AA625",
"m 	c #3CBB44",
"n 	c #6ECE72",
"o 	c #91DD93",
"p 	c #99E39C",
"q 	c #93E596",
"r 	c #80E383",
"s 	c #57DE5D",
"t 	c #25DA33",
"u 	c #03D523",
"v 	c #00CE20",
"w 	c #00C41E",
"x 	c #00B71B",
"y 	c #008911",
"z 	c #014D05",
"A 	c #003D03",
"B 	c #002802",
"C 	c #004204",
"D 	c #017E10",
"E 	c #12991F",
"F 	c #3BB241",
"G 	c #6CCC70",
"H 	c #96DF98",
"I 	c #BBEEBD",
"J 	c #CDF4CE",
"K 	c #C6F6C8",
"L 	c #B4F5B6",
"M 	c #9EF3A1",
"N 	c #75F07B",
"O 	c #3AEC45",
"P 	c #09E828",
"Q 	c #00E324",
"R 	c #00DC23",
"S 	c #00D120",
"T 	c #00C01D",
"U 	c #01A417",
"V 	c #01810F",
"W 	c #015E08",
"X 	c #014704",
"Y 	c #003E04",
"Z 	c #003B03",
"` 	c #005C08",
" .	c #007A0E",
"..	c #039716",
"+.	c #24B22E",
"@.	c #5ECD62",
"#.	c #97E49A",
"$.	c #BBF1BC",
"%.	c #D1F7D1",
"&.	c #D0FAD0",
"*.	c #BBF9BD",
"=.	c #8EF992",
"-.	c #70F876",
";.	c #4AF754",
">.	c #1CF633",
",.	c #02F329",
"'.	c #00EF27",
").	c #00EA26",
"!.	c #00E224",
"~.	c #00D421",
"{.	c #00B71C",
"].	c #018E12",
"^.	c #01680A",
"/.	c #015005",
"(.	c #013E03",
"_.	c #003603",
":.	c #008B12",
"<.	c #01A919",
"[.	c #16C227",
"}.	c #43D74C",
"|.	c #74E877",
"1.	c #8CF090",
"2.	c #97F69A",
"3.	c #90F994",
"4.	c #6FFB74",
"5.	c #37FB45",
"6.	c #19FC31",
"7.	c #08FC2B",
"8.	c #01FB29",
"9.	c #00F929",
"0.	c #00F628",
"a.	c #00F227",
"b.	c #00EC26",
"c.	c #00DE24",
"d.	c #00BD1D",
"e.	c #018F13",
"f.	c #016C0B",
"g.	c #015406",
"h.	c #024303",
"i.	c #002902",
"j.	c #00780E",
"k.	c #00B41A",
"l.	c #01CC1F",
"m.	c #0BDE27",
"n.	c #22EA34",
"o.	c #2EF23D",
"p.	c #2AF73C",
"q.	c #26FB39",
"r.	c #16FD30",
"s.	c #02FE2B",
"t.	c #00FE2A",
"u.	c #00FD2A",
"v.	c #00FB29",
"w.	c #00F728",
"x.	c #00F027",
"y.	c #00DE23",
"z.	c #018911",
"A.	c #016709",
"B.	c #015105",
"C.	c #014103",
"D.	c #023502",
"E.	c #002F02",
"F.	c #003803",
"G.	c #005D08",
"H.	c #007F0F",
"I.	c #009F16",
"J.	c #00BB1C",
"K.	c #00ED26",
"L.	c #00F427",
"M.	c #00F928",
"N.	c #00FC29",
"O.	c #00FF2A",
"P.	c #00F829",
"Q.	c #00D621",
"R.	c #01AC19",
"S.	c #018710",
"T.	c #01690A",
"U.	c #015306",
"V.	c #014303",
"W.	c #023702",
"X.	c #008010",
"Y.	c #00A016",
"Z.	c #00BC1C",
"`.	c #00D221",
" +	c #00F428",
".+	c #00E524",
"++	c #01C71F",
"@+	c #01A516",
"#+	c #018811",
"$+	c #01700B",
"%+	c #015A07",
"&+	c #023902",
"*+	c #009915",
"=+	c #00CD20",
"-+	c #00EB26",
";+	c #00FA29",
">+	c #00D721",
",+	c #01B71A",
"'+	c #019A14",
")+	c #01820F",
"!+	c #016F0C",
"~+	c #015D08",
"{+	c #014A05",
"]+	c #013A03",
"^+	c #003002",
"/+	c #002E02",
"(+	c #004F06",
"_+	c #008D12",
":+	c #00AC19",
"<+	c #00D722",
"[+	c #00E424",
"}+	c #00F328",
"|+	c #00F028",
"1+	c #00D922",
"2+	c #01BB1C",
"3+	c #01A316",
"4+	c #018C11",
"5+	c #017B0E",
"6+	c #016B0B",
"7+	c #015907",
"8+	c #014804",
"9+	c #003E03",
"0+	c #007E0F",
"a+	c #009B15",
"b+	c #00C91F",
"c+	c #00F127",
"d+	c #00F528",
"e+	c #00F729",
"f+	c #00F529",
"g+	c #00EE26",
"h+	c #00E023",
"i+	c #00CA1F",
"j+	c #01B41A",
"k+	c #01A216",
"l+	c #018F11",
"m+	c #017D0F",
"n+	c #01700C",
"o+	c #016109",
"p+	c #014003",
"q+	c #004905",
"r+	c #00670A",
"s+	c #009C15",
"t+	c #00B11A",
"u+	c #00C31E",
"v+	c #00D121",
"w+	c #00DB23",
"x+	c #00E123",
"y+	c #00E223",
"z+	c #01C41D",
"A+	c #01B71B",
"B+	c #01A918",
"C+	c #019B15",
"D+	c #017D0E",
"E+	c #01620A",
"F+	c #014504",
"G+	c #013F03",
"H+	c #002D02",
"I+	c #004C06",
"J+	c #00640A",
"K+	c #019D15",
"L+	c #01AB18",
"M+	c #01B31A",
"N+	c #01B51B",
"O+	c #01B01A",
"P+	c #01AF19",
"Q+	c #019614",
"R+	c #018A11",
"S+	c #01800F",
"T+	c #01750D",
"U+	c #014404",
"V+	c #002C02",
"W+	c #004304",
"X+	c #015607",
"Y+	c #01660A",
"Z+	c #01740D",
"`+	c #017F0F",
" @	c #018410",
".@	c #018C12",
"+@	c #01760D",
"@@	c #01690B",
"#@	c #015707",
"$@	c #014B04",
"%@	c #013803",
"&@	c #001F01",
"*@	c #003703",
"=@	c #014604",
"-@	c #014F06",
";@	c #015C08",
">@	c #016309",
",@	c #016909",
"'@	c #01650A",
")@	c #016209",
"!@	c #014304",
"~@	c #001D01",
"{@	c #003403",
"]@	c #014805",
"^@	c #014904",
"/@	c #013703",
"(@	c #003303",
"_@	c #002301",
":@	c #003102",
"<@	c #000100",
"[@	c #000200",
"}@	c #000300",
"|@	c #000400",
"1@	c #000500",
"2@	c #000600",
"3@	c #000700",
"4@	c #000C00",
"5@	c #000F00",
"6@	c #001200",
"7@	c #001401",
"8@	c #001501",
"9@	c #001301",
"0@	c #001100",
"a@	c #000B00",
"b@	c #000800",
"c@	c #000A00",
"d@	c #001701",
"e@	c #002501",
"f@	c #002502",
"g@	c #001E01",
"h@	c #001B01",
"i@	c #001300",
"j@	c #000900",
"k@	c #001801",
"l@	c #002001",
"m@	c #002702",
"n@	c #013003",
"o@	c #013204",
"p@	c #023404",
"q@	c #023504",
"r@	c #013504",
"s@	c #013603",
"t@	c #000E00",
"u@	c #012402",
"v@	c #032A05",
"w@	c #092E0B",
"x@	c #103211",
"y@	c #143315",
"z@	c #143515",
"A@	c #113512",
"B@	c #0B350D",
"C@	c #063508",
"D@	c #033505",
"E@	c #013503",
"F@	c #003203",
"G@	c #011B02",
"H@	c #052206",
"I@	c #0D280F",
"J@	c #162C17",
"K@	c #1D2F1E",
"L@	c #213121",
"M@	c #1F3220",
"N@	c #1B331C",
"O@	c #143215",
"P@	c #0B320D",
"Q@	c #043106",
"R@	c #011201",
"S@	c #031803",
"T@	c #061C07",
"U@	c #0B210C",
"V@	c #102410",
"W@	c #112612",
"X@	c #102710",
"Y@	c #0C270D",
"Z@	c #062707",
"`@	c #022603",
" #	c #002402",
".#	c #001000",
"+#	c #000B01",
"@#	c #010E01",
"##	c #011001",
"$#	c #011101",
"%#	c #001201",
"&#	c #001101",
"                                                    . + @ # $ % % $ # @ + .                                                     ",
"                                              . + # & * = - ; > > ; - = * & # , .                                               ",
"                                          . , $ ' ) ! ~ { ] ^ / / ^ ] { ~ ( _ : < , .                                           ",
"                                        . [ & } | 1 2 3 4 5 6 7 8 9 0 a b c d e f g h .                                         ",
"                                      . # ' i j k l m n o p q r s t u v w x b y ( z A B .                                       ",
"                                      [ C i D E F G H I J K L M N O P Q R S T U V W X Y [                                       ",
"                                    , Z `  ...+.@.#.$.%.&.*.=.-.;.>.,.'.).!.~.{.].^./.(._.,                                     ",
"                                  . # * ! :.<.[.}.|.1.2.3.4.5.6.7.8.9.0.a.b.c.d.e.f.g.h.A i..                                   ",
"                                  . $ = j./ k.l.m.n.o.p.q.r.s.t.t.t.u.v.w.x.y.x z.A.B.C.D.E..                                   ",
"                                  , F.G.H.I.J.S !.K.L.M.N.t.O.O.O.O.t.N.P.'.Q.R.S.T.U.V.W.% ,                                   ",
"                                  , Z G.X.Y.Z.`.!.K. +9.N.t.O.O.O.O.t.N.w..+++@+#+$+%+X &+_.,                                   ",
"                                  . % } ~ *+0 =+y.-+a.w.v.u.t.O.O.t.u.;+x.>+,+'+)+!+~+{+]+^+.                                   ",
"                                  . /+(+| _+:+w <+[+K.}+w.;+N.N.N.N.9.|+1+2+3+4+5+6+7+8+9+# .                                   ",
"                                    + & - 0+a+k.b+1+[+b.c+d+0.e+f+g+h+i+j+k+l+m+n+o+B.p+g +                                     ",
"                                    . @ q+r+{ s+t+u+v+w+x+Q y+w+S z+A+B+C+4+D+!+E+g.F+G+h .                                     ",
"                                      . H+I+J+ .] K+L+M+N+j+O+P+B+k+Q+R+S+T+6+W B.U+A V+.                                       ",
"                                        . # W+X+Y+Z+`+ @#+R+.@R+ @m++@n+@@o+#@$@p+%@i..                                         ",
"                                          . &@*@=@-@X+;@>@A.,@Y+'@)@~+7+U.$@!@(.% ~@.                                           ",
"                                              . + {@]+U+8+]@8+^@8+X U+!@p+/@(@, .                                               ",
"                                                  . , _@/+:@% F.F.% E.H+[ , .                                                   ",
"                                                        . . . . . . . .                                                         ",
"                                                                                                                                ",
"                                                                                                                                ",
"                                                                                                                                ",
"                                                                                                                                ",
"                                                                                                                                ",
"                                                                                                                                ",
"                                                                                                                                ",
"                                                                                                                                ",
"                                                                                                                                ",
"                                                                                                                                ",
"                                                                                                                                ",
"                                                                                                                                ",
"                                                                                                                                ",
"                                                                                                                                ",
"                                                                                                                                ",
"                                                                                                                                ",
"                                                                                                                                ",
"                                                                                                                                ",
"                                                                                                                                ",
"                                                            <@<@<@<@                                                            ",
"                                              <@<@[@}@|@1@2@2@2@2@1@1@|@}@[@[@<@<@                                              ",
"                                          [@|@3@4@5@6@7@, , , , 8@9@0@5@. a@b@2@|@[@<@                                          ",
"                                      <@|@c@0@d@~@[ e@B i.# # i.B f@[ g@h@d@i@5@a@b@1@[@<@                                      ",
"                                    <@|@a@7@h@[ B H+^+:@(@(@{@{@(@< :@/+i._@~@d@6@. j@1@}@<@                                    ",
"                                  <@[@3@5@k@l@m@V+n@o@p@q@r@s@_._._.% {@:@V+e@+ 8@t@j@2@|@[@                                    ",
"                                  <@<@1@. 8@~@u@v@w@x@y@z@A@B@C@D@E@% {@F@E.B &@8@. b@1@}@<@                                    ",
"                                    <@<@2@4@7@G@H@I@J@K@L@M@N@O@P@Q@n@E.H+i.h + i@a@2@}@<@                                      ",
"                                        <@}@3@4@R@S@T@U@V@W@X@Y@Z@`@ #[ &@h@, .#j@1@[@<@                                        ",
"                                            <@<@}@1@j@+#@###$#R@%#&#.#t@a@b@1@}@<@                                              ",
"                                                  <@<@<@<@<@[@[@[@[@<@<@<@                                                      ",
"                                                                                                                                ",
"                                                                                                                                ",
"                                                                                                                                ",
"                                                                                                                                ",
"                                                                                                                                ",
"                                                                                                                                ",
"                                                                                                                                ",
"                                                                                                                                ",
"                                                                                                                                ",
"                                                                                                                                ",
"                                                                                                                                ",
"                                                                                                                                ",
"                                                                                                                                "};
