/* XPM */
static char * pointdeath_01_xpm[] = {
"64 64 179 2",
"  	c #000000",
". 	c #051C00",
"+ 	c #103B00",
"@ 	c #236900",
"# 	c #3EAB00",
"$ 	c #3CA800",
"% 	c #58ED00",
"& 	c #020D00",
"* 	c #010C00",
"= 	c #134200",
"- 	c #42B600",
"; 	c #5BF300",
"> 	c #031600",
", 	c #154700",
"' 	c #257000",
") 	c #297900",
"! 	c #1B5600",
"~ 	c #062200",
"{ 	c #041B00",
"] 	c #0E3500",
"^ 	c #164900",
"/ 	c #124000",
"( 	c #41B400",
"_ 	c #59EF00",
": 	c #59EE00",
"< 	c #206200",
"[ 	c #3CA700",
"} 	c #4ED200",
"| 	c #52DD00",
"1 	c #3DAA00",
"2 	c #1A5300",
"3 	c #010500",
"4 	c #041900",
"5 	c #113C00",
"6 	c #246B00",
"7 	c #339100",
"8 	c #369900",
"9 	c #0C3200",
"0 	c #113D00",
"a 	c #3CA600",
"b 	c #51DA00",
"c 	c #50D800",
"d 	c #3BA300",
"e 	c #2D8200",
"f 	c #46BE00",
"g 	c #57EA00",
"h 	c #5EF900",
"i 	c #5FFD00",
"j 	c #50D700",
"k 	c #256E00",
"l 	c #092500",
"m 	c #1E5900",
"n 	c #349200",
"o 	c #45BD00",
"p 	c #4FD700",
"q 	c #4CCC00",
"r 	c #328F00",
"s 	c #0B2E00",
"t 	c #2A7A00",
"u 	c #39A000",
"v 	c #3AA100",
"w 	c #2B7D00",
"x 	c #216600",
"y 	c #5FFC00",
"z 	c #40B200",
"A 	c #1A5500",
"B 	c #031000",
"C 	c #163E00",
"D 	c #2F7D00",
"E 	c #47BF00",
"F 	c #56E600",
"G 	c #5CF400",
"H 	c #54E100",
"I 	c #3BA400",
"J 	c #1C5A00",
"K 	c #144500",
"L 	c #43B800",
"M 	c #5EFB00",
"N 	c #5FFE00",
"O 	c #5DF600",
"P 	c #52DE00",
"Q 	c #3EAD00",
"R 	c #226800",
"S 	c #030B00",
"T 	c #143500",
"U 	c #2D7700",
"V 	c #4AC000",
"W 	c #58EA00",
"X 	c #5CF500",
"Y 	c #51DB00",
"Z 	c #1F6000",
"` 	c #082600",
" .	c #2E8500",
"..	c #55E500",
"+.	c #5FFB00",
"@.	c #5AF100",
"#.	c #4BCB00",
"$.	c #184F00",
"%.	c #000100",
"&.	c #0D2300",
"*.	c #265F00",
"=.	c #3FA400",
"-.	c #4ED400",
";.	c #4ED300",
">.	c #42B500",
",.	c #2D8300",
"'.	c #54E200",
").	c #267200",
"!.	c #0D3500",
"~.	c #061000",
"{.	c #173F00",
"].	c #2C7D00",
"^.	c #339000",
"/.	c #41B300",
"(.	c #236A00",
"_.	c #082700",
":.	c #164B00",
"<.	c #195100",
"[.	c #246D00",
"}.	c #092A00",
"|.	c #277300",
"1.	c #318C00",
"2.	c #246C00",
"3.	c #2B7E00",
"4.	c #2F8700",
"5.	c #318B00",
"6.	c #297800",
"7.	c #216500",
"8.	c #287600",
"9.	c #53DF00",
"0.	c #49C800",
"a.	c #0F3800",
"b.	c #4BCC00",
"c.	c #54E000",
"d.	c #56E700",
"e.	c #57E800",
"f.	c #55E400",
"g.	c #43B900",
"h.	c #5DF800",
"i.	c #5AF000",
"j.	c #4FD600",
"k.	c #4DD000",
"l.	c #58EB00",
"m.	c #5EFA00",
"n.	c #44BA00",
"o.	c #53DE00",
"p.	c #2C8100",
"q.	c #1C5800",
"r.	c #369800",
"s.	c #4CCD00",
"t.	c #4DD100",
"u.	c #359700",
"v.	c #1E5D00",
"w.	c #206300",
"x.	c #2C7F00",
"y.	c #4BCD00",
"z.	c #47C200",
"A.	c #379B00",
"B.	c #1E5F00",
"C.	c #379A00",
"D.	c #46C000",
"E.	c #44BB00",
"F.	c #2C8000",
"G.	c #5BF200",
"H.	c #5BF400",
"I.	c #52DC00",
"J.	c #287700",
"K.	c #3FAD00",
"L.	c #267100",
"M.	c #318D00",
"N.	c #3AA200",
"O.	c #41B200",
"P.	c #2F8800",
"Q.	c #5CF600",
"R.	c #5DF900",
"S.	c #60FE00",
"T.	c #3DA900",
"U.	c #5DF700",
"V.	c #328E00",
"                                                                                                                                ",
"                                                                                                                                ",
"                                                        . + + .                                                                 ",
"                                                      . @ # # @ .                                                               ",
"                                                      + $ % % $ +                       & &                                     ",
"                        * &                           = - ; ; - =                   > , ' ) ! ~                                 ",
"                      { ] ^ / .                       = ( _ : ( /                 ~ < [ } | 1 2                                 ",
"                  3 4 5 6 7 8 ' 9                     0 a b c d +             > ^ e f g h i j k &                               ",
"                  3 l m n o p q r = &                 s t u v w s           ~ x 1 b ; y h % z A                                 ",
"                    B C D E F G H I J .               & 9 / K + >           J L % M N O P Q R ~                                 ",
"                      S T U V W X Y $ Z `                                 >  ...i +.@.#.7 $.>                                   ",
"                        %.&.*.=.-.;.>. .^ .                               > ,.'.+._ o ).!.&                                     ",
"                            ~.{.].u ^.x !.&                                 J Q ;./.(.>     &                                   ",
"                              %._.:.<.!.>                                   ~ 2 [.2 ~                                           ",
"                                  & > &                                         >                                               ",
"                                                                                                                                ",
"                    & . ` }.. &                                                         & . ~ ` }.}.` ~ >                       ",
"                  > , |.r 8 1.2.:.}.&                                             & ~ = x 3.4.5.5. .6.7.K >                     ",
"                & !.8./.9.@.F 0.8 Z `                                           & a.|.[ b.c.d.e.f.-.g.^.J .                     ",
"                & 0 3.g.d.h.i.j.1 ' 9                                           > $.8 k.l.h.M m.; P n.4.<.>                     ",
"                > + t >.o._ l.j ( p.= &                                         . q.r.f s.t.} } #.g.u.(.!.&                     ",
"                  . 0 v.' 6.8.).w.:.}.&                                         & }.= 2 2 A A A <.^ + }.&                       ",
"                                                                                                                                ",
"                                    & . &                                   & ~ s ~ &                                           ",
"                                . = 7.).A ~                               & s w.p.) ! ~                                         ",
"                            . ^ x.( y.z.A.B.`                             ` B.C.D.} E.F.^ .                                     ",
"                        . , F.E.'.G.H.9.( 6.!.&                           }.7.1 c _ @.H E.F.^ .                                 ",
"                    & s x Q I.H.i X c.>.J.0 >                             & s k K.c ; i X '.- L.!.&                             ",
"                    . <.M.0.l.i.'.E.F.^ .             & 9 + + 9 >             . , w E.'.X M F >.J.!.&                           ",
"                    > a.k N.f z x.^ .                 s 6.C.A.J.}.                . ^ F.E.I.j O.J.+ &                           ",
"                      & + Z v./ .                     0 [ Y Y a 0                     . ^ ) A.P.A ~                             ",
"                        & . &                         = - Q.G.- =                         . / = }.&                             ",
"                                                      = - m.R.E.=                             & &                               ",
"                                                      + z S.i z.+                                                               ",
"                                                      K D.y i - >                                                               ",
"                                                      + T.U.m.g.                                                                ",
"                                                      ` :.V.[ t                                                                 ",
"                                                        ` >                                                                     ",
"                                                                                                                                ",
"                                                                                                                                ",
"                                                                                                                                ",
"                                                                                                                                ",
"                                                                                                                                ",
"                                                                                                                                ",
"                                                                                                                                ",
"                                                                                                                                ",
"                                                                                                                                ",
"                                                                                                                                ",
"                                                                                                                                ",
"                                                                                                                                ",
"                                                                                                                                ",
"                                                                                                                                ",
"                                                                                                                                ",
"                                                                                                                                ",
"                                                                                                                                ",
"                                                                                                                                ",
"                                                                                                                                ",
"                                                                                                                                ",
"                                                                                                                                ",
"                                                                                                                                ",
"                                                                                                                                ",
"                                                                                                                                ",
"                                                                                                                                ",
"                                                                                                                                "};
