/* XPM */
static char * wall_01_xpm[] = {
"64 64 7 1",
" 	c #000000",
".	c #000013",
"+	c #0A00FF",
"@	c #0500C1",
"#	c #00314E",
"$	c #0900F5",
"%	c #032A97",
"                                                          ...   ",
"                                                          ...   ",
"                                                          ...   ",
"+++++++++++++++++++++++++++++++++++++++++++++++++++++++@@@   ...",
"+++++++++++++++++++++++++++++++++++++++++++++++++++++++@@@   ...",
"+++++++++++++++++++++++++++++++++++++++++++++++++++++++@@@   ...",
"#######################################################$$$@@@   ",
"#######################################################$$$@@@   ",
"#######################################################$$$@@@   ",
"##########################################################+++   ",
"##########################################################+++   ",
"##########################################################+++   ",
"##########################################################+++   ",
"##########################################################+++   ",
"##########################################################+++   ",
"##########################################################+++   ",
"##########################################################+++   ",
"##########################################################+++   ",
"##########################################################+++   ",
"##########################################################+++   ",
"##########################################################+++   ",
"##########################################################+++   ",
"##########################################################+++   ",
"##########################################################+++   ",
"##########################################################+++   ",
"##########################################################+++   ",
"##########################################################+++   ",
"##########################################################+++   ",
"##########################################################+++   ",
"##########################################################+++   ",
"##########################################################+++   ",
"##########################################################+++   ",
"##########################################################+++   ",
"##########################################################+++   ",
"##########################################################+++   ",
"##########################################################+++   ",
"##########################################################+++   ",
"##########################################################+++   ",
"##########################################################+++   ",
"##########################################################+++   ",
"##########################################################+++   ",
"##########################################################+++   ",
"##########################################################+++   ",
"##########################################################+++   ",
"##########################################################+++   ",
"##########################################################+++   ",
"##########################################################+++   ",
"##########################################################+++   ",
"##########################################################+++   ",
"##########################################################+++   ",
"##########################################################+++   ",
"##########################################################+++   ",
"##########################################################+++   ",
"##########################################################+++   ",
"##########################################################+++   ",
"##########################################################+++   ",
"##########################################################+++   ",
"##########################################################+++   ",
"+++%%%####################################################+++   ",
"+++%%%####################################################+++   ",
"+++%%%####################################################+++   ",
"   +++####################################################+++   ",
"   +++####################################################+++   ",
"   +++####################################################+++   "};
