/* XPM */
static char * wall_vertical_xpm[] = {
"64 64 4 1",
" 	c #000000",
".	c #0A00FE",
"+	c #00314E",
"@	c #0A00FF",
"   ...++++++++++++++++++++++++++++++++++++++++++++++++++++@@@   ",
"   ...++++++++++++++++++++++++++++++++++++++++++++++++++++@@@   ",
"   ...++++++++++++++++++++++++++++++++++++++++++++++++++++@@@   ",
"   ...++++++++++++++++++++++++++++++++++++++++++++++++++++...   ",
"   ...++++++++++++++++++++++++++++++++++++++++++++++++++++...   ",
"   ...++++++++++++++++++++++++++++++++++++++++++++++++++++...   ",
"   ...++++++++++++++++++++++++++++++++++++++++++++++++++++...   ",
"   ...++++++++++++++++++++++++++++++++++++++++++++++++++++...   ",
"   ...++++++++++++++++++++++++++++++++++++++++++++++++++++...   ",
"   ...++++++++++++++++++++++++++++++++++++++++++++++++++++...   ",
"   ...++++++++++++++++++++++++++++++++++++++++++++++++++++...   ",
"   ...++++++++++++++++++++++++++++++++++++++++++++++++++++...   ",
"   ...++++++++++++++++++++++++++++++++++++++++++++++++++++...   ",
"   @@@++++++++++++++++++++++++++++++++++++++++++++++++++++...   ",
"   @@@++++++++++++++++++++++++++++++++++++++++++++++++++++...   ",
"   @@@++++++++++++++++++++++++++++++++++++++++++++++++++++...   ",
"   ...++++++++++++++++++++++++++++++++++++++++++++++++++++...   ",
"   ...++++++++++++++++++++++++++++++++++++++++++++++++++++...   ",
"   ...++++++++++++++++++++++++++++++++++++++++++++++++++++...   ",
"   @@@++++++++++++++++++++++++++++++++++++++++++++++++++++...   ",
"   @@@++++++++++++++++++++++++++++++++++++++++++++++++++++...   ",
"   @@@++++++++++++++++++++++++++++++++++++++++++++++++++++...   ",
"   ...++++++++++++++++++++++++++++++++++++++++++++++++++++...   ",
"   ...++++++++++++++++++++++++++++++++++++++++++++++++++++...   ",
"   ...++++++++++++++++++++++++++++++++++++++++++++++++++++...   ",
"   ...++++++++++++++++++++++++++++++++++++++++++++++++++++...   ",
"   ...++++++++++++++++++++++++++++++++++++++++++++++++++++...   ",
"   ...++++++++++++++++++++++++++++++++++++++++++++++++++++...   ",
"   ...++++++++++++++++++++++++++++++++++++++++++++++++++++...   ",
"   ...++++++++++++++++++++++++++++++++++++++++++++++++++++...   ",
"   ...++++++++++++++++++++++++++++++++++++++++++++++++++++...   ",
"   ...++++++++++++++++++++++++++++++++++++++++++++++++++++...   ",
"   ...++++++++++++++++++++++++++++++++++++++++++++++++++++...   ",
"   ...++++++++++++++++++++++++++++++++++++++++++++++++++++...   ",
"   ...++++++++++++++++++++++++++++++++++++++++++++++++++++...   ",
"   ...++++++++++++++++++++++++++++++++++++++++++++++++++++...   ",
"   ...++++++++++++++++++++++++++++++++++++++++++++++++++++...   ",
"   ...++++++++++++++++++++++++++++++++++++++++++++++++++++...   ",
"   ...++++++++++++++++++++++++++++++++++++++++++++++++++++...   ",
"   ...++++++++++++++++++++++++++++++++++++++++++++++++++++...   ",
"   ...++++++++++++++++++++++++++++++++++++++++++++++++++++...   ",
"   ...++++++++++++++++++++++++++++++++++++++++++++++++++++...   ",
"   ...++++++++++++++++++++++++++++++++++++++++++++++++++++...   ",
"   ...++++++++++++++++++++++++++++++++++++++++++++++++++++...   ",
"   ...++++++++++++++++++++++++++++++++++++++++++++++++++++...   ",
"   ...++++++++++++++++++++++++++++++++++++++++++++++++++++...   ",
"   ...++++++++++++++++++++++++++++++++++++++++++++++++++++...   ",
"   ...++++++++++++++++++++++++++++++++++++++++++++++++++++...   ",
"   ...++++++++++++++++++++++++++++++++++++++++++++++++++++...   ",
"   ...++++++++++++++++++++++++++++++++++++++++++++++++++++...   ",
"   ...++++++++++++++++++++++++++++++++++++++++++++++++++++...   ",
"   ...++++++++++++++++++++++++++++++++++++++++++++++++++++...   ",
"   ...++++++++++++++++++++++++++++++++++++++++++++++++++++...   ",
"   ...++++++++++++++++++++++++++++++++++++++++++++++++++++...   ",
"   ...++++++++++++++++++++++++++++++++++++++++++++++++++++...   ",
"   ...++++++++++++++++++++++++++++++++++++++++++++++++++++...   ",
"   ...++++++++++++++++++++++++++++++++++++++++++++++++++++...   ",
"   ...++++++++++++++++++++++++++++++++++++++++++++++++++++...   ",
"   ...++++++++++++++++++++++++++++++++++++++++++++++++++++...   ",
"   ...++++++++++++++++++++++++++++++++++++++++++++++++++++...   ",
"   ...++++++++++++++++++++++++++++++++++++++++++++++++++++...   ",
"   ...++++++++++++++++++++++++++++++++++++++++++++++++++++...   ",
"   @@@++++++++++++++++++++++++++++++++++++++++++++++++++++...   ",
"   @@@++++++++++++++++++++++++++++++++++++++++++++++++++++...   "};
