/* XPM */
static char * wall_block_xpm[] = {
"64 64 2 1",
" 	c #0A00FF",
".	c #00314E",
"   ..........................................................   ",
"    ........................................................    ",
"     ......................................................     ",
".     ....................................................     .",
"..     ..................................................     ..",
"...     ................................................     ...",
"....     ..............................................     ....",
".....     ............................................     .....",
"......     ..........................................     ......",
".......     ........................................     .......",
"........     ......................................     ........",
".........     ....................................     .........",
"..........     ..................................     ..........",
"...........     ................................     ...........",
"............     ..............................     ............",
".............     ............................     .............",
"..............     ..........................     ..............",
"...............     ........................     ...............",
"................     ......................     ................",
".................     ....................     .................",
"..................     ..................     ..................",
"...................     ................     ...................",
"....................     ..............     ....................",
".....................     ............     .....................",
"......................     ..........     ......................",
".......................     ........     .......................",
"........................     ......     ........................",
".........................     ....     .........................",
"..........................     ..     ..........................",
"...........................          ...........................",
"............................        ............................",
".............................      .............................",
".............................      .............................",
"............................        ............................",
"...........................          ...........................",
"..........................     ..     ..........................",
".........................     ....     .........................",
"........................     ......     ........................",
".......................     ........     .......................",
"......................     ..........     ......................",
".....................     ............     .....................",
"....................     ..............     ....................",
"...................     ................     ...................",
"..................     ..................     ..................",
".................     ....................     .................",
"................     ......................     ................",
"...............     ........................     ...............",
"..............     ..........................     ..............",
".............     ............................     .............",
"............     ..............................     ............",
"...........     ................................     ...........",
"..........     ..................................     ..........",
".........     ....................................     .........",
"........     ......................................     ........",
".......     ........................................     .......",
"......     ..........................................     ......",
".....     ............................................     .....",
"....     ..............................................     ....",
"...     ................................................     ...",
"..     ..................................................     ..",
".     ....................................................     .",
"     ......................................................     ",
"    ........................................................    ",
"   ..........................................................   "};
